<svg width="173" height="255" viewBox="0 0 173 255" fill="none" xmlns="http://www.w3.org/2000/svg">
<path d="M87.246 235.002L87.246 95.473C101.622 87.474 113.311 80.1225 123.084 72.6172H50.2195C59.9928 80.1225 71.6813 87.474 86.0574 95.473L86.0574 235.002L33.9073 251.53H86.3546H86.9489H139.396L87.246 235.002Z" fill="#FF3FCB"/>
<path d="M85.7603 26.2299C136.276 26.2299 170.3 6.72275 170.3 6.72275M170.3 6.72275C170.3 6.72275 172.231 3 85.7603 3M170.3 6.72275C158.453 36.4779 146.061 54.9724 123.084 72.6172M139.396 251.53L87.246 235.002L87.246 95.473C101.622 87.474 113.311 80.1225 123.084 72.6172M139.396 251.53H86.3546M139.396 251.53H86.9489M86.3546 251.53H33.9073M86.3546 251.53H86.9489M87.5432 26.2299C37.0274 26.2299 3.00353 6.72275 3.00353 6.72275M3.00353 6.72275C3.00353 6.72275 1.07204 3 87.5432 3M3.00353 6.72275C14.8504 36.478 27.2424 54.9724 50.2195 72.6172M33.9073 251.53L86.0574 235.002L86.0574 95.473C71.6813 87.474 59.9928 80.1225 50.2195 72.6172M33.9073 251.53H86.9489M123.084 72.6172H50.2195" stroke="#FF3FCB" stroke-width="5"/>
</svg>
