<svg width="1920" height="1138" viewBox="0 0 1920 1138" fill="none" xmlns="http://www.w3.org/2000/svg">
<path d="M-209 1137C-149.527 885.54 -81.2672 670.928 7.26708 626.853C95.8014 582.778 124.524 942.608 223.534 885.54C322.544 828.471 363.77 177.276 439.801 128.75C515.833 80.2234 565.844 409.103 656.068 389.845C746.292 370.588 782.787 -67.1677 872.335 30.791C961.884 128.75 996.013 576.841 1088.6 630.065C1181.19 683.288 1224.11 384.201 1304.87 416.482C1385.63 448.763 1429.9 812.313 1521.14 781.305C1612.37 750.296 1646.84 75.7668 1737.4 232.806C1827.97 389.845 1845.2 1174.67 1953.67 1118.84C2062.14 1063 2125.33 981.276 2169.94 593.479" stroke="#FF3FCB" stroke-linejoin="round"/>
<path d="M223.534 885.54C124.524 942.608 95.8014 582.778 7.26707 626.853C-81.2673 670.928 -149.527 885.54 -209 1137H2169.94V593.479C2125.33 981.276 2062.14 1063 1953.67 1118.84C1845.2 1174.67 1827.97 389.845 1737.4 232.806C1646.84 75.7668 1612.37 750.296 1521.14 781.305C1429.9 812.313 1385.63 448.763 1304.87 416.482C1224.11 384.201 1181.19 683.288 1088.6 630.065C996.013 576.841 961.884 128.75 872.335 30.791C782.787 -67.1677 746.292 370.588 656.068 389.845C565.844 409.103 515.833 80.2234 439.801 128.75C363.77 177.276 322.544 828.471 223.534 885.54Z" fill="url(#paint0_linear_181_632)"/>
<circle cx="848.52" cy="16.5204" r="16.5204" fill="#FF3FCB"/>
<defs>
<linearGradient id="paint0_linear_181_632" x1="980.469" y1="16.5204" x2="980.469" y2="1264.5" gradientUnits="userSpaceOnUse">
<stop stop-color="#1549FE"/>
<stop offset="0.548103" stop-color="#FF3FCB" stop-opacity="0.33"/>
<stop offset="0.953819" stop-opacity="0.01"/>
</linearGradient>
</defs>
</svg>
