<svg width="1705" height="874" viewBox="0 0 1705 874" fill="none" xmlns="http://www.w3.org/2000/svg">
<g clip-path="url(#clip0_253_110)">
<path d="M1786.08 532.703C1701.25 441.737 1519.18 397.262 1358.92 428.389C1237.07 452.036 1138.53 511.871 1036.05 562.815C933.571 613.758 810.118 659.173 687.215 645.907C608.699 637.422 542.051 605.92 482.464 572.252C422.877 538.584 366.375 501.436 296.111 478C225.847 454.564 136.818 446.905 65.8437 473.698C-16.7151 504.872 -68.7876 578.367 -162.111 580.611C-207.808 581.702 -249.233 563.374 -275.598 539.541C-301.963 515.708 -315.835 486.756 -329.292 458.356C-355.455 403.201 -381.618 348.045 -407.756 292.871" stroke="#FF3FCB" stroke-miterlimit="10"/>
<path d="M1786.64 544.188C1701.45 455.816 1522.37 411.917 1364.79 440.593C1245.01 462.389 1147.99 518.909 1047.49 566.714C1044.09 568.333 1040.69 569.934 1037.23 571.538C938.859 617.302 822.393 656.5 705.92 642.852C628.471 633.761 562.201 602.6 502.564 569.663C442.979 536.741 386.208 500.673 316.126 477.893C290.779 469.659 263.065 463.426 234.692 460.042C184.56 454.058 132.229 456.928 87.0423 473.331C4.68689 503.185 -48.1104 573.758 -140.53 575.218C-185.801 575.928 -226.751 557.774 -253.208 534.261C-280.561 509.979 -295.19 480.476 -309.28 451.379C-315.938 437.616 -322.571 423.834 -329.255 410.072C-349.993 367.436 -371.804 324.766 -394.879 284.215" stroke="#FF3FCB" stroke-miterlimit="10"/>
<path d="M1787.19 555.596C1701.64 469.814 1525.56 426.467 1370.67 452.724C1252.92 472.702 1157.43 525.911 1058.93 570.596C1055.6 572.104 1052.25 573.612 1048.89 575.104C952.505 617.859 838.868 654.287 724.652 639.805C648.245 630.112 582.378 599.287 522.691 567.074C463.11 534.891 406.042 499.878 336.142 477.766C310.857 469.78 283.28 463.716 255.04 460.407C205.226 454.568 153.252 457.247 108.216 472.928C26.0655 501.491 -27.457 569.145 -118.946 569.842C-163.764 570.171 -204.291 552.174 -230.84 529.011C-259.18 504.282 -274.594 474.214 -289.264 444.438C-296.198 430.349 -303.081 416.257 -310.092 402.206C-331.788 358.621 -355.628 314.986 -382.023 275.612" stroke="#FF3FCB" stroke-miterlimit="10"/>
<path d="M1787.75 566.917C1701.83 483.707 1528.72 440.89 1376.54 464.759C1260.85 482.908 1166.89 532.862 1070.35 574.417C1067.09 575.813 1063.81 577.211 1060.5 578.61C966.1 618.376 855.267 652.051 743.336 636.755C667.997 626.461 602.507 595.97 542.771 564.493C483.192 533.042 425.854 499.076 356.111 477.628C330.887 469.87 303.422 463.993 275.367 460.757C225.871 455.045 174.279 457.548 129.37 472.532C47.4487 499.792 -6.85005 564.568 -97.4087 564.489C-141.801 564.441 -181.878 546.614 -208.52 523.765C-237.847 498.606 -254.045 467.958 -269.321 437.505C-276.531 423.109 -283.689 408.693 -290.975 394.352C-313.655 349.84 -339.472 305.24 -369.189 267.002" stroke="#FF3FCB" stroke-miterlimit="10"/>
<path d="M1788.3 578.135C1702.02 497.479 1531.9 455.201 1382.4 476.68C1268.75 493.014 1176.32 539.715 1081.78 578.188C1078.6 579.492 1075.37 580.782 1072.13 582.071C979.688 618.865 871.684 649.785 762.039 633.679C687.742 622.771 622.656 592.626 562.843 561.863C503.241 531.141 445.632 498.231 376.098 477.423C350.909 469.893 323.608 464.199 295.712 461.036C246.534 455.467 195.299 457.798 150.54 472.052C68.8243 498.037 13.8002 559.916 -75.8534 559.084C-119.819 558.66 -159.473 541.004 -186.181 518.463C-216.521 492.878 -233.478 461.65 -249.359 430.525C-256.845 415.822 -264.253 401.082 -271.84 386.453C-295.478 340.998 -323.323 295.458 -356.361 258.364" stroke="#FF3FCB" stroke-miterlimit="10"/>
<path d="M1788.84 589.285C1702.2 511.146 1535.07 469.403 1388.27 488.521C1276.67 503.048 1185.78 546.534 1093.22 581.929C1090.08 583.125 1086.95 584.321 1083.79 585.501C993.33 619.323 888.13 647.506 780.772 630.625C707.542 619.105 642.834 589.303 582.971 559.248C523.372 529.248 465.492 497.369 396.115 477.215C370.988 469.928 343.797 464.401 316.087 461.309C267.227 455.881 216.375 458.023 171.742 471.588C90.2304 496.288 34.483 555.325 -54.2654 553.743C-97.8042 552.946 -137.035 535.457 -163.809 513.24C-195.162 487.229 -212.877 455.424 -229.338 423.625C-237.099 408.618 -244.758 393.554 -252.671 378.639C-277.266 332.262 -307.141 285.766 -343.5 249.793" stroke="#FF3FCB" stroke-miterlimit="10"/>
<path d="M1789.32 599.145C1702.31 523.737 1538.18 482.651 1394.07 499.361C1284.5 512.071 1195.16 552.245 1104.55 584.522C1101.49 585.606 1098.4 586.692 1095.32 587.778C1006.84 618.591 904.439 643.978 799.393 626.367C727.204 614.262 662.902 584.902 602.99 555.634C543.395 526.436 485.219 495.672 416.025 476.227C390.959 469.186 363.906 463.84 336.329 460.849C287.786 455.566 237.29 457.537 192.782 470.388C111.472 493.76 54.9966 549.828 -32.8483 547.5C-75.9611 546.339 -114.768 529.067 -141.581 507.214C-173.945 480.853 -192.417 448.56 -209.482 416.18C-217.517 400.91 -225.424 385.566 -233.637 370.407C-259.187 323.222 -291.088 275.904 -330.74 241.175" stroke="#FF3FCB" stroke-miterlimit="10"/>
<path d="M1789.79 608.902C1702.42 536.185 1541.29 495.725 1399.85 510.086C1292.32 520.999 1204.5 557.902 1115.9 587.094C1112.92 588.086 1109.9 589.062 1106.89 590.038C1020.4 617.875 920.797 640.481 818.038 622.18C746.892 609.51 682.995 580.567 623.008 552.075C563.391 523.667 504.972 494.016 435.96 475.253C410.931 468.472 384.014 463.305 356.622 460.395C308.397 455.269 258.257 457.055 213.899 469.184C132.792 491.26 75.5886 544.383 -11.3516 541.333C-54.0388 539.794 -92.4198 522.769 -119.298 501.273C-152.674 474.563 -171.901 441.782 -189.543 408.823C-197.853 393.274 -206.034 377.685 -214.522 362.263C-241.025 314.289 -274.952 266.153 -317.924 232.619" stroke="#FF3FCB" stroke-miterlimit="10"/>
<path d="M1790.25 618.63C1702.51 548.535 1544.38 508.713 1405.63 520.733C1300.16 529.867 1213.87 563.559 1127.25 589.69C1124.34 590.573 1121.37 591.458 1118.43 592.325C1033.92 617.225 937.126 637.083 836.656 618.073C766.551 604.805 703.06 576.297 643.025 548.562C583.411 520.925 524.723 492.351 455.868 474.274C430.9 467.729 404.121 462.755 376.889 459.941C328.982 454.969 279.224 456.571 234.992 468.006C154.113 488.788 96.1578 539.03 10.1222 535.245C-32.1384 533.349 -70.1205 516.545 -97.0389 495.379C-131.451 468.315 -151.408 435.056 -169.654 401.495C-178.238 385.682 -186.668 369.811 -195.481 354.143C-222.964 305.357 -258.89 256.41 -305.183 224.065" stroke="#FF3FCB" stroke-miterlimit="10"/>
<path d="M1790.7 628.361C1702.61 560.86 1547.44 521.623 1411.41 531.34C1307.97 538.714 1223.21 569.216 1138.57 592.336C1135.71 593.112 1132.84 593.889 1129.95 594.667C1047.43 616.645 953.434 633.784 855.254 614.097C786.191 600.248 723.106 572.145 663.022 545.152C603.412 518.271 544.428 490.772 475.756 473.351C450.85 467.055 424.182 462.254 397.109 459.517C349.52 454.696 300.118 456.116 256.038 466.865C175.364 486.389 116.683 533.774 31.552 529.258C-10.2817 527.007 -47.8646 510.416 -74.8232 489.57C-110.273 462.147 -130.959 428.389 -149.782 394.238C-158.64 378.158 -167.319 362.003 -176.431 346.086C-204.868 296.495 -242.819 246.715 -292.407 215.523" stroke="#FF3FCB" stroke-miterlimit="10"/>
<path d="M1791.15 638.065C1702.69 573.116 1550.52 534.461 1417.18 541.881C1315.81 547.508 1232.58 574.871 1149.92 594.994C1147.13 595.681 1144.34 596.351 1141.52 597.023C1060.98 616.124 969.791 630.537 873.902 610.172C805.881 595.727 743.203 568.033 683.069 541.768C623.437 515.628 564.209 489.169 495.72 472.409C470.85 466.343 444.346 461.726 417.432 459.065C370.161 454.375 321.117 455.648 277.187 465.686C196.717 483.95 137.312 528.531 53.0881 523.306C11.7076 520.699 -25.5284 504.319 -52.5003 483.799C-88.986 456.03 -110.376 421.749 -129.828 387.006C-138.961 370.657 -147.888 354.215 -157.3 338.047C-186.69 287.63 -226.667 237.01 -279.575 206.987" stroke="#FF3FCB" stroke-miterlimit="10"/>
<path d="M1791.59 647.779C1702.77 585.328 1553.6 547.239 1422.95 552.379C1323.61 556.292 1241.92 580.513 1161.27 597.682C1158.55 598.264 1155.81 598.83 1153.06 599.412C1074.51 615.665 986.126 627.374 892.53 606.346C825.551 591.304 763.279 563.993 703.071 538.46C643.443 513.048 583.918 487.615 515.613 471.507C490.803 465.666 464.411 461.233 437.683 458.645C390.757 454.098 342.069 455.192 298.266 464.562C218.002 481.596 157.872 523.373 74.5548 517.442C33.6017 514.484 -3.23498 498.304 -30.2212 478.085C-67.7428 449.966 -89.8636 415.16 -109.918 379.82C-119.325 363.201 -128.501 346.47 -138.238 330.05C-168.581 278.816 -210.583 227.352 -266.814 198.449" stroke="#FF3FCB" stroke-miterlimit="10"/>
<path d="M1792.03 657.471C1702.87 597.517 1556.67 559.962 1428.71 562.855C1331.44 565.047 1251.28 586.188 1172.58 600.414C1169.91 600.892 1167.27 601.369 1164.58 601.849C1088.02 615.275 1002.43 624.287 911.13 602.594C845.194 586.938 783.329 560.033 723.072 535.202C663.447 510.507 603.653 486.102 535.504 470.62C510.757 465.017 484.501 460.73 457.906 458.233C411.299 453.829 362.968 454.745 319.292 463.452C239.233 479.253 178.382 518.291 95.9711 511.639C55.4456 508.33 18.9828 492.364 -8.01841 472.423C-46.6021 443.951 -69.4269 408.614 -90.0584 372.672C-99.7387 355.78 -109.19 338.761 -119.2 322.084C-150.523 270.013 -194.523 217.714 -254.049 189.932" stroke="#FF3FCB" stroke-miterlimit="10"/>
<path d="M1792.46 667.171C1702.93 609.651 1559.73 572.648 1434.47 573.276C1339.23 573.761 1260.61 591.829 1183.93 603.148C1181.33 603.539 1178.74 603.913 1176.14 604.288C1101.57 614.893 1018.79 621.226 929.785 598.901C864.916 582.63 803.434 556.122 743.127 531.984C683.48 507.996 623.415 484.589 555.475 469.74C530.763 464.357 504.645 460.248 478.236 457.821C431.947 453.54 383.974 454.295 340.45 462.329C260.624 476.923 199.026 513.232 117.523 505.881C77.425 502.222 41.3351 486.447 14.3204 466.811C-25.3251 437.983 -48.8539 402.111 -70.088 365.565C-80.0429 348.383 -89.741 331.106 -100.051 314.156C-132.327 261.257 -178.352 208.104 -241.201 181.415" stroke="#FF3FCB" stroke-miterlimit="10"/>
<path d="M1792.88 676.854C1702.99 621.757 1562.79 585.261 1440.22 583.67C1347.05 582.455 1269.96 597.474 1195.27 605.908C1192.75 606.196 1190.22 606.467 1187.68 606.739C1115.1 614.56 1035.15 618.213 948.412 595.239C884.586 578.339 823.512 552.235 763.13 528.781C703.486 505.488 643.15 483.069 575.367 468.847C550.718 463.697 524.737 459.747 498.487 457.39C452.517 453.247 404.927 453.824 361.531 461.208C281.912 474.589 219.593 508.211 138.998 500.144C99.3282 496.138 63.6124 480.566 36.5826 461.196C-4.12468 432.008 -28.3574 395.598 -50.1679 358.445C-60.4228 340.988 -70.3433 323.417 -80.979 306.209C-114.208 252.463 -162.258 198.451 -228.428 172.877" stroke="#FF3FCB" stroke-miterlimit="10"/>
<path d="M1793.3 686.55C1703.05 633.833 1565.84 597.865 1445.99 594.049C1354.86 591.145 1279.34 603.15 1206.61 608.702C1204.16 608.887 1201.69 609.073 1199.21 609.243C1128.63 614.296 1051.49 615.271 967.042 591.677C904.258 574.147 843.592 548.441 783.161 525.66C723.521 503.055 662.914 481.628 595.288 468.011C570.7 463.073 544.831 459.298 518.767 457.009C473.116 453.002 425.884 453.403 382.641 460.125C303.229 472.303 240.192 503.259 160.505 494.496C121.263 490.127 85.8954 474.771 58.8772 455.676C17.083 426.144 -7.82755 389.192 -30.2413 351.412C-40.77 333.679 -50.9389 315.813 -61.8738 298.346C-96.0548 243.763 -146.103 188.888 -215.596 164.384" stroke="#FF3FCB" stroke-miterlimit="10"/>
<path d="M1793.72 696.242C1703.1 645.9 1568.89 610.417 1451.74 604.404C1362.68 599.818 1288.67 608.814 1217.95 611.514C1215.55 611.598 1213.18 611.697 1210.78 611.766C1142.16 614.068 1067.88 612.36 985.703 588.146C923.986 569.97 863.704 544.671 803.223 522.556C743.56 500.63 682.683 480.171 615.239 467.15C590.687 462.425 564.982 458.82 539.051 456.601C493.718 452.711 446.845 452.97 403.756 459.033C324.553 470.034 260.797 498.328 182.044 488.854C143.23 484.138 108.237 468.976 81.2298 450.136C38.3741 420.24 12.7598 382.744 -10.2556 344.368C-21.0581 326.357 -31.5015 308.197 -42.7094 290.467C-77.8434 235.028 -129.915 179.303 -202.731 155.876" stroke="#FF3FCB" stroke-miterlimit="10"/>
<path d="M1794.13 705.918C1703.17 657.929 1571.91 622.939 1457.48 614.721C1370.46 608.461 1298.01 614.48 1229.28 614.327C1226.96 614.327 1224.63 614.31 1222.31 614.293C1155.68 613.842 1084.26 609.464 1004.33 584.663C943.684 565.839 883.784 540.941 823.254 519.485C763.594 498.231 702.446 478.746 635.186 466.316C610.695 461.817 585.101 458.35 559.357 456.213C514.343 452.455 467.854 452.539 424.893 457.966C345.899 467.779 281.425 493.447 203.581 483.264C165.222 478.201 130.551 463.233 103.554 444.643C59.6117 414.397 33.319 376.337 9.72752 337.345C-1.34874 319.055 -12.0406 300.598 -23.5737 282.608C-59.6859 226.326 -113.756 169.73 -189.894 147.355" stroke="#FF3FCB" stroke-miterlimit="10"/>
<path d="M1794.54 715.611C1703.22 669.955 1574.95 635.431 1463.22 625.019C1378.27 617.091 1307.33 620.133 1240.6 617.143C1238.34 617.041 1236.09 616.939 1233.82 616.823C1169.19 613.648 1100.6 606.597 1022.94 581.19C963.359 561.703 903.844 537.216 843.239 516.429C783.582 495.839 722.137 477.306 655.06 465.477C630.631 461.185 605.175 457.888 579.59 455.817C534.895 452.189 488.764 452.099 445.958 456.876C367.199 465.525 301.982 488.552 225.048 477.693C187.118 472.287 152.795 457.507 125.81 439.179C80.7814 408.597 53.8097 369.954 29.616 330.346C18.2653 311.759 7.3259 293.021 -4.5063 274.767C-41.5712 217.622 -97.6655 160.153 -177.099 138.853" stroke="#FF3FCB" stroke-miterlimit="10"/>
<path d="M1794.95 725.288C1703.25 681.932 1577.99 647.897 1468.96 635.298C1386.05 625.726 1316.68 625.787 1251.93 619.988C1249.75 619.786 1247.55 619.601 1245.37 619.383C1182.74 613.496 1117.04 603.765 1041.6 577.785C983.113 557.634 923.955 533.554 863.301 513.411C803.622 493.481 741.931 475.89 675.011 464.659C650.618 460.59 625.3 457.443 599.875 455.438C555.5 451.94 509.727 451.676 467.049 455.823C388.5 463.299 322.567 483.733 246.543 472.168C209.042 466.418 175.066 451.824 148.092 433.738C101.951 402.802 74.3537 363.589 49.5579 323.361C37.9336 304.493 26.7457 285.456 14.6145 266.937C-23.4023 208.942 -81.5203 150.598 -164.277 130.334" stroke="#FF3FCB" stroke-miterlimit="10"/>
<path d="M1795.35 734.981C1703.26 693.926 1581.02 660.339 1474.66 645.579C1393.82 634.35 1325.97 631.479 1263.24 622.864C1261.11 622.579 1259.01 622.277 1256.88 621.976C1196.24 613.389 1133.4 600.973 1060.21 574.417C1002.79 553.587 944.014 529.923 883.31 510.42C823.634 491.142 761.647 474.504 694.936 463.848C670.604 459.983 645.424 457.002 620.159 455.061C576.102 451.674 530.715 451.252 488.166 454.774C409.828 461.099 343.18 478.937 268.066 466.684C230.994 460.59 197.367 446.195 170.403 428.331C123.15 397.056 94.8998 357.255 69.502 316.406C57.604 297.255 46.1688 277.936 33.7117 259.136C-5.25681 200.288 -65.3985 141.065 -151.478 121.846" stroke="#FF3FCB" stroke-miterlimit="10"/>
<path d="M1795.74 744.657C1703.31 705.885 1584.05 672.758 1480.42 655.824C1401.62 642.945 1335.33 637.134 1274.57 625.734C1272.52 625.349 1270.46 624.965 1268.43 624.563C1209.79 613.269 1149.83 598.192 1078.87 571.077C1022.57 549.549 964.125 526.315 903.346 507.448C843.673 488.817 781.415 473.109 714.861 463.043C690.592 459.396 665.523 456.564 640.444 454.703C596.707 451.442 551.678 450.847 509.285 453.729C431.157 458.891 363.795 474.164 289.591 461.206C252.948 454.77 219.669 440.555 192.743 422.941C144.379 391.326 115.476 350.934 89.502 309.462C77.3304 290.028 65.6207 270.41 52.8901 251.326C12.9432 191.607 -49.1949 131.518 -138.571 113.321" stroke="#FF3FCB" stroke-miterlimit="10"/>
<path d="M1796.14 754.353C1703.34 717.835 1587.07 685.176 1486.14 666.075C1409.41 651.55 1344.64 642.829 1285.9 628.634C1283.92 628.15 1281.94 627.666 1279.96 627.183C1223.32 613.208 1166.27 595.445 1097.5 567.77C1042.29 545.562 984.211 522.736 923.382 504.498C863.687 486.51 801.183 471.725 734.787 462.244C710.553 458.8 685.648 456.13 660.704 454.333C617.286 451.198 572.617 450.447 530.378 452.691C452.463 456.712 384.387 469.415 311.093 455.754C274.88 448.976 241.949 434.954 215.033 417.557C165.557 385.599 136.002 344.632 109.426 302.519C96.9811 282.801 85.0232 262.881 71.9676 243.531C31.0692 182.954 -33.0928 121.965 -125.79 104.817" stroke="#FF3FCB" stroke-miterlimit="10"/>
<path d="M1796.53 764.034C1703.36 729.773 1590.1 697.543 1491.86 676.282C1417.18 660.116 1353.98 648.477 1297.23 631.514C1295.33 630.947 1293.39 630.365 1291.49 629.782C1236.84 613.135 1182.71 592.695 1116.13 564.475C1062.07 541.552 1004.3 519.165 943.42 501.551C883.729 484.201 820.927 470.352 754.741 461.434C730.568 458.189 705.775 455.667 681.017 453.948C637.945 450.919 593.635 450.012 551.526 451.622C473.821 454.491 405.033 464.652 332.651 450.305C296.866 443.169 264.285 429.354 237.379 412.171C186.792 379.868 156.585 338.308 129.407 295.569C116.687 275.55 104.482 255.345 91.1277 235.727C49.2772 174.272 -16.9069 112.414 -112.927 96.2783" stroke="#FF3FCB" stroke-miterlimit="10"/>
<path d="M1796.92 773.73C1703.38 741.715 1593.09 709.926 1497.58 686.508C1424.97 668.704 1363.32 654.173 1308.53 634.435C1306.68 633.771 1304.85 633.105 1303.01 632.423C1250.37 613.112 1199.17 589.984 1134.77 561.22C1081.85 537.582 1024.38 515.613 963.456 498.635C903.768 481.918 840.695 468.983 774.666 460.644C750.556 457.613 725.9 455.236 701.302 453.58C658.55 450.674 614.599 449.596 572.646 450.588C495.18 452.323 425.654 459.937 354.182 444.89C318.827 437.412 286.569 423.788 259.699 406.83C207.976 374.198 177.141 332.026 149.388 288.659C136.395 268.354 123.942 247.847 110.289 227.96C67.4869 165.642 -0.719747 102.896 -100.036 87.7656" stroke="#FF3FCB" stroke-miterlimit="10"/>
<path d="M1797.3 783.416C1703.4 753.635 1596.1 722.264 1503.3 696.712C1432.73 677.274 1372.62 659.843 1319.86 637.352C1318.08 636.589 1316.3 635.826 1314.54 635.062C1263.89 613.077 1215.66 587.268 1153.4 557.99C1101.63 533.638 1044.5 512.099 983.468 495.74C923.756 479.653 860.413 467.642 794.567 459.861C770.492 457.029 745.975 454.813 721.563 453.217C679.131 450.434 635.565 449.182 593.743 449.561C516.489 450.152 446.251 455.228 375.691 439.496C340.792 431.675 308.856 418.239 281.997 401.49C229.137 368.528 197.676 325.742 169.321 281.746C156.055 261.155 143.327 240.345 129.375 220.189C85.6216 156.989 15.3933 93.3697 -87.2447 79.2566" stroke="#FF3FCB" stroke-miterlimit="10"/>
<path d="M1797.69 793.118C1703.44 765.543 1599.12 734.618 1509.02 706.92C1440.52 685.851 1381.96 665.529 1331.19 640.293C1329.48 639.448 1327.77 638.586 1326.06 637.725C1277.41 613.09 1232.17 584.588 1172.03 554.782C1121.43 529.697 1064.58 508.603 1003.5 492.856C943.796 477.395 880.181 466.289 814.519 459.079C790.507 456.46 766.101 454.388 741.85 452.853C699.736 450.175 656.53 448.768 614.838 448.52C537.797 447.97 466.823 450.533 397.201 434.116C362.732 425.955 331.118 412.705 304.322 396.176C250.3 362.883 218.238 319.482 189.308 274.854C175.768 253.976 162.793 232.862 148.542 212.436C103.811 148.37 31.5865 83.8417 -74.3465 70.7407" stroke="#FF3FCB" stroke-miterlimit="10"/>
<path d="M1798.06 802.821C1703.45 777.46 1602.13 746.943 1514.73 717.119C1448.28 694.424 1391.26 671.234 1342.49 643.243C1340.85 642.3 1339.19 641.358 1337.58 640.397C1290.93 613.118 1248.68 581.929 1190.69 551.607C1141.31 525.789 1084.69 505.138 1023.57 490C963.861 475.161 899.949 464.957 834.471 458.316C810.494 455.893 786.253 453.978 762.161 452.505C720.368 449.947 677.521 448.369 635.986 447.51C559.159 445.838 487.475 445.88 418.764 428.764C384.725 420.262 353.46 407.195 326.673 390.871C271.517 357.261 238.854 313.226 209.296 267.968C195.483 246.803 182.26 225.4 167.71 204.687C122.028 139.736 47.8081 74.3285 -61.4717 62.238" stroke="#FF3FCB" stroke-miterlimit="10"/>
<path d="M1798.44 812.513C1703.46 789.357 1605.13 759.26 1520.44 727.298C1456.06 702.993 1400.59 676.91 1353.81 646.187C1352.23 645.147 1350.66 644.106 1349.1 643.065C1304.43 613.148 1265.22 579.26 1209.32 548.424C1161.14 521.857 1104.78 501.661 1043.6 487.13C983.875 472.91 919.718 463.618 854.397 457.528C830.482 455.299 806.352 453.528 782.448 452.129C740.975 449.692 698.514 447.957 657.11 446.474C580.496 443.667 508.103 441.212 440.305 423.413C406.695 414.571 375.753 401.687 349.003 385.564C292.685 351.62 259.421 306.967 229.288 261.075C215.201 239.622 201.731 217.915 186.856 196.931C140.223 131.109 63.982 64.806 -48.6189 53.7049" stroke="#FF3FCB" stroke-miterlimit="10"/>
<path d="M1798.82 822.222C1703.46 801.247 1608.14 771.566 1526.15 737.468C1463.81 711.542 1409.89 682.605 1365.13 649.137C1363.62 648.016 1362.14 646.877 1360.62 645.74C1317.95 613.174 1281.78 576.608 1227.95 545.274C1181.02 517.956 1124.86 498.215 1063.61 484.287C1003.89 470.684 939.432 462.286 874.322 456.758C850.469 454.739 826.477 453.109 802.707 451.771C761.554 449.453 719.453 447.547 678.205 445.44C601.832 441.517 528.704 436.557 461.818 418.059C428.638 408.878 398.019 396.174 371.305 380.267C313.827 346.02 279.962 300.732 249.227 254.19C234.867 232.432 221.149 210.436 205.976 189.18C158.392 122.469 80.1304 55.2849 -35.7644 45.1842" stroke="#FF3FCB" stroke-miterlimit="10"/>
<path d="M1799.19 831.917C1703.46 813.13 1611.14 783.86 1531.88 747.631C1471.59 720.085 1419.24 688.283 1376.45 652.095C1375.02 650.876 1373.58 649.657 1372.16 648.421C1331.49 613.228 1298.39 573.97 1246.61 542.124C1200.95 514.052 1144.97 494.765 1083.67 481.438C1023.95 468.447 959.224 460.955 894.27 455.973C870.453 454.148 846.6 452.675 823.016 451.396C782.183 449.18 740.442 447.119 699.352 444.406C623.193 439.353 549.357 431.91 483.409 412.714C450.66 403.192 420.339 390.702 393.686 374.959C334.919 340.462 300.581 294.468 269.245 247.291C254.612 225.244 240.62 202.943 225.174 181.413C176.614 113.829 96.3571 45.7294 -22.8572 36.627" stroke="#FF3FCB" stroke-miterlimit="10"/>
<path d="M-10.0252 28.1183C112.508 36.2257 194.785 105.209 244.295 173.686C293.806 242.162 328.182 318.519 415.989 369.696C525.184 433.337 690.353 443.121 843.272 451.042C996.19 458.962 1161.78 471.794 1265.21 538.993C1315 571.352 1345 613.281 1383.65 651.099C1477.81 743.187 1627.92 811.944 1799.53 841.618" stroke="#FF3FCB" stroke-miterlimit="10"/>
<path d="M1763.6 364.509C1655.13 274.977 1468.47 255.171 1325.7 318.075C1217.15 365.878 1141.83 451.08 1060.04 526.788C978.252 602.495 874.84 675.459 753.975 681.244C676.758 684.928 603.77 660.277 536.829 631.946C469.887 603.615 404.812 570.78 330.857 555.966C256.903 541.152 169.948 547.573 110.705 590.301C41.7937 640.012 14.8191 732.908 -73.1837 751.381C-116.277 760.419 -161.26 746.529 -193.616 723.778C-225.973 701.026 -248.025 670.294 -269.513 640.121C-311.271 581.528 -353.03 522.934 -394.771 464.316" stroke="#1549FE" stroke-miterlimit="10"/>
<path d="M1767.69 378.772C1659.6 292.246 1475.99 272.496 1335.11 332.037C1228.03 377.297 1153.24 458.372 1072.46 530.08C1069.73 532.507 1066.98 534.915 1064.2 537.335C984.814 606.349 886.225 670.933 771.386 675.121C695.018 677.887 622.487 653.532 555.71 626.02C488.988 598.516 423.972 566.939 350.395 552.81C323.785 547.706 295.542 545.289 267.549 546.242C218.086 547.919 169.257 560.089 131.374 586.511C62.3163 634.622 33.8537 724.246 -53.4919 741.615C-96.2787 750.117 -140.76 736.325 -173.12 713.947C-206.568 690.842 -229.534 659.61 -251.862 628.75C-262.417 614.151 -272.955 599.526 -283.534 584.934C-316.34 539.729 -350.174 494.668 -384.559 452.243" stroke="#1549FE" stroke-miterlimit="10"/>
<path d="M1771.78 392.907C1664.08 309.385 1483.51 289.669 1344.53 345.89C1238.89 388.647 1164.63 465.603 1084.88 533.331C1082.18 535.617 1079.46 537.908 1076.74 540.18C998.399 605.345 901.73 666.201 788.81 668.992C713.269 670.852 641.217 646.785 574.606 620.087C508.105 593.403 443.117 563.063 369.925 549.633C343.452 544.789 315.396 542.529 287.56 543.53C238.459 545.292 189.932 557.151 152.005 582.691C82.8078 629.23 52.8511 715.586 -33.8072 731.871C-76.263 739.834 -120.296 726.133 -152.649 704.164C-187.187 680.708 -211.096 648.965 -234.21 617.429C-245.139 602.506 -256.021 587.572 -267.012 572.706C-301.056 526.583 -337.151 480.765 -374.357 440.249" stroke="#1549FE" stroke-miterlimit="10"/>
<path d="M1775.86 406.909C1668.56 326.372 1491.01 306.677 1353.95 359.61C1249.76 399.856 1176.04 472.758 1097.26 536.503C1094.61 538.647 1091.93 540.798 1089.22 542.953C1011.92 604.294 917.146 661.452 806.175 662.866C731.483 663.82 659.888 640.045 593.45 614.174C527.169 588.306 462.236 559.188 389.404 546.458C363.063 541.854 335.176 539.775 307.546 540.812C258.8 542.639 210.607 554.202 172.618 578.89C103.299 623.844 71.8053 706.983 -14.1719 722.17C-56.321 729.604 -99.8768 716.006 -132.233 694.405C-167.854 670.619 -192.712 638.35 -216.634 606.148C-227.932 590.923 -239.187 575.667 -250.54 560.518C-285.84 513.507 -324.145 466.927 -364.183 428.269" stroke="#1549FE" stroke-miterlimit="10"/>
<path d="M1779.93 420.761C1673.03 343.191 1498.51 323.529 1363.35 373.181C1260.6 410.936 1187.41 479.789 1109.66 539.603C1107.05 541.626 1104.38 543.642 1101.71 545.658C1025.43 603.203 932.562 656.659 823.539 656.706C749.665 656.745 678.558 633.274 612.263 608.211C546.18 583.16 481.309 555.275 408.881 543.211C382.646 538.85 354.977 536.939 327.53 538.019C279.144 539.929 231.261 551.204 193.222 575.001C123.763 618.403 90.7706 698.295 5.45606 712.417C-36.3864 719.325 -79.4887 705.835 -111.824 684.594C-148.551 660.487 -174.333 627.688 -199.062 594.826C-210.728 579.3 -222.333 563.718 -234.072 548.294C-270.608 500.377 -311.164 453.07 -354.022 416.279" stroke="#1549FE" stroke-miterlimit="10"/>
<path d="M1784 434.485C1677.5 359.842 1506.01 340.212 1372.76 386.623C1271.45 421.896 1198.8 486.745 1122.05 542.641C1119.45 544.53 1116.85 546.42 1114.22 548.296C1038.97 602.045 947.987 651.828 840.923 650.554C767.893 649.678 697.249 626.514 631.122 602.249C565.262 578.003 500.447 551.325 428.381 539.952C402.284 535.847 374.777 534.095 347.537 535.21C299.513 537.203 251.957 548.166 213.857 571.123C144.252 612.965 109.772 689.669 25.1201 702.733C-16.4159 709.118 -59.0646 695.735 -91.3727 674.87C-129.205 650.443 -155.909 617.119 -181.422 583.594C-193.455 567.77 -205.409 551.864 -217.558 536.172C-255.324 487.373 -298.134 439.324 -343.816 404.369" stroke="#1549FE" stroke-miterlimit="10"/>
<path d="M1787.07 446.365C1681.01 374.89 1512.64 355.368 1381.33 398.392C1281.52 431.108 1209.46 491.764 1133.73 543.629C1131.17 545.374 1128.59 547.125 1126.01 548.876C1051.84 598.718 962.781 644.691 857.742 642.096C785.558 640.309 715.438 617.543 649.506 594.151C583.896 570.786 519.141 545.399 447.493 534.748C421.54 530.893 394.234 529.3 367.17 530.48C319.525 532.534 272.303 543.182 234.164 565.236C164.454 605.403 128.52 678.707 44.5661 690.668C3.35733 696.518 -38.8203 683.288 -71.0707 662.841C-109.993 638.179 -137.612 604.444 -163.926 570.377C-176.323 554.309 -188.623 538.135 -201.155 522.222C-240.146 472.691 -285.196 424.066 -333.645 391.078" stroke="#1549FE" stroke-miterlimit="10"/>
<path d="M1790.06 457.973C1684.44 389.629 1519.18 370.194 1389.85 409.908C1291.52 440.096 1220.04 496.614 1145.38 544.483C1142.87 546.105 1140.32 547.714 1137.78 549.323C1064.69 595.302 977.553 637.491 874.528 633.635C803.197 630.966 733.597 608.575 667.841 586.052C602.46 563.563 537.823 539.461 466.591 529.504C440.764 525.92 413.66 524.485 386.817 525.697C339.559 527.83 292.667 538.147 254.508 559.283C184.703 597.813 147.309 667.737 64.062 678.628C23.1756 683.929 -18.5174 670.889 -50.7325 650.861C-90.741 625.969 -119.272 591.829 -146.36 557.224C-159.127 540.897 -171.784 524.503 -184.678 508.35C-224.886 458.117 -272.17 408.926 -323.413 377.851" stroke="#1549FE" stroke-miterlimit="10"/>
<path d="M1793.05 469.434C1687.88 404.149 1525.73 384.831 1398.36 421.263C1301.53 448.954 1230.63 501.413 1157.01 545.333C1154.53 546.814 1152.01 548.307 1149.51 549.775C1077.49 591.948 992.267 630.406 891.246 625.283C820.756 621.705 751.689 599.716 686.134 578.041C621.009 556.406 556.461 533.555 485.628 524.304C459.947 520.962 433.05 519.701 406.41 520.971C359.538 523.181 312.999 533.167 274.802 553.424C204.919 590.321 166.048 656.945 83.5008 666.76C42.9423 671.54 1.70346 658.67 -30.4572 639.027C-71.5732 613.908 -100.984 579.376 -128.874 544.219C-142.003 527.652 -155.004 510.993 -168.303 494.629C-209.753 443.68 -259.236 393.934 -313.259 364.763" stroke="#1549FE" stroke-miterlimit="10"/>
<path d="M1796.04 480.785C1691.32 418.529 1532.26 399.289 1406.87 432.496C1311.52 457.728 1241.18 506.168 1168.59 546.209C1166.14 547.558 1163.68 548.906 1161.19 550.261C1090.25 588.66 1006.93 623.438 907.92 617.098C838.275 612.638 769.735 591.023 704.383 570.181C639.514 549.386 575.04 527.79 504.626 519.211C479.095 516.126 452.376 515.023 425.933 516.331C379.448 518.617 333.238 528.283 295.026 547.67C225.047 582.982 184.716 646.333 102.868 655.086C62.637 659.351 21.8527 646.647 -10.2526 627.38C-52.4731 602.033 -82.7674 567.088 -111.427 531.393C-124.917 514.585 -138.262 497.663 -151.94 481.082C-194.599 429.43 -246.306 379.113 -303.082 351.792" stroke="#1549FE" stroke-miterlimit="10"/>
<path d="M1799.02 491.999C1694.77 432.725 1538.81 413.57 1415.37 443.579C1321.51 466.379 1251.74 510.871 1180.19 547.067C1177.77 548.297 1175.35 549.509 1172.91 550.726C1103.03 585.421 1021.6 616.527 924.604 608.982C855.796 603.63 787.79 582.4 722.642 562.376C658.007 542.414 593.651 522.023 523.661 514.125C498.252 511.28 471.766 510.341 445.519 511.685C399.414 514.028 353.545 523.416 315.307 541.908C245.224 575.642 203.441 635.787 122.297 643.51C82.4169 647.26 42.0384 634.729 10.0196 615.843C-33.2964 590.285 -64.4535 554.9 -93.9294 518.679C-107.78 501.631 -121.467 484.444 -135.523 467.646C-179.394 415.271 -233.319 364.382 -292.852 338.929" stroke="#1549FE" stroke-miterlimit="10"/>
<path d="M1802.02 503.122C1698.21 446.767 1545.36 427.691 1423.86 454.543C1331.48 474.964 1262.27 515.521 1191.76 547.931C1189.39 549.027 1186.99 550.109 1184.59 551.21C1115.77 582.244 1036.22 609.724 941.24 601.003C873.27 594.769 805.792 573.896 740.83 554.702C676.455 535.553 612.17 516.362 542.606 509.135C517.343 506.521 491.04 505.755 465.014 507.131C419.32 509.543 373.778 518.619 335.502 536.272C265.322 568.468 222.075 625.416 141.633 632.12C102.08 635.367 62.1554 622.993 30.2178 604.463C-14.1906 578.69 -46.2322 542.872 -76.4978 506.118C-90.7074 488.83 -104.736 471.379 -119.193 454.369C-164.267 401.289 -220.404 349.827 -282.699 326.18" stroke="#1549FE" stroke-miterlimit="10"/>
<path d="M1805 514.121C1701.69 460.676 1551.9 441.661 1432.35 465.409C1341.47 483.455 1272.81 520.163 1203.3 548.826C1200.94 549.794 1198.61 550.755 1196.23 551.728C1128.47 579.147 1050.79 603.024 957.817 593.137C890.676 586.008 823.738 565.522 758.984 547.122C694.868 528.773 630.686 510.779 561.518 504.201C536.407 501.834 510.3 501.195 484.452 502.632C439.144 505.117 393.931 513.887 355.615 530.713C285.331 561.373 240.634 615.204 160.887 620.883C121.659 623.632 82.1711 611.435 50.3093 593.235C4.78732 567.253 -28.1122 530.994 -59.1413 493.701C-73.7092 476.172 -88.1021 458.463 -102.911 441.23C-149.214 387.431 -207.528 335.405 -272.547 313.554" stroke="#1549FE" stroke-miterlimit="10"/>
<path d="M1807.99 525.033C1705.15 474.428 1558.46 455.499 1440.83 476.142C1351.41 491.844 1283.3 524.729 1214.84 549.695C1212.53 550.548 1210.21 551.383 1207.89 552.218C1141.18 576.043 1065.37 596.357 974.416 585.351C908.127 577.33 841.705 557.228 777.158 539.611C713.28 522.057 649.196 505.226 580.479 499.296C555.49 497.16 529.592 496.684 503.964 498.151C459.036 500.691 414.156 509.177 375.819 525.162C305.461 554.319 259.284 605.06 180.238 609.742C141.336 611.999 102.277 599.957 70.5038 582.117C23.8714 555.924 -9.88341 519.223 -41.698 481.399C-56.6291 463.611 -71.3494 445.674 -86.5397 428.204C-134.039 373.699 -194.553 321.096 -262.318 301.007" stroke="#1549FE" stroke-miterlimit="10"/>
<path d="M1810.98 535.84C1708.6 488.057 1564.99 469.173 1449.31 486.781C1361.37 500.159 1293.81 529.263 1226.37 550.576C1224.1 551.298 1221.81 552.003 1219.51 552.712C1153.86 573 1079.92 589.765 990.949 577.636C925.481 568.718 859.607 549.006 795.244 532.166C731.628 515.391 667.644 499.708 599.33 494.43C574.493 492.534 548.797 492.201 523.365 493.703C478.823 496.315 434.294 504.497 395.918 519.675C325.456 547.336 277.83 595.038 199.478 598.715C160.9 600.485 122.277 588.612 90.5813 571.089C42.8417 544.683 8.23386 507.541 -24.3398 469.178C-39.6512 451.155 -54.6859 432.949 -70.2741 415.267C-118.972 360.036 -181.681 306.854 -252.172 288.543" stroke="#1549FE" stroke-miterlimit="10"/>
<path d="M1813.97 546.568C1712.06 501.555 1571.54 482.747 1457.8 497.326C1371.32 508.409 1304.34 533.785 1237.88 551.471C1235.65 552.064 1233.39 552.662 1231.12 553.243C1166.51 570.031 1094.43 583.269 1007.47 570.057C942.819 560.247 877.492 540.919 813.339 524.84C749.985 508.833 686.109 494.303 618.192 489.651C593.502 487.975 567.989 487.806 542.778 489.338C498.621 492.022 454.418 499.908 416.021 514.266C345.455 540.449 296.383 585.148 218.728 587.848C180.468 589.116 142.263 577.433 110.675 560.235C61.8131 533.638 26.3787 496.047 -6.98193 457.134C-22.6485 438.87 -38.0206 420.4 -53.9816 402.499C-103.868 346.561 -168.744 292.793 -241.964 276.204" stroke="#1549FE" stroke-miterlimit="10"/>
<path d="M1816.96 557.21C1715.52 514.952 1578.08 496.18 1466.27 507.784C1381.26 516.588 1314.81 538.267 1249.38 552.369C1247.16 552.839 1244.97 553.322 1242.74 553.774C1179.16 567.102 1108.95 576.819 1023.98 562.536C960.166 551.819 895.367 532.891 831.425 517.564C768.311 502.321 704.537 488.913 637.041 484.874C612.474 483.421 587.194 483.404 562.154 484.976C518.376 487.713 474.512 495.344 436.093 508.891C365.429 533.629 314.905 575.341 237.965 577.05C200.03 577.84 162.259 566.319 130.774 549.422C80.8109 522.609 44.5284 484.575 10.3951 445.148C-5.62554 426.643 -21.3581 407.915 -37.6668 389.789C-88.7448 333.125 -155.798 278.794 -231.735 263.927" stroke="#1549FE" stroke-miterlimit="10"/>
<path d="M1819.95 567.759C1719.01 528.219 1584.59 509.509 1474.72 518.141C1391.16 524.694 1325.28 542.718 1260.86 553.256C1258.68 553.618 1256.5 553.961 1254.31 554.304C1191.76 564.181 1123.43 570.409 1040.43 555.105C977.455 543.486 913.186 524.952 849.454 510.368C786.604 495.875 722.941 483.595 655.867 480.162C631.452 478.942 606.343 479.051 581.53 480.67C538.137 483.478 494.622 490.815 456.164 503.583C385.396 526.875 333.428 565.65 257.178 566.381C219.59 566.692 182.206 555.341 150.823 538.74C99.7448 511.734 62.6347 473.232 27.749 433.266C11.3753 414.52 -4.69269 395.529 -21.396 377.19C-73.68 319.823 -142.887 264.903 -221.539 251.723" stroke="#1549FE" stroke-miterlimit="10"/>
<path d="M1822.94 578.247C1722.48 541.403 1591.12 522.721 1483.17 528.413C1401.08 532.728 1335.71 547.126 1272.29 554.133C1270.15 554.368 1268.01 554.604 1265.84 554.827C1204.33 561.301 1137.84 564.059 1056.83 547.716C994.675 535.184 930.94 517.056 867.402 503.23C804.818 489.478 741.235 478.301 674.588 475.487C650.321 474.48 625.42 474.743 600.802 476.396C557.793 479.274 514.603 486.326 476.124 498.299C405.282 520.173 351.836 556.011 276.287 555.809C239.021 555.65 202.048 544.461 170.775 528.17C118.59 500.986 80.6485 461.998 44.9886 421.5C28.2569 402.495 11.8606 383.258 -5.21221 364.699C-58.6808 306.606 -130.06 251.102 -211.382 239.622" stroke="#1549FE" stroke-miterlimit="10"/>
<path d="M1825.93 588.646C1725.94 554.452 1597.65 535.831 1491.6 538.608C1410.96 540.729 1346.15 551.502 1283.73 555.027C1281.63 555.138 1279.51 555.271 1277.4 555.364C1216.92 558.466 1152.31 557.755 1073.25 540.426C1011.95 526.982 948.723 509.26 885.398 496.159C823.054 483.145 759.602 473.049 693.359 470.854C669.22 470.081 644.521 470.479 620.099 472.167C577.474 475.113 534.608 481.883 496.089 493.094C425.143 513.551 370.258 546.512 295.396 545.348C258.453 544.723 221.89 533.693 190.72 517.688C137.402 490.313 98.686 450.846 62.2543 409.815C45.1717 390.569 28.4418 371.069 11.0007 352.291C-43.643 293.489 -117.188 237.399 -201.209 227.574" stroke="#1549FE" stroke-miterlimit="10"/>
<path d="M1828.92 598.992C1729.39 567.443 1604.18 548.838 1500.01 548.748C1420.84 548.669 1356.54 555.896 1295.14 555.944C1293.05 555.954 1290.99 555.941 1288.9 555.933C1229.46 555.69 1166.69 551.525 1089.59 533.211C1029.11 518.848 966.426 501.538 903.314 489.156C841.237 476.866 777.873 467.871 712.076 466.259C688.084 465.694 663.592 466.244 639.365 467.966C597.117 470.964 554.606 477.466 516.048 487.922C445.004 506.994 388.676 537.087 314.506 534.987C277.884 533.899 241.737 523.043 210.665 507.303C156.223 479.753 116.704 439.794 79.5031 398.231C62.0706 378.744 45.0145 358.998 27.1762 339.987C-28.639 280.475 -104.344 223.799 -191.051 215.632" stroke="#1549FE" stroke-miterlimit="10"/>
<path d="M1831.9 609.251C1732.88 580.314 1610.7 561.751 1508.46 558.787C1430.71 556.531 1366.98 560.212 1306.54 556.839C1304.5 556.726 1302.46 556.613 1300.43 556.477C1242.01 552.899 1181.11 545.319 1105.96 526.049C1046.33 510.743 984.148 493.87 921.226 482.204C859.415 470.632 796.159 462.703 730.766 461.698C706.927 461.359 682.612 462.046 658.61 463.814C616.746 466.88 574.558 473.106 535.978 482.79C464.831 500.472 407.068 527.741 333.583 524.694C297.283 523.147 261.546 512.445 230.608 496.996C175.045 469.27 134.727 428.818 96.7823 386.718C79.001 366.99 61.5896 346.986 43.4031 327.733C-13.6098 267.499 -91.4389 210.248 -180.806 203.701" stroke="#1549FE" stroke-miterlimit="10"/>
<path d="M1834.9 619.469C1736.35 593.106 1617.22 574.595 1516.87 568.784C1440.59 564.362 1377.36 564.553 1317.94 557.758C1315.94 557.523 1313.93 557.288 1311.92 557.053C1254.53 550.182 1195.5 539.172 1122.27 518.956C1063.48 502.737 1001.81 486.271 939.106 475.309C877.538 464.453 814.415 457.576 749.425 457.173C725.71 457.043 701.626 457.875 677.795 459.681C636.313 462.816 594.454 468.785 555.853 477.704C484.608 494.027 425.407 518.479 352.606 514.492C316.627 512.489 281.304 501.955 250.465 486.763C193.785 458.86 152.675 417.934 113.959 375.284C95.8306 355.314 78.0888 335.047 59.5134 315.579C1.33614 254.635 -78.6471 196.778 -170.678 191.878" stroke="#1549FE" stroke-miterlimit="10"/>
<path d="M1837.89 629.608C1739.82 605.816 1623.73 587.318 1525.27 578.681C1450.42 572.113 1387.75 568.813 1329.31 558.643C1327.35 558.305 1325.36 557.954 1323.39 557.598C1267.02 547.458 1209.86 533.044 1138.55 511.905C1080.64 494.731 1019.45 478.713 956.956 468.449C895.655 458.297 832.623 452.491 768.079 452.657C744.51 452.731 720.604 453.699 696.997 455.55C655.915 458.729 614.385 464.444 575.739 472.61C504.391 487.567 443.76 509.243 371.648 504.34C335.983 501.867 301.081 491.518 270.341 476.579C212.547 448.497 170.642 407.079 131.164 363.897C112.683 343.668 94.6177 323.156 75.6785 303.468C16.3346 241.796 -65.7846 183.368 -160.484 180.068" stroke="#1549FE" stroke-miterlimit="10"/>
<path d="M1840.88 639.702C1743.3 618.458 1630.22 599.994 1533.67 588.546C1460.27 579.842 1398.13 573.098 1340.65 559.566C1338.71 559.112 1336.78 558.653 1334.85 558.177C1279.5 544.793 1224.23 526.974 1154.81 504.921C1097.77 486.799 1037.05 471.207 974.78 461.651C913.746 452.196 850.825 447.43 786.684 448.189C763.268 448.482 739.562 449.579 716.15 451.463C675.449 454.71 634.241 460.155 595.58 467.587C524.159 481.202 462.072 500.112 390.642 494.281C355.296 491.359 320.785 481.179 290.174 466.503C231.251 438.263 188.571 396.33 148.357 352.611C129.531 332.142 111.137 311.366 91.8356 291.458C31.3346 229.076 -52.9203 170.058 -150.257 168.339" stroke="#1549FE" stroke-miterlimit="10"/>
<path d="M1843.87 649.731C1746.77 631.015 1636.72 612.559 1542.06 598.341C1470.07 587.521 1408.47 577.34 1352 560.474C1350.09 559.901 1348.18 559.328 1346.29 558.75C1291.95 542.125 1238.58 520.919 1171.04 497.997C1114.86 478.931 1054.65 463.772 992.549 454.912C931.759 446.154 868.955 442.437 805.235 443.76C781.942 444.259 758.442 445.502 735.248 447.414C694.928 450.727 654.066 455.9 615.366 462.609C543.842 474.88 480.325 491.041 409.581 484.306C374.578 480.932 340.457 470.919 309.945 456.489C249.898 428.091 206.445 385.643 165.473 341.392C146.302 320.681 127.558 299.648 107.895 279.519C46.2341 216.408 -40.1448 156.816 -140.13 156.691" stroke="#1549FE" stroke-miterlimit="10"/>
<path d="M1846.86 659.718C1750.27 643.487 1643.23 625.077 1550.44 608.089C1479.9 595.161 1418.82 581.568 1363.33 561.396C1361.46 560.721 1359.59 560.029 1357.72 559.338C1304.39 539.51 1252.94 514.916 1187.24 491.118C1131.95 471.089 1072.2 456.388 1010.32 448.207C949.793 440.134 887.1 437.441 823.806 439.343C800.666 440.058 777.343 441.434 754.343 443.378C714.397 446.741 673.862 451.666 635.117 457.639C563.492 468.577 498.53 482.032 428.496 474.393C393.811 470.575 360.079 460.727 329.72 446.548C268.527 417.996 224.329 375.027 182.626 330.239C163.111 309.287 144.041 287.991 124.017 267.642C61.1833 203.826 -27.3015 143.62 -129.903 145.071" stroke="#1549FE" stroke-miterlimit="10"/>
<path d="M1849.85 669.653C1753.75 655.911 1649.72 637.506 1558.81 617.783C1489.69 602.766 1429.13 585.798 1374.62 562.323C1372.79 561.53 1370.94 560.743 1369.13 559.928C1316.81 536.919 1267.27 508.958 1203.44 484.298C1149.08 463.301 1089.75 449.063 1028.08 441.556C967.822 434.163 905.217 432.492 842.35 434.969C819.333 435.886 796.24 437.401 773.432 439.378C733.867 442.806 693.652 447.468 654.893 452.724C583.172 462.355 516.786 473.102 447.43 464.552C413.063 460.292 379.744 450.602 349.485 436.664C287.18 407.969 242.232 364.462 199.752 319.148C179.895 297.954 160.506 276.413 140.117 255.826C76.131 191.281 -14.4415 130.494 -119.699 133.522" stroke="#1549FE" stroke-miterlimit="10"/>
<path d="M1852.85 679.528C1757.23 668.258 1656.21 649.872 1567.17 627.413C1499.49 610.331 1439.45 589.975 1385.92 563.235C1384.1 562.33 1382.31 561.421 1380.52 560.511C1329.19 534.344 1281.59 503.008 1219.58 477.501C1166.13 455.529 1107.24 441.762 1045.78 434.923C985.77 428.21 923.306 427.561 860.836 430.596C837.965 431.709 815.048 433.355 792.464 435.376C753.278 438.871 713.413 443.284 674.609 447.815C602.787 456.131 534.987 464.206 466.313 454.768C432.264 450.069 399.333 440.54 369.198 426.835C305.754 397.982 260.065 353.956 216.858 308.104C196.66 286.67 176.947 264.865 156.176 244.063C91.0477 178.807 -1.63625 117.427 -109.525 121.999" stroke="#1549FE" stroke-miterlimit="10"/>
<path d="M1855.84 689.371C1760.71 680.538 1662.69 662.17 1575.52 636.99C1509.25 617.843 1449.74 594.154 1397.19 564.145C1395.42 563.142 1393.67 562.115 1391.89 561.094C1341.56 531.765 1295.91 497.091 1235.7 470.763C1183.19 447.81 1124.69 434.52 1063.43 428.349C1003.69 422.307 941.316 422.665 879.295 426.262C856.576 427.586 833.859 429.358 811.444 431.416C772.637 434.977 733.091 439.13 694.267 442.936C622.374 449.959 553.133 455.367 485.135 445.028C451.403 439.893 418.86 430.523 388.854 417.066C324.288 388.09 277.853 343.526 233.893 297.125C213.349 275.432 193.319 253.383 172.191 232.36C105.918 166.375 11.1346 104.418 -99.3483 110.536" stroke="#1549FE" stroke-miterlimit="10"/>
<path d="M1858.83 699.152C1764.18 692.758 1669.17 674.404 1583.88 646.515C1519.02 625.314 1460.05 598.29 1408.45 565.058C1406.72 563.938 1404.98 562.818 1403.27 561.676C1353.95 529.221 1310.26 491.204 1251.81 464.047C1200.27 440.111 1142.14 427.299 1081.1 421.787C1021.62 416.41 959.37 417.781 897.744 421.93C875.148 423.453 852.636 425.366 830.437 427.451C792.002 431.06 752.782 434.973 713.943 438.076C641.95 443.802 571.301 446.572 504.002 435.332C470.587 429.762 438.419 420.59 408.549 407.321C342.763 378.299 295.68 333.102 250.974 286.171C230.092 264.237 209.716 241.93 188.256 220.681C120.824 153.99 23.9602 91.4167 -89.1329 99.0756" stroke="#1549FE" stroke-miterlimit="10"/>
<path d="M-78.9808 87.7243C36.7155 78.5328 135.667 141.684 204.236 209.105C272.805 276.525 330.057 354.772 428.148 397.681C550.132 451.041 705.702 437.403 849.353 423.535C993.004 409.667 1149.98 399.292 1267.84 457.383C1324.58 485.357 1366.28 526.686 1414.57 562.257C1532.21 648.866 1693.63 701.786 1861.8 708.9" stroke="#1549FE" stroke-miterlimit="10"/>
<path d="M1786.46 554.937C1701.64 463.971 1519.57 419.495 1359.3 450.622C1237.46 474.269 1138.92 534.105 1036.44 585.048C933.956 635.991 810.503 681.407 687.601 668.141C609.084 659.655 542.437 628.153 482.85 594.485C423.262 560.818 366.761 523.67 296.497 500.234C226.232 476.798 137.204 469.139 66.2295 495.931C-16.3294 527.105 -68.4019 600.601 -161.725 602.844C-207.422 603.936 -248.847 585.608 -275.212 561.775C-301.577 537.942 -315.45 508.99 -328.906 480.59C-355.069 425.434 -381.232 370.279 -407.37 315.104" stroke="#1549FE" stroke-miterlimit="10"/>
<path d="M1787.02 566.421C1701.83 478.049 1522.76 434.15 1365.18 462.826C1245.39 484.623 1148.38 541.143 1047.88 588.948C1044.47 590.566 1041.07 592.167 1037.62 593.771C939.245 639.536 822.779 678.734 706.305 665.086C628.857 655.995 562.587 624.834 502.949 591.897C443.365 558.975 386.594 522.907 316.511 500.127C291.164 491.893 263.45 485.659 235.077 482.275C184.945 476.291 132.615 479.162 87.428 495.564C5.07264 525.419 -47.7246 595.992 -140.144 597.452C-185.415 598.162 -226.365 580.008 -252.822 556.494C-280.175 532.212 -294.805 502.71 -308.894 473.613C-315.553 459.85 -322.185 446.068 -328.87 432.305C-349.608 389.669 -371.418 346.999 -394.493 306.448" stroke="#1549FE" stroke-miterlimit="10"/>
<path d="M1787.58 577.829C1702.02 492.048 1525.94 448.7 1371.05 474.958C1253.3 494.935 1157.81 548.144 1059.32 592.83C1055.99 594.337 1052.63 595.846 1049.28 597.337C952.89 640.092 839.254 676.52 725.038 662.039C648.631 652.345 582.764 621.521 523.077 589.308C463.495 557.124 406.427 522.112 336.528 499.999C311.243 492.013 283.666 485.949 255.426 482.641C205.612 476.802 153.637 479.48 108.602 495.162C26.4512 523.724 -27.0712 591.378 -118.56 592.076C-163.378 592.405 -203.906 574.407 -230.454 551.245C-258.795 526.515 -274.208 496.447 -288.878 466.671C-295.812 452.582 -302.695 438.49 -309.706 424.44C-331.402 380.855 -355.242 337.219 -381.637 297.846" stroke="#1549FE" stroke-miterlimit="10"/>
<path d="M1788.14 589.15C1702.22 505.94 1529.1 463.123 1376.93 486.992C1261.24 505.142 1167.28 555.096 1070.73 596.65C1067.48 598.047 1064.2 599.445 1060.89 600.844C966.486 640.609 855.653 674.284 743.722 658.988C668.383 648.695 602.893 618.203 543.157 586.726C483.578 555.276 426.239 521.309 356.497 499.861C331.273 492.104 303.808 486.226 275.753 482.99C226.256 477.278 174.665 479.782 129.755 494.765C47.8344 522.025 -6.4643 586.801 -97.023 586.723C-141.415 586.674 -181.493 568.847 -208.134 545.998C-237.461 520.839 -253.659 490.191 -268.935 459.739C-276.145 445.343 -283.304 430.927 -290.589 416.586C-313.269 372.073 -339.086 327.473 -368.803 289.235" stroke="#1549FE" stroke-miterlimit="10"/>
<path d="M1788.68 600.368C1702.4 519.712 1532.28 477.435 1382.79 498.913C1269.13 515.247 1176.71 561.948 1082.17 600.422C1078.99 601.726 1075.75 603.015 1072.52 604.304C980.074 641.098 872.07 672.018 762.425 655.912C688.128 645.004 623.041 614.859 563.229 584.096C503.627 553.375 446.018 520.464 376.484 499.656C351.295 492.127 323.993 486.432 296.098 483.269C246.919 477.7 195.685 480.031 150.926 494.285C69.2101 520.27 14.186 582.149 -75.4676 581.317C-119.433 580.893 -159.088 563.237 -185.795 540.697C-216.135 515.111 -233.092 483.884 -248.974 452.758C-256.459 438.056 -263.868 423.315 -271.454 408.687C-295.092 363.232 -322.938 317.691 -355.975 280.598" stroke="#1549FE" stroke-miterlimit="10"/>
<path d="M1789.23 611.518C1702.58 533.38 1535.46 491.637 1388.66 510.755C1277.06 525.282 1186.16 568.768 1093.6 604.163C1090.47 605.359 1087.34 606.555 1084.18 607.735C993.716 641.557 888.516 669.739 781.157 652.859C707.928 641.339 643.22 611.537 583.357 581.482C523.758 551.482 465.878 519.603 396.501 499.449C371.374 492.162 344.183 486.634 316.473 483.542C267.613 478.115 216.76 480.256 172.128 493.821C90.6161 518.522 34.8687 577.559 -53.8796 575.977C-97.4185 575.179 -136.65 557.691 -163.423 535.474C-194.776 509.463 -212.491 477.657 -228.953 445.859C-236.713 430.851 -244.372 415.787 -252.285 400.873C-276.88 354.495 -306.755 307.999 -343.115 272.026" stroke="#1549FE" stroke-miterlimit="10"/>
<path d="M1789.71 621.378C1702.7 545.97 1538.57 504.885 1394.45 521.594C1284.89 534.304 1195.54 574.478 1104.93 606.755C1101.87 607.84 1098.79 608.925 1095.7 610.011C1007.22 640.824 904.825 666.211 799.778 648.601C727.59 636.495 663.287 607.136 603.376 577.868C543.78 548.669 485.605 517.905 416.411 498.461C391.345 491.419 364.291 486.073 336.714 483.082C288.171 477.799 237.676 479.77 193.168 492.621C111.858 515.993 55.3823 572.061 -32.4626 569.733C-75.5754 568.572 -114.382 551.301 -141.195 529.447C-173.56 503.086 -192.031 470.793 -209.096 438.414C-217.131 423.144 -225.039 407.799 -233.252 392.64C-258.801 345.455 -290.702 298.137 -330.355 263.408" stroke="#1549FE" stroke-miterlimit="10"/>
<path d="M1790.18 631.135C1702.81 558.418 1541.67 517.959 1400.24 532.319C1292.71 543.232 1204.89 580.135 1116.29 609.327C1113.3 610.319 1110.29 611.295 1107.28 612.271C1020.78 640.108 921.182 662.715 818.424 644.413C747.278 631.744 683.38 602.8 623.394 574.308C563.776 545.9 505.358 516.25 436.346 497.487C411.317 490.705 384.4 485.538 357.008 482.628C308.783 477.502 258.642 479.289 214.285 491.417C133.178 513.494 75.9743 566.617 -10.9659 563.566C-53.6531 562.028 -92.0341 545.002 -118.912 523.507C-152.288 496.796 -171.515 464.016 -189.157 431.056C-197.467 415.507 -205.649 399.918 -214.136 384.496C-240.639 336.522 -274.566 288.386 -317.539 254.852" stroke="#1549FE" stroke-miterlimit="10"/>
<path d="M1790.63 640.863C1702.9 570.768 1544.76 530.947 1406.02 542.967C1300.55 552.101 1214.26 585.792 1127.63 611.923C1124.72 612.806 1121.76 613.691 1118.82 614.559C1034.31 639.458 937.512 659.316 837.042 640.306C766.937 627.038 703.446 598.53 643.41 570.796C583.797 543.159 525.109 514.584 456.254 496.507C431.286 489.963 404.507 484.988 377.274 482.174C329.368 477.203 279.61 478.804 235.377 490.239C154.499 511.021 96.5436 561.264 10.5079 557.478C-31.7526 555.582 -69.7348 538.778 -96.6532 517.612C-131.066 490.548 -151.022 457.289 -169.268 423.729C-177.852 407.915 -186.282 392.044 -195.095 376.377C-222.578 327.59 -258.504 278.643 -304.797 246.298" stroke="#1549FE" stroke-miterlimit="10"/>
<path d="M1791.09 650.594C1702.99 583.093 1547.83 543.856 1411.8 553.574C1308.36 560.948 1223.6 591.449 1138.96 614.569C1136.09 615.346 1133.23 616.123 1130.34 616.901C1047.81 638.878 953.819 656.017 855.64 636.33C786.577 622.482 723.492 594.378 663.407 567.386C603.798 540.504 544.814 513.005 476.142 495.584C451.236 489.289 424.568 484.487 397.495 481.751C349.906 476.93 300.504 478.35 256.424 489.099C175.75 508.623 117.068 556.007 31.9378 551.492C-9.89594 549.24 -47.4789 532.65 -74.4375 511.803C-109.887 484.381 -130.573 450.622 -149.396 416.472C-158.254 400.392 -166.933 384.236 -176.045 368.319C-204.482 318.729 -242.433 268.949 -292.022 237.756" stroke="#1549FE" stroke-miterlimit="10"/>
<path d="M1791.53 660.298C1703.07 595.349 1550.9 556.694 1417.56 564.114C1316.19 569.741 1232.96 597.104 1150.3 617.227C1147.51 617.914 1144.72 618.585 1141.9 619.256C1061.37 638.358 970.176 652.77 874.288 632.405C806.267 617.96 743.589 590.266 683.455 564.001C623.823 537.862 564.595 511.402 496.106 494.642C471.235 488.576 444.731 483.959 417.817 481.298C370.547 476.609 321.502 477.882 277.573 487.92C197.103 506.183 137.698 550.764 53.4738 545.539C12.0933 542.933 -25.1426 526.552 -52.1146 506.032C-88.6002 478.263 -109.991 443.982 -129.443 409.239C-138.575 392.891 -147.503 376.449 -156.914 360.281C-186.304 309.863 -226.281 259.244 -279.19 229.221" stroke="#1549FE" stroke-miterlimit="10"/>
<path d="M1791.98 670.013C1703.16 607.562 1553.98 569.472 1423.33 574.612C1324 578.525 1242.3 602.746 1161.65 619.916C1158.93 620.497 1156.19 621.063 1153.45 621.646C1074.9 637.898 986.512 649.608 892.916 628.58C825.937 613.538 763.665 586.226 703.457 560.693C643.829 535.282 584.304 509.849 515.998 493.74C491.189 487.899 464.797 483.466 438.068 480.878C391.142 476.332 342.455 477.426 298.652 486.795C218.388 503.829 158.258 545.607 74.9405 539.676C33.9874 536.717 -2.84923 520.537 -29.8354 500.319C-67.3571 472.2 -89.4778 437.393 -109.533 402.053C-118.939 385.434 -128.115 368.704 -137.852 352.284C-168.195 301.05 -210.197 249.586 -266.428 220.683" stroke="#1549FE" stroke-miterlimit="10"/>
<path d="M1792.41 679.705C1703.25 619.75 1557.05 582.195 1429.09 585.089C1331.82 587.281 1251.66 608.422 1172.97 622.648C1170.3 623.126 1167.66 623.603 1164.96 624.082C1088.4 637.508 1002.82 646.52 911.516 624.828C845.579 609.172 783.715 582.266 723.458 557.436C663.833 532.741 604.039 508.335 535.889 492.853C511.142 487.251 484.886 482.964 458.292 480.467C411.685 476.063 363.354 476.978 319.677 485.686C239.619 501.487 178.768 540.524 96.3568 533.873C55.8313 530.564 19.3685 514.597 -7.63267 494.657C-46.2163 466.185 -69.0412 430.847 -89.6727 394.905C-99.353 378.014 -108.804 360.995 -118.814 344.318C-150.137 292.246 -194.137 239.948 -253.663 212.166" stroke="#1549FE" stroke-miterlimit="10"/>
<path d="M1792.84 689.404C1703.32 631.884 1560.12 594.882 1434.85 595.51C1339.62 595.994 1260.99 614.063 1184.31 625.382C1181.72 625.773 1179.12 626.147 1176.53 626.521C1101.96 637.127 1019.18 643.459 930.17 621.134C865.302 604.864 803.819 578.356 743.513 554.218C683.866 530.229 623.8 506.823 555.861 491.973C531.149 486.591 505.031 482.482 478.622 480.055C432.332 475.774 384.359 476.529 340.836 484.563C261.01 499.156 199.411 535.466 117.908 528.114C77.8107 524.456 41.7209 508.681 14.7061 489.045C-24.9394 460.217 -48.4682 424.344 -69.7022 387.799C-79.6572 370.617 -89.3552 353.339 -99.6656 336.389C-131.941 283.49 -177.966 230.338 -240.815 203.649" stroke="#1549FE" stroke-miterlimit="10"/>
<path d="M1793.27 699.088C1703.38 643.991 1563.17 607.495 1440.6 605.904C1347.44 604.689 1270.35 619.708 1195.65 628.142C1193.13 628.429 1190.61 628.7 1188.06 628.973C1115.48 636.793 1035.54 640.447 948.798 617.472C884.971 600.572 823.897 574.469 763.515 551.015C703.872 527.722 643.535 505.302 575.753 491.081C551.103 485.93 525.123 481.98 498.873 479.624C452.902 475.48 405.313 476.058 361.917 483.442C282.298 496.823 219.979 530.444 139.384 522.378C99.714 518.372 63.9981 502.799 36.9683 483.429C-3.73894 454.242 -27.9717 417.832 -49.7822 380.678C-60.0371 363.222 -69.9576 345.65 -80.5932 328.443C-113.822 274.696 -161.872 220.685 -228.042 195.11" stroke="#1549FE" stroke-miterlimit="10"/>
<path d="M1793.69 708.783C1703.43 656.067 1566.23 620.099 1446.38 616.283C1355.25 613.379 1279.72 625.384 1206.99 630.935C1204.55 631.12 1202.07 631.307 1199.6 631.477C1129.01 636.53 1051.87 637.505 967.428 613.91C904.644 596.381 843.978 570.675 783.547 547.894C723.907 525.288 663.3 503.862 595.674 490.244C571.086 485.307 545.217 481.532 519.153 479.243C473.502 475.235 426.269 475.637 383.027 482.358C303.615 494.537 240.577 525.493 160.891 516.73C121.648 512.36 86.2811 497.004 59.263 477.91C17.4687 448.378 -7.44181 411.426 -29.8555 373.646C-40.3842 355.913 -50.5532 338.047 -61.488 320.579C-95.6691 265.997 -145.718 211.121 -215.21 186.617" stroke="#1549FE" stroke-miterlimit="10"/>
<path d="M1794.11 718.475C1703.49 668.134 1569.28 632.65 1452.13 626.637C1363.07 622.051 1289.05 631.048 1218.33 633.747C1215.94 633.832 1213.56 633.931 1211.16 633.999C1142.54 636.302 1068.26 634.594 986.089 610.38C924.372 592.203 864.09 566.904 803.609 544.789C743.946 522.864 683.068 502.405 615.625 489.383C591.072 484.659 565.368 481.054 539.437 478.835C494.104 474.944 447.231 475.204 404.142 481.267C324.939 492.267 261.182 520.562 182.43 511.087C143.616 506.371 108.623 491.21 81.6156 472.37C38.7598 442.473 13.1455 404.977 -9.86982 366.602C-20.6723 348.59 -31.1158 330.43 -42.3237 312.701C-77.4577 257.262 -129.53 201.537 -202.345 178.11" stroke="#1549FE" stroke-miterlimit="10"/>
<path d="M1794.52 728.152C1703.56 680.162 1572.29 645.172 1457.87 636.955C1370.85 630.695 1298.4 636.713 1229.67 636.561C1227.34 636.56 1225.02 636.543 1222.69 636.526C1156.07 636.075 1084.65 631.698 1004.72 606.897C944.069 588.073 884.17 563.175 823.64 541.718C763.98 520.464 702.832 500.98 635.572 488.549C611.081 484.05 585.487 480.584 559.742 478.447C514.729 474.689 468.239 474.772 425.279 480.199C346.284 490.013 281.811 515.681 203.967 505.497C165.608 500.435 130.936 485.467 103.94 466.877C59.9975 436.63 33.7048 398.57 10.1133 359.579C-0.962994 341.288 -11.6548 322.832 -23.1879 304.841C-59.3001 248.56 -113.37 191.964 -189.509 169.589" stroke="#1549FE" stroke-miterlimit="10"/>
<path d="M1794.93 737.845C1703.6 692.189 1575.34 657.664 1463.61 647.252C1378.65 639.324 1307.72 642.366 1240.98 639.376C1238.73 639.274 1236.48 639.173 1234.2 639.056C1169.57 635.881 1100.98 628.831 1023.33 603.423C963.745 583.937 904.229 559.45 843.624 538.662C783.968 518.072 722.523 499.539 655.446 487.711C631.016 483.419 605.56 480.121 579.976 478.05C535.281 474.423 489.15 474.332 446.343 479.109C367.585 487.758 302.368 510.786 225.434 499.927C187.504 494.52 153.18 479.741 126.196 461.413C81.1671 430.83 54.1954 392.188 30.0018 352.58C18.6511 333.992 7.71164 315.255 -4.12056 297C-41.1855 239.855 -97.2798 182.387 -176.714 161.087" stroke="#1549FE" stroke-miterlimit="10"/>
<path d="M1795.33 747.522C1703.64 704.166 1578.37 670.13 1469.34 657.532C1386.43 647.96 1317.06 648.021 1252.32 642.221C1250.14 642.019 1247.94 641.835 1245.76 641.616C1183.13 635.73 1117.42 625.999 1041.99 600.019C983.499 579.868 924.341 555.787 863.686 535.645C804.008 515.714 742.317 498.123 675.397 486.893C651.004 482.824 625.685 479.677 600.261 477.672C555.885 474.173 510.113 473.909 467.435 478.057C388.886 485.532 322.953 505.966 246.929 494.402C209.428 488.651 175.452 474.057 148.478 455.971C102.337 425.036 74.7394 385.822 49.9437 345.595C38.3193 326.726 27.1314 307.69 15.0002 289.171C-23.0166 231.176 -81.1346 172.831 -163.892 152.567" stroke="#1549FE" stroke-miterlimit="10"/>
<path d="M1795.73 757.215C1703.65 716.16 1581.41 682.572 1475.05 667.812C1394.21 656.584 1326.35 653.712 1263.62 645.097C1261.5 644.813 1259.39 644.51 1257.26 644.209C1196.63 635.622 1133.78 623.206 1060.59 596.65C1003.17 575.82 944.4 552.156 883.696 532.653C824.02 513.375 762.033 496.737 695.322 486.082C670.99 482.216 645.81 479.235 620.545 477.295C576.488 473.908 531.1 473.486 488.552 477.007C410.214 483.332 343.566 501.171 268.452 488.917C231.38 482.823 197.753 468.428 170.789 450.564C123.536 419.29 95.2855 379.488 69.8878 338.64C57.9898 319.489 46.5545 300.169 34.0975 281.369C-4.87107 222.521 -65.0127 163.298 -151.092 144.08" stroke="#1549FE" stroke-miterlimit="10"/>
<path d="M1796.13 766.891C1703.7 728.119 1584.43 694.991 1480.8 678.057C1402 665.179 1335.72 659.367 1274.96 647.967C1272.9 647.583 1270.85 647.198 1268.82 646.796C1210.18 635.503 1150.22 620.426 1079.25 593.311C1022.95 571.783 964.511 548.549 903.731 529.681C844.059 511.05 781.8 495.342 715.247 485.276C690.977 481.629 665.908 478.798 640.83 476.936C597.093 473.676 552.064 473.081 509.67 475.962C431.543 481.125 364.181 496.398 289.977 483.44C253.334 477.003 220.055 462.788 193.129 445.175C144.764 413.559 115.861 373.168 89.8878 331.696C77.7162 312.262 66.0065 292.643 53.2758 273.56C13.3289 213.841 -48.8092 153.752 -138.185 135.555" stroke="#1549FE" stroke-miterlimit="10"/>
<path d="M1796.52 776.587C1703.73 740.069 1587.46 707.409 1486.53 688.309C1409.8 673.784 1345.03 665.062 1286.29 650.868C1284.31 650.384 1282.33 649.9 1280.35 649.416C1223.7 635.441 1166.66 617.679 1097.89 590.004C1042.68 567.796 984.597 544.97 923.768 526.731C864.073 508.743 801.569 493.958 735.173 484.478C710.939 481.033 686.034 478.363 661.09 476.567C617.672 473.431 573.002 472.68 530.764 474.924C452.848 478.945 384.772 491.648 311.479 477.988C275.265 471.209 242.335 457.187 215.419 439.79C165.943 407.832 136.388 366.865 109.812 324.752C97.3669 305.034 85.409 285.114 72.3533 265.765C31.455 205.187 -32.707 144.198 -125.405 127.051" stroke="#1549FE" stroke-miterlimit="10"/>
<path d="M1796.92 786.267C1703.75 752.007 1590.48 719.776 1492.25 698.516C1417.57 682.35 1354.37 670.71 1297.62 653.747C1295.71 653.18 1293.78 652.599 1291.87 652.016C1237.23 635.368 1183.09 614.929 1116.52 586.709C1062.46 563.786 1004.68 541.399 943.806 523.784C884.114 506.434 821.313 492.585 755.127 483.668C730.954 480.423 706.161 477.9 681.403 476.182C638.331 473.153 594.02 472.246 551.911 473.856C474.207 476.724 405.419 486.885 333.037 472.539C297.252 465.402 264.671 451.588 237.765 434.404C187.178 402.101 156.97 360.541 129.793 317.803C117.073 297.784 104.868 277.578 91.5134 257.961C49.663 196.506 -16.5212 134.648 -112.541 118.512" stroke="#1549FE" stroke-miterlimit="10"/>
<path d="M1797.3 795.964C1703.77 763.949 1593.47 732.159 1497.97 708.742C1425.36 690.938 1363.7 676.406 1308.92 656.669C1307.06 656.004 1305.23 655.338 1303.4 654.657C1250.75 635.345 1199.55 612.218 1135.15 583.453C1082.24 559.815 1024.77 537.847 963.842 520.869C904.153 504.152 841.081 491.216 775.052 482.877C750.942 479.847 726.286 477.47 701.688 475.813C658.936 472.908 614.984 471.829 573.032 472.822C495.566 474.557 426.039 482.171 354.568 467.123C319.213 459.645 286.954 446.021 260.085 429.064C208.362 396.432 177.527 354.26 149.774 310.893C136.781 290.588 124.328 270.08 110.674 250.193C67.8726 187.876 -0.334004 125.13 -99.6505 109.999" stroke="#1549FE" stroke-miterlimit="10"/>
<path d="M1797.69 805.65C1703.78 775.869 1596.49 744.497 1503.69 718.945C1433.12 699.508 1373.01 682.077 1320.25 659.586C1318.47 658.823 1316.68 658.06 1314.92 657.296C1264.27 635.311 1216.04 609.501 1153.79 580.224C1102.01 555.871 1044.88 534.332 983.853 517.973C924.142 501.886 860.799 489.876 794.953 482.095C770.878 479.263 746.361 477.046 721.949 475.45C679.517 472.667 635.951 471.416 594.128 471.795C516.875 472.385 446.637 477.461 376.077 461.729C341.178 453.909 309.242 440.472 282.382 423.724C229.523 390.761 198.062 347.976 169.707 303.979C156.44 283.389 143.713 262.579 129.761 242.422C86.0073 179.223 15.779 115.603 -86.8589 101.49" stroke="#1549FE" stroke-miterlimit="10"/>
<path d="M1798.07 815.351C1703.82 787.777 1599.5 756.851 1509.4 729.153C1440.91 708.085 1382.34 687.763 1331.58 662.526C1329.87 661.681 1328.16 660.82 1326.45 659.959C1277.8 635.323 1232.55 606.821 1172.42 577.015C1121.82 551.931 1064.97 530.836 1003.89 515.09C944.182 499.628 880.567 488.522 814.905 481.313C790.893 478.693 766.487 476.621 742.235 475.087C700.122 472.409 656.916 471.002 615.224 470.754C538.183 470.203 467.209 472.767 397.587 456.35C363.117 448.188 331.504 434.938 304.707 418.41C250.686 385.117 218.624 341.715 189.694 297.087C176.154 276.21 163.179 255.096 148.928 234.669C104.197 170.604 31.9722 106.075 -73.9608 92.9743" stroke="#1549FE" stroke-miterlimit="10"/>
<path d="M1798.45 825.055C1703.83 799.694 1602.51 769.177 1515.11 739.353C1448.66 716.657 1391.64 693.467 1342.87 665.476C1341.24 664.533 1339.58 663.591 1337.97 662.631C1291.32 635.351 1249.07 604.163 1191.08 573.841C1141.7 548.022 1085.08 527.371 1023.95 512.234C964.247 497.395 900.335 487.191 834.857 480.549C810.88 478.126 786.638 476.212 762.547 474.738C720.754 472.181 677.907 470.602 636.372 469.743C559.545 468.071 487.86 468.114 419.15 450.997C385.11 442.495 353.846 429.429 327.059 413.104C271.903 379.494 239.239 335.459 209.682 290.201C195.869 269.036 182.646 247.634 168.096 226.92C122.414 161.969 48.1938 96.5619 -61.086 84.4714" stroke="#1549FE" stroke-miterlimit="10"/>
<path d="M1798.83 834.747C1703.84 811.591 1605.52 781.494 1520.82 749.531C1456.45 725.226 1400.97 699.144 1354.2 668.42C1352.61 667.38 1351.05 666.339 1349.49 665.298C1304.81 635.382 1265.6 601.493 1209.71 570.658C1161.53 544.09 1105.16 523.895 1043.99 509.363C984.261 495.144 920.104 485.851 854.783 479.761C830.868 477.533 806.738 475.762 782.834 474.363C741.361 471.925 698.9 470.191 657.495 468.707C580.882 465.901 508.489 463.446 440.69 445.647C407.081 436.805 376.139 423.921 349.389 407.798C293.07 373.854 259.806 329.201 229.673 283.309C215.587 261.855 202.117 240.148 187.242 219.165C140.609 153.342 64.3678 87.0396 -48.2332 75.9384" stroke="#1549FE" stroke-miterlimit="10"/>
<path d="M1799.2 844.456C1703.85 823.48 1608.52 793.799 1526.53 759.702C1464.2 733.776 1410.27 704.839 1365.52 671.371C1364.01 670.249 1362.52 669.111 1361.01 667.973C1318.33 635.408 1282.16 598.841 1228.34 567.508C1181.41 540.189 1125.25 520.448 1064 506.521C1004.27 492.917 939.818 484.519 874.708 478.991C850.855 476.972 826.863 475.343 803.093 474.005C761.94 471.686 719.839 469.781 678.591 467.674C602.218 463.75 529.09 458.79 462.203 440.293C429.024 431.111 398.405 418.408 371.691 402.501C314.213 368.254 280.348 322.965 249.613 276.424C235.253 254.666 221.535 232.669 206.361 211.413C158.778 144.702 80.5162 77.5184 -35.3787 67.4177" stroke="#1549FE" stroke-miterlimit="10"/>
<path d="M1799.57 854.15C1703.85 835.363 1611.52 806.094 1532.26 769.864C1471.97 742.319 1419.62 710.516 1376.84 674.328C1375.4 673.109 1373.96 671.89 1372.55 670.654C1331.88 635.461 1298.78 596.204 1246.99 564.357C1201.33 536.286 1145.36 516.998 1084.05 503.671C1024.33 490.68 959.609 483.188 894.656 478.207C870.839 476.382 846.986 474.909 823.402 473.63C782.568 471.413 740.828 469.353 699.737 466.64C623.579 461.587 549.743 454.144 483.795 434.947C451.046 425.425 420.724 412.935 394.071 397.192C335.305 362.696 300.967 316.701 269.631 269.525C254.998 247.477 241.006 225.176 225.56 203.646C177 136.062 96.7429 67.9629 -22.4714 58.8605" stroke="#1549FE" stroke-miterlimit="10"/>
<path d="M-9.63942 50.3518C112.894 58.4592 195.17 127.443 244.681 195.919C294.192 264.396 328.568 340.752 416.374 391.929C525.57 455.571 690.739 465.355 843.657 473.275C996.576 481.196 1162.17 494.028 1265.59 561.227C1315.38 593.585 1345.39 635.515 1384.04 673.332C1478.2 765.421 1628.3 834.178 1799.91 863.852" stroke="#1549FE" stroke-miterlimit="10"/>
</g>
<defs>
<clipPath id="clip0_253_110">
<rect width="1705" height="874" fill="white"/>
</clipPath>
</defs>
</svg>
