<svg width="1920" height="1159" viewBox="0 0 1920 1159" fill="none" xmlns="http://www.w3.org/2000/svg">
<path d="M1509.69 147.6L1441.72 147.542L1441.34 593.346L1393.36 593.305L1393.32 639.951L1361.34 639.924L1361.3 681.905L1270.01 681.827L1270.04 639.846L1246.72 639.826L1246.76 593.18L1200.11 593.14L1200.49 147.336L1145.19 147.289L1144.89 495.802L976.295 495.658L976.593 147.145L877.303 147.06L877.158 317.652L585.952 317.403L586.098 146.811L512.797 146.749L512.569 413.298L437.189 507.193L361.969 413.17L362.051 317.212L276.089 317.138L276.007 413.096L122.741 412.965L122.999 110.432" stroke="#249F31" stroke-width="2"/>
<path d="M1940.92 915.383L1584.8 915.079L1558.12 941.711L1545.47 929.039L1519.46 955.006L1500.82 936.331L1488.15 948.982L1454.19 914.968L1336.91 914.868" stroke="#249F31" stroke-width="2"/>
<path d="M1201.14 914.746L1045.2 914.613L1023.2 936.585L1013.87 927.247L983.862 957.209L953.901 927.196L940.562 940.512L914.596 914.501L637.5 914.501" stroke="#249F31" stroke-width="2"/>
<path d="M683.24 320.818L682.78 858.581L636.801 858.542L636.752 915.183L610.648 1050.44L582.776 915.137L582.824 858.496L531.514 858.452L531.973 320.688L512.648 320.672" stroke="#249F31" stroke-width="2"/>
<path d="M582.5 914.276L346.797 914.276L314.765 968.892L292.132 940.218L250.757 1010.15L212.168 940.15L183.489 968.78L138.889 914.099L-5.91791 913.975" stroke="#249F31" stroke-width="2"/>
<path fill-rule="evenodd" clip-rule="evenodd" d="M794.107 642.771L795.523 641.358L807.106 629.795L808.521 628.382L807.108 626.967L796.13 615.97L869.569 616.033C872.883 616.035 875.571 613.351 875.574 610.038L875.61 567.865C875.613 564.552 872.929 561.863 869.615 561.86L718.737 561.732C715.423 561.729 712.734 564.413 712.732 567.726L712.696 609.899C712.693 613.212 715.377 615.901 718.69 615.904L792.131 615.966L781.134 626.945L779.718 628.358L781.131 629.773L792.694 641.356L794.107 642.771ZM794.13 616.797L805.693 628.38L794.11 639.943L782.547 628.36L794.13 616.797ZM873.574 610.036C873.572 612.245 871.78 614.034 869.571 614.033L718.692 613.904C716.483 613.902 714.694 612.109 714.696 609.9L714.732 567.728C714.733 565.519 716.526 563.73 718.735 563.732L869.614 563.86C871.823 563.862 873.612 565.655 873.61 567.864L873.574 610.036ZM840.199 605.504L840.207 596.496L854.86 596.509L854.853 605.516L840.199 605.504ZM839.209 594.495L838.209 594.494L823.485 594.482L822.485 594.481L821.485 594.48L809.619 594.47L808.549 594.469L808.558 583.462L808.56 581.462L806.56 581.46L791.048 581.447L789.048 581.445L789.047 583.445L789.037 594.452L788.895 594.452L777.958 594.443L776.958 594.442L775.958 594.441L764.021 594.431L763.021 594.43L762.021 594.429L748.226 594.417L747.226 594.417L746.226 594.416L733.432 594.405L731.432 594.403L731.43 596.403L731.422 605.411L731.42 607.411L733.42 607.412L746.215 607.423L747.215 607.424L748.215 607.425L762.01 607.437L763.01 607.438L764.01 607.439L767.191 607.441L775.947 607.449L776.947 607.45L777.947 607.45L788.884 607.46L789.026 607.46L789.026 607.46L791.026 607.462L806.538 607.475L808.538 607.477L808.538 607.477L809.608 607.478L821.474 607.488L822.474 607.489L823.474 607.489L838.198 607.502L839.198 607.503L840.198 607.504L854.851 607.516L856.851 607.518L856.853 605.518L856.86 596.51L856.862 594.51L854.862 594.509L840.209 594.496L839.209 594.495ZM838.207 596.494L823.483 596.482L823.475 605.489L838.199 605.502L838.207 596.494ZM809.617 596.47L821.483 596.48L821.475 605.488L809.61 605.478L809.617 596.47ZM777.949 605.45L777.956 596.443L788.893 596.452L788.885 605.46L777.949 605.45ZM775.956 596.441L764.02 596.431L764.012 605.439L767.193 605.441L775.949 605.449L775.956 596.441ZM748.225 596.417L762.02 596.429L762.012 605.437L748.217 605.425L748.225 596.417ZM746.225 596.416L746.217 605.423L733.422 605.412L733.43 596.405L746.225 596.416ZM791.028 605.462L806.539 605.475L806.558 583.46L791.047 583.447L791.028 605.462Z" fill="#249F31"/>
<path fill-rule="evenodd" clip-rule="evenodd" d="M994.022 642.942L995.438 641.529L1007.02 629.966L1008.44 628.553L1007.02 627.138L996.045 616.141L1069.48 616.203C1072.8 616.206 1075.49 613.522 1075.49 610.209L1075.52 568.036C1075.53 564.723 1072.84 562.034 1069.53 562.031L918.651 561.902C915.337 561.9 912.649 564.584 912.646 567.897L912.61 610.069C912.607 613.383 915.291 616.072 918.605 616.075L992.046 616.137L981.049 627.116L979.633 628.529L981.047 629.944L992.609 641.527L994.022 642.942ZM994.045 616.968L1005.61 628.551L994.025 640.114L982.462 628.531L994.045 616.968ZM1073.49 610.207C1073.49 612.416 1071.69 614.205 1069.49 614.203L918.606 614.075C916.397 614.073 914.608 612.28 914.61 610.071L914.646 567.899C914.648 565.69 916.44 563.901 918.649 563.902L1069.53 564.031C1071.74 564.033 1073.53 565.826 1073.52 568.035L1073.49 610.207ZM1040.11 605.674L1040.12 596.667L1054.78 596.679L1054.77 605.687L1040.11 605.674ZM1039.12 594.666L1038.12 594.665L1023.4 594.652L1022.4 594.651L1021.4 594.651L1009.53 594.64L1008.46 594.64L1008.47 583.632L1008.47 581.632L1006.47 581.63L990.963 581.617L988.963 581.615L988.962 583.615L988.952 594.623L988.81 594.623L977.873 594.613L976.873 594.613L975.873 594.612L963.936 594.602L962.936 594.601L961.936 594.6L948.141 594.588L947.141 594.587L946.141 594.586L933.346 594.575L931.346 594.574L931.345 596.574L931.337 605.581L931.335 607.581L933.335 607.583L946.13 607.594L947.13 607.595L948.13 607.596L961.925 607.607L962.925 607.608L963.925 607.609L967.106 607.612L975.862 607.619L976.862 607.62L977.862 607.621L988.799 607.63L988.941 607.63L988.941 607.631L990.941 607.632L1006.45 607.646L1008.45 607.647L1008.45 607.647L1009.52 607.648L1021.39 607.658L1022.39 607.659L1023.39 607.66L1038.11 607.672L1039.11 607.673L1040.11 607.674L1054.77 607.687L1056.77 607.688L1056.77 605.688L1056.78 596.681L1056.78 594.681L1054.78 594.679L1040.12 594.667L1039.12 594.666ZM1038.12 596.665L1023.4 596.652L1023.39 605.66L1038.11 605.672L1038.12 596.665ZM1009.53 596.64L1021.4 596.651L1021.39 605.658L1009.52 605.648L1009.53 596.64ZM977.864 605.621L977.871 596.613L988.808 596.623L988.8 605.63L977.864 605.621ZM975.871 596.612L963.935 596.602L963.927 605.609L967.108 605.612L975.864 605.619L975.871 596.612ZM948.14 596.588L961.935 596.6L961.927 605.607L948.132 605.596L948.14 596.588ZM946.14 596.586L946.132 605.594L933.337 605.583L933.345 596.575L946.14 596.586ZM990.943 605.632L1006.45 605.646L1006.47 583.63L990.962 583.617L990.943 605.632Z" fill="#249F31"/>
<path d="M1200.15 552.492L684.375 552.051" stroke="#249F31" stroke-width="2"/>
<path d="M-43.526 611.403L76.591 611.505L76.6587 532.207L123.305 532.247L123.143 722.163L237.093 722.26M237.093 722.26L237.357 413.063M237.093 722.26L266.413 722.285L266.378 763.601L379.661 763.697L379.697 722.382L461.66 722.452L461.846 505.214L532.482 505.275" stroke="#249F31" stroke-width="2"/>
<path d="M1920 110H-39" stroke="#249F31" stroke-width="2"/>
<path d="M1920.5 55.9753L-19.9798 54.3185" stroke="#249F31" stroke-width="2"/>
<path d="M1920 2.66479L-20.4798 1.00759" stroke="#249F31" stroke-width="2"/>
<path d="M1441.42 503.385L1595.35 503.517M1595.35 503.517L1595.62 190.987M1595.35 503.517L1647.99 503.561L1647.95 548.209L1732.51 632.91L1817.21 548.353L1817.25 503.706L1901.21 503.778" stroke="#249F31" stroke-width="2"/>
<g clip-path="url(#clip0_265_42)">
<path d="M1511.01 163.594L1535 164.947L1535.03 134.294L1511.04 134.274L1511.01 163.594Z" stroke="#249F31" stroke-width="2"/>
<path d="M1702.9 190.413L1702.96 122.776L1687.63 122.763C1687.63 122.581 1687.63 122.409 1687.63 122.226C1687.63 119.806 1686.49 117.484 1684.46 115.771C1682.42 114.058 1679.66 113.094 1676.78 113.091C1673.9 113.089 1671.14 114.048 1669.1 115.758C1667.06 117.467 1665.92 119.787 1665.91 122.208C1665.91 122.39 1665.91 122.562 1665.91 122.745L1656.97 122.737C1656.97 122.554 1656.97 122.383 1656.97 122.2C1656.97 119.78 1655.83 117.458 1653.8 115.745C1651.76 114.031 1649 113.068 1646.12 113.065C1643.24 113.063 1640.48 114.022 1638.44 115.731C1636.4 117.441 1635.26 119.761 1635.25 122.182C1635.25 122.364 1635.25 122.536 1635.25 122.718L1598.21 122.687C1598.21 122.504 1598.21 122.332 1598.21 122.15C1598.21 119.73 1597.07 117.408 1595.03 115.694C1593 113.981 1590.24 113.017 1587.36 113.015C1584.48 113.013 1581.71 113.972 1579.68 115.681C1577.64 117.391 1576.49 119.711 1576.49 122.131C1576.49 122.314 1576.49 122.486 1576.49 122.668L1572.66 122.665C1572.66 122.482 1572.66 122.311 1572.66 122.128C1572.66 119.708 1571.52 117.386 1569.48 115.673C1567.45 113.959 1564.69 112.996 1561.81 112.993C1558.93 112.991 1556.16 113.95 1554.13 115.659C1552.09 117.369 1550.94 119.689 1550.94 122.11C1550.94 122.292 1550.94 122.464 1550.94 122.646L1535.04 122.633L1534.98 190.27L1702.9 190.413Z" stroke="#249F31" stroke-width="2"/>
<rect x="1521.18" y="157.772" width="6.99649" height="5.66374" transform="rotate(-179.951 1521.18 157.772)" stroke="#249F31"/>
</g>
<path d="M1919.23 791.056L1343.84 790.564L1321.16 813.202L1307.18 799.196L1287.17 819.17L1267.2 799.162L1237.85 828.457L1199.9 790.442L859.383 790.151L683.461 790.001" stroke="#249F31" stroke-width="2"/>
<path d="M530.947 741.17L379.68 741.041" stroke="#249F31" stroke-width="2"/>
<path d="M534.963 790.056L79.7703 789.667L55.7604 813.636L41.7784 799.631L19.1024 822.268L-13.522 789.588L-46.3887 789.56" stroke="#249F31" stroke-width="2"/>
<path d="M1100.54 1027.2C1100.62 932.04 1177.83 854.965 1272.99 855.046C1368.15 855.127 1445.22 932.334 1445.14 1027.49C1445.06 1122.65 1367.85 1199.73 1272.69 1199.65C1177.54 1199.56 1100.46 1122.36 1100.54 1027.2Z" fill="#9B9F1B"/>
<path d="M136.733 412.978L136.67 486.279L97.3544 486.245L97.3401 502.905L-4.61504 502.818L-4.68844 588.78L-44.862 588.745" stroke="#249F31" stroke-width="2"/>
<rect x="3" y="1.00024" width="1919" height="1158" fill="url(#paint0_radial_265_42)" fill-opacity="0.56"/>
<defs>
<radialGradient id="paint0_radial_265_42" cx="0" cy="0" r="1" gradientUnits="userSpaceOnUse" gradientTransform="translate(1009.2 -83.1793) rotate(90) scale(1568.29 4823.39)">
<stop offset="0.0251341" stop-color="#21DACF" stop-opacity="0"/>
<stop offset="0.359384" stop-color="#21DACF" stop-opacity="0"/>
<stop offset="0.755221" stop-color="#E19234" stop-opacity="0.67"/>
<stop offset="1" stop-color="#DFE30E"/>
</radialGradient>
<clipPath id="clip0_265_42">
<rect width="218.571" height="98.6233" fill="white" transform="translate(1710.88 210.411) rotate(-179.951)"/>
</clipPath>
</defs>
</svg>
