<svg width="1987" height="1061" viewBox="0 0 1987 1061" fill="none" xmlns="http://www.w3.org/2000/svg">
<path d="M413.783 912.745H482.366V462.924H530.777V415.857H563.051V373.498H655.167V415.857H678.7V462.924H725.767V912.745H781.574V561.091H951.686V912.745H1051.87V740.616H1345.7V912.745H1419.66V643.794L1495.64 548.988L1571.62 643.794V740.616H1658.36V643.794H1813V949.053" stroke="#FF3FCB" stroke-width="2"/>
<path d="M4.10205 145.287H363.428L390.323 118.392L403.098 131.167L429.321 104.945L448.147 123.771L460.923 110.996L495.214 145.287H613.553" stroke="#FF3FCB" stroke-width="2"/>
<path d="M752.607 145.732H911.738L934.18 123.087L943.701 132.694L974.303 101.814L1004.9 132.694L1018.51 118.969L1045.03 145.732H1294.6" stroke="#FF3FCB" stroke-width="2"/>
<path d="M1247.53 737.254V194.645H1293.93V137.493L1320.15 1L1348.39 137.493V194.645H1400.16V737.254H1419.66" stroke="#FF3FCB" stroke-width="2"/>
<path d="M1400.83 214.047H1626.75L1659.03 158.912L1681.89 187.824L1723.58 117.224L1762.57 187.824L1791.49 158.912L1836.54 214.047H1982.65" stroke="#FF3FCB" stroke-width="2"/>
<path fill-rule="evenodd" clip-rule="evenodd" d="M1135.39 412.495L1133.97 413.909L1122.27 425.612L1120.86 427.026L1122.27 428.44L1133.39 439.557H1059.23C1055.92 439.557 1053.23 442.244 1053.23 445.557V488.182C1053.23 491.495 1055.92 494.182 1059.23 494.182H1211.54C1214.86 494.182 1217.54 491.495 1217.54 488.182V445.557C1217.54 442.244 1214.86 439.557 1211.54 439.557H1137.39L1148.51 428.44L1149.92 427.026L1148.51 425.612L1136.8 413.909L1135.39 412.495ZM1135.39 438.729L1123.69 427.026L1135.39 415.324L1147.09 427.026L1135.39 438.729ZM1055.23 445.557C1055.23 443.348 1057.02 441.557 1059.23 441.557H1211.54C1213.75 441.557 1215.54 443.348 1215.54 445.557V488.182C1215.54 490.391 1213.75 492.182 1211.54 492.182H1059.23C1057.02 492.182 1055.23 490.391 1055.23 488.182V445.557ZM1088.92 450.12V459.245H1074.11V450.12H1088.92ZM1089.92 461.245H1090.92H1105.8H1106.8H1107.8H1119.8H1120.86V472.37V474.37H1122.86H1138.54H1140.54V472.37V461.245H1140.67H1151.73H1152.73H1153.73H1165.8H1166.8H1167.8H1181.73H1182.73H1183.73H1196.67H1198.67V459.245V450.12V448.12H1196.67H1183.73H1182.73H1181.73H1167.8H1166.8H1165.8H1162.58H1153.73H1152.73H1151.73H1140.67H1138.67V448.12H1138.54H1122.86H1121.8V448.12H1119.8H1107.8H1106.8H1105.8H1090.92H1089.92H1088.92H1074.11H1072.11V450.12V459.245V461.245H1074.11H1088.92H1089.92ZM1090.92 459.245H1105.8V450.12H1090.92V459.245ZM1119.8 459.245H1107.8V450.12H1119.8V459.245ZM1151.73 450.12V459.245H1140.67V450.12H1151.73ZM1153.73 459.245H1165.8V450.12H1162.58H1153.73V459.245ZM1181.73 459.245H1167.8V450.12H1181.73V459.245ZM1183.73 459.245V450.12H1196.67V459.245H1183.73ZM1138.54 450.12H1122.86V472.37H1138.54V450.12Z" fill="#FF3FCB"/>
<path fill-rule="evenodd" clip-rule="evenodd" d="M933.672 412.495L932.257 413.909L920.555 425.612L919.14 427.026L920.555 428.44L931.672 439.557H857.518C854.204 439.557 851.518 442.244 851.518 445.557V488.182C851.518 491.495 854.204 494.182 857.518 494.182H1009.83C1013.14 494.182 1015.83 491.495 1015.83 488.182V445.557C1015.83 442.244 1013.14 439.557 1009.83 439.557H935.671L946.788 428.44L948.203 427.026L946.788 425.612L935.086 413.909L933.672 412.495ZM933.672 438.729L921.969 427.026L933.672 415.324L945.374 427.026L933.672 438.729ZM853.518 445.557C853.518 443.348 855.309 441.557 857.518 441.557H1009.83C1012.04 441.557 1013.83 443.348 1013.83 445.557V488.182C1013.83 490.391 1012.04 492.182 1009.83 492.182H857.518C855.309 492.182 853.518 490.391 853.518 488.182V445.557ZM887.207 450.12V459.245H872.394V450.12H887.207ZM888.207 461.245H889.207H904.081H905.081H906.081H918.081H919.142V472.37V474.37H921.142H936.83H938.83V472.37V461.245H938.956H950.018H951.018H952.018H964.081H965.081H966.081H980.018H981.018H982.018H994.955H996.955V459.245V450.12V448.12H994.955H982.018H981.018H980.018H966.081H965.081H964.081H960.862H952.018H951.018H950.018H938.956H936.956V448.12H936.83H921.142H920.081V448.12H918.081H906.081H905.081H904.081H889.207H888.207H887.207H872.394H870.394V450.12V459.245V461.245H872.394H887.207H888.207ZM889.207 459.245H904.081V450.12H889.207V459.245ZM918.081 459.245H906.081V450.12H918.081V459.245ZM950.018 450.12V459.245H938.956V450.12H950.018ZM952.018 459.245H964.081V450.12H960.862H952.018V459.245ZM980.018 459.245H966.081V450.12H980.018V459.245ZM982.018 459.245V450.12H994.955V459.245H982.018ZM936.83 450.12H921.142V472.37H936.83V450.12Z" fill="#FF3FCB"/>
<path d="M725.767 503.939L1246.19 503.939" stroke="#FF3FCB" stroke-width="2"/>
<path d="M1980.6 443.425H1859.4V523.438H1812.33V331.81H1697.35M1697.35 331.81V643.793M1697.35 331.81H1667.77V290.122H1553.46V331.81H1470.76V551.005H1399.49" stroke="#FF3FCB" stroke-width="2"/>
<path d="M18.4258 949.054L1976.39 949.054" stroke="#FF3FCB" stroke-width="2"/>
<path d="M18.4258 1005.53L1976.39 1005.53" stroke="#FF3FCB" stroke-width="2"/>
<path d="M18.4258 1059.32L1976.39 1059.32" stroke="#FF3FCB" stroke-width="2"/>
<path d="M482.367 553.695H327.047M327.047 553.695V869.041M327.047 553.695H273.93V508.646L188.537 423.254L103.145 508.646V553.695H18.4258" stroke="#FF3FCB" stroke-width="2"/>
<path d="M412.439 896.607L388.233 895.263V926.192H412.439V896.607Z" stroke="#FF3FCB" stroke-width="2"/>
<path d="M218.794 869.712V937.959H234.262C234.262 938.143 234.262 938.316 234.262 938.5C234.262 940.943 235.416 943.285 237.471 945.011C239.526 946.738 242.313 947.708 245.218 947.708C248.124 947.708 250.911 946.738 252.966 945.011C255.021 943.285 256.175 940.943 256.175 938.5C256.175 938.316 256.175 938.143 256.175 937.959H265.198C265.198 938.143 265.198 938.316 265.198 938.5C265.198 940.943 266.352 943.285 268.407 945.011C270.462 946.738 273.249 947.708 276.155 947.708C279.06 947.708 281.847 946.738 283.902 945.011C285.957 943.285 287.111 940.943 287.111 938.5C287.111 938.316 287.111 938.143 287.111 937.959H324.492C324.492 938.143 324.492 938.316 324.492 938.5C324.492 940.943 325.646 943.285 327.701 945.011C329.756 946.738 332.543 947.708 335.449 947.708C338.354 947.708 341.141 946.738 343.196 945.011C345.251 943.285 346.405 940.943 346.405 938.5C346.405 938.316 346.405 938.143 346.405 937.959H350.272C350.272 938.143 350.272 938.316 350.272 938.5C350.272 940.943 351.427 943.285 353.481 945.011C355.536 946.738 358.323 947.708 361.229 947.708C364.135 947.708 366.921 946.738 368.976 945.011C371.031 943.285 372.185 940.943 372.185 938.5C372.185 938.316 372.185 938.143 372.185 937.959H388.233V869.712H218.794Z" stroke="#FF3FCB" stroke-width="2"/>
<rect x="402.181" y="902.487" width="7.06854" height="5.72378" stroke="#FF3FCB"/>
<path d="M0 263.845H580.579L603.44 240.984L617.56 255.104L637.731 234.932L657.902 255.104L687.487 225.519L725.812 263.845H1069.4H1246.91" stroke="#FF3FCB" stroke-width="2"/>
<path d="M1400.83 312.984L1553.46 312.984" stroke="#FF3FCB" stroke-width="2"/>
<path d="M1400.41 263.522H1859.7L1883.91 239.316L1898.03 253.436L1920.89 230.575L1953.84 263.522H1987" stroke="#FF3FCB" stroke-width="2"/>
<path d="M757.442 126.256C757.442 170.075 721.92 205.597 678.101 205.597C634.282 205.597 598.76 170.075 598.76 126.256C598.76 82.4373 634.282 46.9153 678.101 46.9153C721.92 46.9153 757.442 82.4373 757.442 126.256Z" fill="#FFE13F"/>
<path d="M1798.88 643.794V569.832H1838.55V553.023H1941.43V466.286H1981.96" stroke="#FF3FCB" stroke-width="2"/>
</svg>
