<svg width="148" height="148" viewBox="0 0 148 148" fill="none" xmlns="http://www.w3.org/2000/svg">
<path d="M55.242 66.03L59.29 64.6H61.93V80H58.894V67.812L55.99 68.626L55.242 66.03ZM68.0838 70.21H69.6678C71.1638 70.21 72.4105 70.6573 73.4078 71.552C74.4198 72.432 74.9258 73.664 74.9258 75.248C74.9258 76.832 74.3905 78.0713 73.3198 78.966C72.2785 79.8607 70.9805 80.308 69.4258 80.308C68.1645 80.308 67.0571 80.0293 66.1038 79.472C65.1651 78.9 64.4831 78.0787 64.0578 77.008L66.6538 75.49C67.0205 76.722 67.9445 77.338 69.4258 77.338C70.2031 77.338 70.8045 77.1547 71.2298 76.788C71.6698 76.4067 71.8898 75.8933 71.8898 75.248C71.8898 74.6173 71.6771 74.1113 71.2518 73.73C70.8265 73.3487 70.2471 73.158 69.5138 73.158H64.8498L65.4658 64.6H74.1998V67.438H68.2818L68.0838 70.21ZM82.4789 70.518C81.7602 71.2073 80.8802 71.552 79.8389 71.552C78.7829 71.552 77.8955 71.2 77.1769 70.496C76.4729 69.792 76.1209 68.934 76.1209 67.922C76.1209 66.91 76.4729 66.052 77.1769 65.348C77.9102 64.644 78.7975 64.292 79.8389 64.292C80.8949 64.292 81.7749 64.644 82.4789 65.348C83.1829 66.0227 83.5349 66.8807 83.5349 67.922C83.5349 68.9487 83.1829 69.814 82.4789 70.518ZM79.0029 78.438L77.6829 77.668L87.7149 66.514L89.0569 67.262L79.0029 78.438ZM78.8269 68.934C79.0909 69.198 79.4209 69.33 79.8169 69.33C80.2129 69.33 80.5429 69.198 80.8069 68.934C81.0709 68.6553 81.2029 68.318 81.2029 67.922C81.2029 67.526 81.0709 67.196 80.8069 66.932C80.5429 66.668 80.2129 66.536 79.8169 66.536C79.4209 66.536 79.0909 66.668 78.8269 66.932C78.5775 67.196 78.4529 67.526 78.4529 67.922C78.4529 68.318 78.5775 68.6553 78.8269 68.934ZM90.9709 76.634C90.9709 77.646 90.6189 78.504 89.9149 79.208C89.2109 79.912 88.3309 80.264 87.2749 80.264C86.2189 80.264 85.3389 79.912 84.6349 79.208C83.9309 78.504 83.5789 77.646 83.5789 76.634C83.5789 75.622 83.9309 74.764 84.6349 74.06C85.3389 73.356 86.2189 73.004 87.2749 73.004C88.3309 73.004 89.2109 73.356 89.9149 74.06C90.6189 74.764 90.9709 75.622 90.9709 76.634ZM88.2429 77.646C88.5069 77.3673 88.6389 77.03 88.6389 76.634C88.6389 76.238 88.5069 75.908 88.2429 75.644C87.9935 75.3653 87.6709 75.226 87.2749 75.226C86.8789 75.226 86.5489 75.3653 86.2849 75.644C86.0355 75.908 85.9109 76.238 85.9109 76.634C85.9109 77.03 86.0355 77.3673 86.2849 77.646C86.5489 77.91 86.8789 78.042 87.2749 78.042C87.6709 78.042 87.9935 77.91 88.2429 77.646Z" fill="white"/>
<path d="M147.906 73.953C147.906 114.796 114.796 147.906 73.953 147.906C33.1099 147.906 0 114.796 0 73.953C0 33.1099 33.1099 0 73.953 0C114.796 0 147.906 33.1099 147.906 73.953ZM23.9526 73.953C23.9526 101.567 46.3385 123.953 73.953 123.953C101.567 123.953 123.953 101.567 123.953 73.953C123.953 46.3385 101.567 23.9526 73.953 23.9526C46.3385 23.9526 23.9526 46.3385 23.9526 73.953Z" fill="#1549FE"/>
<path d="M134.832 85.563C141.33 86.8021 145.683 93.126 143.413 99.3385C139.8 109.222 134.104 118.266 126.657 125.831C116.397 136.254 103.276 143.402 88.9535 146.369C74.6311 149.335 59.7505 147.989 46.1935 142.498C32.6365 137.008 21.0121 127.621 12.7901 115.524C4.56814 103.427 0.117959 89.1638 0.00231165 74.5377C-0.113336 59.9116 4.11074 45.5797 12.1404 33.3544C20.17 21.129 31.6446 11.5592 45.1131 5.85524C54.8873 1.71579 65.393 -0.252808 75.9121 0.0259059C82.5241 0.201097 86.8021 6.57623 85.563 13.0735C84.324 19.5707 78.0055 23.6801 71.3998 24.0178C65.5974 24.3145 59.8602 25.6218 54.454 27.9114C45.3479 31.7679 37.5898 38.2381 32.1609 46.5038C26.7319 54.7695 23.876 64.4595 23.9542 74.3483C24.0324 84.2371 27.0412 93.8807 32.6001 102.06C38.1591 110.238 46.0185 116.585 55.1845 120.297C64.3505 124.009 74.4114 124.92 84.095 122.914C93.7786 120.908 102.65 116.076 109.587 109.028C113.706 104.844 117.032 99.9903 119.444 94.7044C122.189 88.6866 128.335 84.324 134.832 85.563Z" fill="#FF3FCB"/>
</svg>
