<svg width="447" height="280" viewBox="0 0 447 280" fill="none" xmlns="http://www.w3.org/2000/svg">
<path d="M223.666 235.236V95.7074C238.042 87.7084 249.73 80.3569 259.504 72.8516H186.639C196.412 80.3568 208.101 87.7084 222.477 95.7074V235.236L170.327 251.765H222.774H223.368H275.816L223.666 235.236Z" fill="#FF3FCB"/>
<path d="M222.18 26.4643C272.696 26.4643 306.719 6.95712 306.719 6.95712M306.719 6.95712C306.719 6.95712 308.651 3.23437 222.18 3.23437M306.719 6.95712C294.873 36.7123 282.481 55.2068 259.504 72.8516M275.816 251.765L223.666 235.236V95.7074C238.042 87.7084 249.73 80.3569 259.504 72.8516M275.816 251.765H222.774M275.816 251.765H223.368M222.774 251.765H170.327M222.774 251.765H223.368M223.963 26.4643C173.447 26.4643 139.423 6.95712 139.423 6.95712M139.423 6.95712C139.423 6.95712 137.492 3.23438 223.963 3.23437M139.423 6.95712C151.27 36.7123 163.662 55.2068 186.639 72.8516M170.327 251.765L222.477 235.236V95.7074C208.101 87.7084 196.412 80.3569 186.639 72.8516M170.327 251.765H223.368M259.504 72.8516H186.639" stroke="#FF3FCB" stroke-width="5"/>
<rect y="251.765" width="446.143" height="9.69875" fill="#FBFF92"/>
<rect y="261.464" width="446.143" height="18.1852" fill="#312828"/>
</svg>
