<svg width="149" height="50" viewBox="0 0 149 50" fill="none" xmlns="http://www.w3.org/2000/svg">
<rect x="1.047" y="0.5" width="146.906" height="48.7061" stroke="#FF3FCB"/>
<path d="M50.477 31.308C48.5557 31.308 47.045 30.582 45.945 29.13C44.8597 27.6487 44.317 25.7053 44.317 23.3C44.317 20.8947 44.8597 18.9587 45.945 17.492C47.045 16.0253 48.5557 15.292 50.477 15.292C52.4277 15.292 53.9383 16.0253 55.009 17.492C56.0943 18.9587 56.637 20.8947 56.637 23.3C56.637 25.7053 56.0943 27.6487 55.009 29.13C53.9383 30.582 52.4277 31.308 50.477 31.308ZM53.623 23.3C53.623 21.6573 53.3517 20.4033 52.809 19.538C52.281 18.6727 51.5037 18.24 50.477 18.24C49.4503 18.24 48.673 18.6727 48.145 19.538C47.617 20.4033 47.353 21.6573 47.353 23.3C47.353 24.9427 47.617 26.1967 48.145 27.062C48.673 27.9127 49.4503 28.338 50.477 28.338C51.5037 28.338 52.281 27.9053 52.809 27.04C53.3517 26.1747 53.623 24.928 53.623 23.3ZM64.3344 31.308C62.4131 31.308 60.9024 30.582 59.8024 29.13C58.7171 27.6487 58.1744 25.7053 58.1744 23.3C58.1744 20.8947 58.7171 18.9587 59.8024 17.492C60.9024 16.0253 62.4131 15.292 64.3344 15.292C66.2851 15.292 67.7958 16.0253 68.8664 17.492C69.9518 18.9587 70.4944 20.8947 70.4944 23.3C70.4944 25.7053 69.9518 27.6487 68.8664 29.13C67.7958 30.582 66.2851 31.308 64.3344 31.308ZM67.4804 23.3C67.4804 21.6573 67.2091 20.4033 66.6664 19.538C66.1384 18.6727 65.3611 18.24 64.3344 18.24C63.3078 18.24 62.5304 18.6727 62.0024 19.538C61.4744 20.4033 61.2104 21.6573 61.2104 23.3C61.2104 24.9427 61.4744 26.1967 62.0024 27.062C62.5304 27.9127 63.3078 28.338 64.3344 28.338C65.3611 28.338 66.1384 27.9053 66.6664 27.04C67.2091 26.1747 67.4804 24.928 67.4804 23.3ZM76.0798 21.54C76.0798 22.0533 75.8965 22.4933 75.5298 22.86C75.1632 23.2267 74.7232 23.41 74.2098 23.41C73.6965 23.41 73.2565 23.2267 72.8898 22.86C72.5232 22.4933 72.3398 22.0533 72.3398 21.54C72.3398 21.0267 72.5232 20.5867 72.8898 20.22C73.2565 19.8533 73.6965 19.67 74.2098 19.67C74.7232 19.67 75.1632 19.8533 75.5298 20.22C75.8965 20.5867 76.0798 21.0267 76.0798 21.54ZM76.0798 29.416C76.0798 29.9293 75.8965 30.3693 75.5298 30.736C75.1632 31.1027 74.7232 31.286 74.2098 31.286C73.6965 31.286 73.2565 31.1027 72.8898 30.736C72.5232 30.3693 72.3398 29.9293 72.3398 29.416C72.3398 28.9027 72.5232 28.4627 72.8898 28.096C73.2565 27.7293 73.6965 27.546 74.2098 27.546C74.7232 27.546 75.1632 27.7293 75.5298 28.096C75.8965 28.4627 76.0798 28.9027 76.0798 29.416ZM84.0786 31.308C82.1572 31.308 80.6466 30.582 79.5466 29.13C78.4612 27.6487 77.9186 25.7053 77.9186 23.3C77.9186 20.8947 78.4612 18.9587 79.5466 17.492C80.6466 16.0253 82.1572 15.292 84.0786 15.292C86.0292 15.292 87.5399 16.0253 88.6106 17.492C89.6959 18.9587 90.2386 20.8947 90.2386 23.3C90.2386 25.7053 89.6959 27.6487 88.6106 29.13C87.5399 30.582 86.0292 31.308 84.0786 31.308ZM87.2246 23.3C87.2246 21.6573 86.9532 20.4033 86.4106 19.538C85.8826 18.6727 85.1052 18.24 84.0786 18.24C83.0519 18.24 82.2746 18.6727 81.7466 19.538C81.2186 20.4033 80.9546 21.6573 80.9546 23.3C80.9546 24.9427 81.2186 26.1967 81.7466 27.062C82.2746 27.9127 83.0519 28.338 84.0786 28.338C85.1052 28.338 85.8826 27.9053 86.4106 27.04C86.9532 26.1747 87.2246 24.928 87.2246 23.3ZM97.936 31.308C96.0146 31.308 94.504 30.582 93.404 29.13C92.3186 27.6487 91.776 25.7053 91.776 23.3C91.776 20.8947 92.3186 18.9587 93.404 17.492C94.504 16.0253 96.0146 15.292 97.936 15.292C99.8866 15.292 101.397 16.0253 102.468 17.492C103.553 18.9587 104.096 20.8947 104.096 23.3C104.096 25.7053 103.553 27.6487 102.468 29.13C101.397 30.582 99.8866 31.308 97.936 31.308ZM101.082 23.3C101.082 21.6573 100.811 20.4033 100.268 19.538C99.74 18.6727 98.9626 18.24 97.936 18.24C96.9093 18.24 96.132 18.6727 95.604 19.538C95.076 20.4033 94.812 21.6573 94.812 23.3C94.812 24.9427 95.076 26.1967 95.604 27.062C96.132 27.9127 96.9093 28.338 97.936 28.338C98.9626 28.338 99.74 27.9053 100.268 27.04C100.811 26.1747 101.082 24.928 101.082 23.3Z" fill="white"/>
</svg>
