<svg width="148" height="148" viewBox="0 0 148 148" fill="none" xmlns="http://www.w3.org/2000/svg">
<path d="M64.89 80H54.594V77.734L59.852 72.322C61.0253 71.0753 61.612 70.0487 61.612 69.242C61.612 68.6407 61.4213 68.1567 61.04 67.79C60.6733 67.4233 60.1967 67.24 59.61 67.24C58.4367 67.24 57.5787 67.8413 57.036 69.044L54.484 67.548C54.9533 66.5067 55.6353 65.7073 56.53 65.15C57.4393 64.578 58.4513 64.292 59.566 64.292C60.9593 64.292 62.1547 64.732 63.152 65.612C64.1493 66.4773 64.648 67.6507 64.648 69.132C64.648 70.7307 63.8047 72.3733 62.118 74.06L59.104 77.074H64.89V80ZM69.9842 70.21H71.5682C73.0642 70.21 74.3109 70.6573 75.3082 71.552C76.3202 72.432 76.8262 73.664 76.8262 75.248C76.8262 76.832 76.2909 78.0713 75.2202 78.966C74.1789 79.8607 72.8809 80.308 71.3262 80.308C70.0649 80.308 68.9575 80.0293 68.0042 79.472C67.0655 78.9 66.3835 78.0787 65.9582 77.008L68.5542 75.49C68.9209 76.722 69.8449 77.338 71.3262 77.338C72.1035 77.338 72.7049 77.1547 73.1302 76.788C73.5702 76.4067 73.7902 75.8933 73.7902 75.248C73.7902 74.6173 73.5775 74.1113 73.1522 73.73C72.7269 73.3487 72.1475 73.158 71.4142 73.158H66.7502L67.3662 64.6H76.1002V67.438H70.1822L69.9842 70.21ZM84.3793 70.518C83.6606 71.2073 82.7806 71.552 81.7393 71.552C80.6833 71.552 79.7959 71.2 79.0773 70.496C78.3733 69.792 78.0213 68.934 78.0213 67.922C78.0213 66.91 78.3733 66.052 79.0773 65.348C79.8106 64.644 80.6979 64.292 81.7393 64.292C82.7953 64.292 83.6753 64.644 84.3793 65.348C85.0833 66.0227 85.4353 66.8807 85.4353 67.922C85.4353 68.9487 85.0833 69.814 84.3793 70.518ZM80.9033 78.438L79.5833 77.668L89.6153 66.514L90.9573 67.262L80.9033 78.438ZM80.7273 68.934C80.9913 69.198 81.3213 69.33 81.7173 69.33C82.1133 69.33 82.4433 69.198 82.7073 68.934C82.9713 68.6553 83.1033 68.318 83.1033 67.922C83.1033 67.526 82.9713 67.196 82.7073 66.932C82.4433 66.668 82.1133 66.536 81.7173 66.536C81.3213 66.536 80.9913 66.668 80.7273 66.932C80.4779 67.196 80.3533 67.526 80.3533 67.922C80.3533 68.318 80.4779 68.6553 80.7273 68.934ZM92.8713 76.634C92.8713 77.646 92.5193 78.504 91.8153 79.208C91.1113 79.912 90.2313 80.264 89.1753 80.264C88.1193 80.264 87.2393 79.912 86.5353 79.208C85.8313 78.504 85.4793 77.646 85.4793 76.634C85.4793 75.622 85.8313 74.764 86.5353 74.06C87.2393 73.356 88.1193 73.004 89.1753 73.004C90.2313 73.004 91.1113 73.356 91.8153 74.06C92.5193 74.764 92.8713 75.622 92.8713 76.634ZM90.1433 77.646C90.4073 77.3673 90.5393 77.03 90.5393 76.634C90.5393 76.238 90.4073 75.908 90.1433 75.644C89.8939 75.3653 89.5713 75.226 89.1753 75.226C88.7793 75.226 88.4493 75.3653 88.1853 75.644C87.9359 75.908 87.8113 76.238 87.8113 76.634C87.8113 77.03 87.9359 77.3673 88.1853 77.646C88.4493 77.91 88.7793 78.042 89.1753 78.042C89.5713 78.042 89.8939 77.91 90.1433 77.646Z" fill="white"/>
<path d="M147.906 73.953C147.906 114.796 114.796 147.906 73.953 147.906C33.1099 147.906 0 114.796 0 73.953C0 33.1099 33.1099 0 73.953 0C114.796 0 147.906 33.1099 147.906 73.953ZM23.9526 73.953C23.9526 101.567 46.3385 123.953 73.953 123.953C101.567 123.953 123.953 101.567 123.953 73.953C123.953 46.3385 101.567 23.9526 73.953 23.9526C46.3385 23.9526 23.9526 46.3385 23.9526 73.953Z" fill="#1549FE"/>
<path d="M134.832 85.563C141.33 86.8021 145.683 93.126 143.413 99.3385C139.8 109.222 134.104 118.266 126.657 125.831C116.397 136.254 103.276 143.402 88.9535 146.369C74.6311 149.335 59.7505 147.989 46.1935 142.498C32.6365 137.008 21.0121 127.621 12.7901 115.524C4.56814 103.427 0.117959 89.1638 0.00231165 74.5377C-0.113336 59.9116 4.11074 45.5797 12.1404 33.3544C20.17 21.129 31.6446 11.5592 45.1131 5.85524C54.8873 1.71579 65.393 -0.252808 75.9121 0.0259059C82.5241 0.201097 86.8021 6.57623 85.563 13.0735C84.324 19.5707 78.0055 23.6801 71.3998 24.0178C65.5974 24.3145 59.8602 25.6218 54.454 27.9114C45.3479 31.7679 37.5898 38.2381 32.1609 46.5038C26.7319 54.7695 23.876 64.4595 23.9542 74.3483C24.0324 84.2371 27.0412 93.8807 32.6001 102.06C38.1591 110.238 46.0185 116.585 55.1845 120.297C64.3505 124.009 74.4114 124.92 84.095 122.914C93.7786 120.908 102.65 116.076 109.587 109.028C113.706 104.844 117.032 99.9903 119.444 94.7044C122.189 88.6866 128.335 84.324 134.832 85.563Z" fill="#FF3FCB"/>
</svg>
