<svg width="148" height="50" viewBox="0 0 148 50" fill="none" xmlns="http://www.w3.org/2000/svg">
<rect x="0.5" y="0.5" width="146.906" height="48.7061" stroke="#FF3FCB"/>
<path d="M53.93 32.308C52.0087 32.308 50.498 31.582 49.398 30.13C48.3127 28.6487 47.77 26.7053 47.77 24.3C47.77 21.8947 48.3127 19.9587 49.398 18.492C50.498 17.0253 52.0087 16.292 53.93 16.292C55.8807 16.292 57.3913 17.0253 58.462 18.492C59.5473 19.9587 60.09 21.8947 60.09 24.3C60.09 26.7053 59.5473 28.6487 58.462 30.13C57.3913 31.582 55.8807 32.308 53.93 32.308ZM57.076 24.3C57.076 22.6573 56.8047 21.4033 56.262 20.538C55.734 19.6727 54.9567 19.24 53.93 19.24C52.9033 19.24 52.126 19.6727 51.598 20.538C51.07 21.4033 50.806 22.6573 50.806 24.3C50.806 25.9427 51.07 27.1967 51.598 28.062C52.126 28.9127 52.9033 29.338 53.93 29.338C54.9567 29.338 55.734 28.9053 56.262 28.04C56.8047 27.1747 57.076 25.928 57.076 24.3ZM60.6697 18.03L64.7177 16.6H67.3577V32H64.3217V19.812L61.4177 20.626L60.6697 18.03ZM73.7535 22.54C73.7535 23.0533 73.5702 23.4933 73.2035 23.86C72.8369 24.2267 72.3969 24.41 71.8835 24.41C71.3702 24.41 70.9302 24.2267 70.5635 23.86C70.1969 23.4933 70.0135 23.0533 70.0135 22.54C70.0135 22.0267 70.1969 21.5867 70.5635 21.22C70.9302 20.8533 71.3702 20.67 71.8835 20.67C72.3969 20.67 72.8369 20.8533 73.2035 21.22C73.5702 21.5867 73.7535 22.0267 73.7535 22.54ZM73.7535 30.416C73.7535 30.9293 73.5702 31.3693 73.2035 31.736C72.8369 32.1027 72.3969 32.286 71.8835 32.286C71.3702 32.286 70.9302 32.1027 70.5635 31.736C70.1969 31.3693 70.0135 30.9293 70.0135 30.416C70.0135 29.9027 70.1969 29.4627 70.5635 29.096C70.9302 28.7293 71.3702 28.546 71.8835 28.546C72.3969 28.546 72.8369 28.7293 73.2035 29.096C73.5702 29.4627 73.7535 29.9027 73.7535 30.416ZM85.4703 19.108L82.5883 22.848C83.6589 23.156 84.5096 23.6987 85.1403 24.476C85.7856 25.2533 86.1083 26.1773 86.1083 27.248C86.1083 28.832 85.5729 30.0713 84.5023 30.966C83.4609 31.8607 82.1629 32.308 80.6083 32.308C79.3909 32.308 78.3129 32.0293 77.3743 31.472C76.4356 30.9 75.7536 30.0933 75.3283 29.052L77.9243 27.556C78.2909 28.744 79.1856 29.338 80.6083 29.338C81.3856 29.338 81.9869 29.1547 82.4123 28.788C82.8523 28.4067 83.0723 27.8933 83.0723 27.248C83.0723 26.6173 82.8523 26.1113 82.4123 25.73C81.9869 25.3487 81.3856 25.158 80.6083 25.158H79.9483L78.7823 23.398L81.8183 19.438H75.7903V16.6H85.4703V19.108ZM93.7405 32.308C91.8192 32.308 90.3085 31.582 89.2085 30.13C88.1232 28.6487 87.5805 26.7053 87.5805 24.3C87.5805 21.8947 88.1232 19.9587 89.2085 18.492C90.3085 17.0253 91.8192 16.292 93.7405 16.292C95.6912 16.292 97.2019 17.0253 98.2725 18.492C99.3579 19.9587 99.9005 21.8947 99.9005 24.3C99.9005 26.7053 99.3579 28.6487 98.2725 30.13C97.2019 31.582 95.6912 32.308 93.7405 32.308ZM96.8865 24.3C96.8865 22.6573 96.6152 21.4033 96.0725 20.538C95.5445 19.6727 94.7672 19.24 93.7405 19.24C92.7139 19.24 91.9365 19.6727 91.4085 20.538C90.8805 21.4033 90.6165 22.6573 90.6165 24.3C90.6165 25.9427 90.8805 27.1967 91.4085 28.062C91.9365 28.9127 92.7139 29.338 93.7405 29.338C94.7672 29.338 95.5445 28.9053 96.0725 28.04C96.6152 27.1747 96.8865 25.928 96.8865 24.3Z" fill="white"/>
</svg>
