<svg width="122" height="41" viewBox="0 0 122 41" fill="none" xmlns="http://www.w3.org/2000/svg">
<rect x="0.5" y="0.5" width="121" height="40" stroke="#FF3FCB"/>
<path d="M38.93 27.308C37.0087 27.308 35.498 26.582 34.398 25.13C33.3127 23.6487 32.77 21.7053 32.77 19.3C32.77 16.8947 33.3127 14.9587 34.398 13.492C35.498 12.0253 37.0087 11.292 38.93 11.292C40.8807 11.292 42.3913 12.0253 43.462 13.492C44.5473 14.9587 45.09 16.8947 45.09 19.3C45.09 21.7053 44.5473 23.6487 43.462 25.13C42.3913 26.582 40.8807 27.308 38.93 27.308ZM42.076 19.3C42.076 17.6573 41.8047 16.4033 41.262 15.538C40.734 14.6727 39.9567 14.24 38.93 14.24C37.9033 14.24 37.126 14.6727 36.598 15.538C36.07 16.4033 35.806 17.6573 35.806 19.3C35.806 20.9427 36.07 22.1967 36.598 23.062C37.126 23.9127 37.9033 24.338 38.93 24.338C39.9567 24.338 40.734 23.9053 41.262 23.04C41.8047 22.1747 42.076 20.928 42.076 19.3ZM55.8824 14.108L53.0004 17.848C54.071 18.156 54.9217 18.6987 55.5524 19.476C56.1977 20.2533 56.5204 21.1773 56.5204 22.248C56.5204 23.832 55.985 25.0713 54.9144 25.966C53.873 26.8607 52.575 27.308 51.0204 27.308C49.803 27.308 48.725 27.0293 47.7864 26.472C46.8477 25.9 46.1657 25.0933 45.7404 24.052L48.3364 22.556C48.703 23.744 49.5977 24.338 51.0204 24.338C51.7977 24.338 52.399 24.1547 52.8244 23.788C53.2644 23.4067 53.4844 22.8933 53.4844 22.248C53.4844 21.6173 53.2644 21.1113 52.8244 20.73C52.399 20.3487 51.7977 20.158 51.0204 20.158H50.3604L49.1944 18.398L52.2304 14.438H46.2024V11.6H55.8824V14.108ZM61.8258 17.54C61.8258 18.0533 61.6425 18.4933 61.2758 18.86C60.9091 19.2267 60.4691 19.41 59.9558 19.41C59.4425 19.41 59.0025 19.2267 58.6358 18.86C58.2691 18.4933 58.0858 18.0533 58.0858 17.54C58.0858 17.0267 58.2691 16.5867 58.6358 16.22C59.0025 15.8533 59.4425 15.67 59.9558 15.67C60.4691 15.67 60.9091 15.8533 61.2758 16.22C61.6425 16.5867 61.8258 17.0267 61.8258 17.54ZM61.8258 25.416C61.8258 25.9293 61.6425 26.3693 61.2758 26.736C60.9091 27.1027 60.4691 27.286 59.9558 27.286C59.4425 27.286 59.0025 27.1027 58.6358 26.736C58.2691 26.3693 58.0858 25.9293 58.0858 25.416C58.0858 24.9027 58.2691 24.4627 58.6358 24.096C59.0025 23.7293 59.4425 23.546 59.9558 23.546C60.4691 23.546 60.9091 23.7293 61.2758 24.096C61.6425 24.4627 61.8258 24.9027 61.8258 25.416ZM69.8245 27.308C67.9032 27.308 66.3925 26.582 65.2925 25.13C64.2072 23.6487 63.6645 21.7053 63.6645 19.3C63.6645 16.8947 64.2072 14.9587 65.2925 13.492C66.3925 12.0253 67.9032 11.292 69.8245 11.292C71.7752 11.292 73.2859 12.0253 74.3565 13.492C75.4419 14.9587 75.9845 16.8947 75.9845 19.3C75.9845 21.7053 75.4419 23.6487 74.3565 25.13C73.2859 26.582 71.7752 27.308 69.8245 27.308ZM72.9705 19.3C72.9705 17.6573 72.6992 16.4033 72.1565 15.538C71.6285 14.6727 70.8512 14.24 69.8245 14.24C68.7979 14.24 68.0205 14.6727 67.4925 15.538C66.9645 16.4033 66.7005 17.6573 66.7005 19.3C66.7005 20.9427 66.9645 22.1967 67.4925 23.062C68.0205 23.9127 68.7979 24.338 69.8245 24.338C70.8512 24.338 71.6285 23.9053 72.1565 23.04C72.6992 22.1747 72.9705 20.928 72.9705 19.3ZM83.682 27.308C81.7606 27.308 80.25 26.582 79.15 25.13C78.0646 23.6487 77.522 21.7053 77.522 19.3C77.522 16.8947 78.0646 14.9587 79.15 13.492C80.25 12.0253 81.7606 11.292 83.682 11.292C85.6326 11.292 87.1433 12.0253 88.214 13.492C89.2993 14.9587 89.842 16.8947 89.842 19.3C89.842 21.7053 89.2993 23.6487 88.214 25.13C87.1433 26.582 85.6326 27.308 83.682 27.308ZM86.828 19.3C86.828 17.6573 86.5566 16.4033 86.014 15.538C85.486 14.6727 84.7086 14.24 83.682 14.24C82.6553 14.24 81.878 14.6727 81.35 15.538C80.822 16.4033 80.558 17.6573 80.558 19.3C80.558 20.9427 80.822 22.1967 81.35 23.062C81.878 23.9127 82.6553 24.338 83.682 24.338C84.7086 24.338 85.486 23.9053 86.014 23.04C86.5566 22.1747 86.828 20.928 86.828 19.3Z" fill="white"/>
</svg>
