<svg width="133" height="134" viewBox="0 0 133 134" fill="none" xmlns="http://www.w3.org/2000/svg">
<path d="M133 66.6675C133 103.394 103.227 133.167 66.5 133.167C29.7731 133.167 0 103.394 0 66.6675C0 29.9405 29.7731 0.16748 66.5 0.16748C103.227 0.16748 133 29.9405 133 66.6675ZM21.5387 66.6675C21.5387 91.4989 41.6685 111.629 66.5 111.629C91.3315 111.629 111.461 91.4989 111.461 66.6675C111.461 41.836 91.3315 21.7062 66.5 21.7062C41.6685 21.7062 21.5387 41.836 21.5387 66.6675Z" fill="#1549FE"/>
<path d="M10.7693 66.6675C4.8216 66.6675 -0.0888854 61.815 0.870127 55.9451C1.69387 50.9031 3.09781 45.961 5.06202 41.219C8.40396 33.1509 13.3023 25.82 19.4774 19.6449C25.6525 13.4698 32.9834 8.57142 41.0516 5.22948C45.7936 3.26528 50.7357 1.86134 55.7776 1.0376C61.6476 0.0785922 66.5 4.98908 66.5 10.9368V10.9368C66.5 16.8846 61.6112 21.5787 55.8333 22.9898C53.6072 23.5334 51.4209 24.2477 49.2941 25.1286C43.8391 27.3881 38.8826 30.7 34.7076 34.875C30.5325 39.0501 27.2207 44.0066 24.9612 49.4615C24.0802 51.5883 23.3659 53.7747 22.8223 56.0008C21.4112 61.7787 16.7171 66.6675 10.7693 66.6675V66.6675Z" fill="#FF3FCB"/>
<path d="M57.679 67.0614H59.329V69.8774H57.679V72.4954H54.621V69.8774H47.339V67.0614L52.465 57.0954H55.721L50.617 67.0614H54.621V63.4094H57.679V67.0614ZM64.2147 62.7054H65.7987C67.2947 62.7054 68.5413 63.1527 69.5387 64.0474C70.5507 64.9274 71.0567 66.1594 71.0567 67.7434C71.0567 69.3274 70.5213 70.5667 69.4507 71.4614C68.4093 72.356 67.1113 72.8034 65.5567 72.8034C64.2953 72.8034 63.188 72.5247 62.2347 71.9674C61.296 71.3954 60.614 70.574 60.1887 69.5034L62.7847 67.9854C63.1513 69.2174 64.0753 69.8334 65.5567 69.8334C66.334 69.8334 66.9353 69.65 67.3607 69.2834C67.8007 68.902 68.0207 68.3887 68.0207 67.7434C68.0207 67.1127 67.808 66.6067 67.3827 66.2254C66.9573 65.844 66.378 65.6534 65.6447 65.6534H60.9807L61.5967 57.0954H70.3307V59.9334H64.4127L64.2147 62.7054ZM78.6097 63.0134C77.8911 63.7027 77.0111 64.0474 75.9697 64.0474C74.9137 64.0474 74.0264 63.6954 73.3077 62.9914C72.6037 62.2874 72.2517 61.4294 72.2517 60.4174C72.2517 59.4054 72.6037 58.5474 73.3077 57.8434C74.0411 57.1394 74.9284 56.7874 75.9697 56.7874C77.0257 56.7874 77.9057 57.1394 78.6097 57.8434C79.3137 58.518 79.6657 59.376 79.6657 60.4174C79.6657 61.444 79.3137 62.3094 78.6097 63.0134ZM75.1337 70.9334L73.8137 70.1634L83.8457 59.0094L85.1877 59.7574L75.1337 70.9334ZM74.9577 61.4294C75.2217 61.6934 75.5517 61.8254 75.9477 61.8254C76.3437 61.8254 76.6737 61.6934 76.9377 61.4294C77.2017 61.1507 77.3337 60.8134 77.3337 60.4174C77.3337 60.0214 77.2017 59.6914 76.9377 59.4274C76.6737 59.1634 76.3437 59.0314 75.9477 59.0314C75.5517 59.0314 75.2217 59.1634 74.9577 59.4274C74.7084 59.6914 74.5837 60.0214 74.5837 60.4174C74.5837 60.8134 74.7084 61.1507 74.9577 61.4294ZM87.1017 69.1294C87.1017 70.1414 86.7497 70.9994 86.0457 71.7034C85.3417 72.4074 84.4617 72.7594 83.4057 72.7594C82.3497 72.7594 81.4697 72.4074 80.7657 71.7034C80.0617 70.9994 79.7097 70.1414 79.7097 69.1294C79.7097 68.1174 80.0617 67.2594 80.7657 66.5554C81.4697 65.8514 82.3497 65.4994 83.4057 65.4994C84.4617 65.4994 85.3417 65.8514 86.0457 66.5554C86.7497 67.2594 87.1017 68.1174 87.1017 69.1294ZM84.3737 70.1414C84.6377 69.8627 84.7697 69.5254 84.7697 69.1294C84.7697 68.7334 84.6377 68.4034 84.3737 68.1394C84.1244 67.8607 83.8017 67.7214 83.4057 67.7214C83.0097 67.7214 82.6797 67.8607 82.4157 68.1394C82.1664 68.4034 82.0417 68.7334 82.0417 69.1294C82.0417 69.5254 82.1664 69.8627 82.4157 70.1414C82.6797 70.4054 83.0097 70.5374 83.4057 70.5374C83.8017 70.5374 84.1244 70.4054 84.3737 70.1414Z" fill="white"/>
</svg>
