<svg width="1500" height="1236" viewBox="0 0 1500 1236" fill="none" xmlns="http://www.w3.org/2000/svg">
<g clip-path="url(#clip0_253_110)">
<path d="M1579.33 674.99C1505.49 605.983 1344.78 575.701 1202.29 603.967C1093.96 625.443 1005.75 674.629 914.182 716.962C822.613 759.295 712.538 797.824 603.811 790.478C534.351 785.776 475.747 762.795 423.432 737.948C371.117 713.101 321.588 685.458 259.66 668.87C197.733 652.281 118.944 648.485 55.6508 671.169C-17.9734 697.562 -65.1999 756.281 -147.94 760.328C-188.454 762.305 -224.898 748.999 -247.915 731.022C-270.931 713.044 -282.801 690.758 -294.31 668.893C-316.688 626.431 -339.066 583.969 -361.421 541.492" stroke="#FF3FCB" stroke-miterlimit="10"/>
<path d="M1579.64 683.803C1505.44 616.668 1347.37 586.677 1207.28 613.012C1100.79 633.03 1013.97 679.689 924.191 719.607C921.152 720.959 918.113 722.297 915.027 723.638C827.164 761.905 723.36 795.473 620.329 787.643C551.82 782.423 493.543 759.641 441.171 735.304C388.846 710.977 339.061 684.117 277.282 667.994C254.938 662.166 230.467 657.964 205.37 656.01C161.025 652.553 114.601 656.088 74.3099 670.047C0.876955 695.458 -46.9588 752.039 -128.893 755.453C-169.028 757.122 -205.054 743.906 -228.157 726.137C-252.042 707.787 -264.573 685.035 -276.632 662.587C-282.33 651.969 -288.006 641.335 -293.727 630.718C-311.479 597.828 -330.18 564.937 -350.034 533.738" stroke="#FF3FCB" stroke-miterlimit="10"/>
<path d="M1579.95 692.618C1505.38 627.364 1349.95 597.651 1212.27 622.07C1107.6 640.646 1022.17 684.768 934.201 722.272C931.229 723.538 928.233 724.804 925.237 726.058C839.165 761.994 737.899 793.386 636.874 784.819C569.292 779.084 511.366 756.497 458.937 732.669C406.602 708.862 356.537 682.772 294.907 667.125C272.614 661.475 248.26 657.391 223.277 655.486C179.209 652.124 133.1 655.503 92.9485 668.921C19.7074 693.364 -28.7376 747.799 -109.842 750.592C-149.574 751.951 -185.23 738.814 -208.418 721.279C-233.172 702.558 -246.389 679.327 -258.95 656.307C-264.888 645.415 -270.779 634.52 -276.785 623.659C-295.37 589.97 -315.854 556.293 -338.667 526.026" stroke="#FF3FCB" stroke-miterlimit="10"/>
<path d="M1580.25 701.422C1505.33 638.046 1352.51 608.597 1217.25 631.113C1114.43 648.234 1030.39 689.85 944.19 724.92C941.284 726.099 938.355 727.279 935.402 728.462C851.124 762.071 752.372 791.29 653.378 781.998C586.747 775.745 529.147 753.356 476.662 730.05C424.317 706.761 373.995 681.437 312.491 666.268C290.246 660.782 265.987 656.83 241.165 654.972C197.374 651.691 151.603 654.926 111.569 667.819C38.5424 691.281 -10.5573 743.589 -90.833 745.748C-130.184 746.799 -165.446 733.753 -188.721 716.425C-214.344 697.345 -228.246 673.623 -241.333 650.033C-247.51 638.881 -253.64 627.712 -259.885 616.604C-279.326 582.131 -301.547 547.666 -327.319 518.302" stroke="#FF3FCB" stroke-miterlimit="10"/>
<path d="M1580.55 710.2C1505.27 648.699 1355.09 619.524 1222.23 640.128C1121.23 655.796 1038.59 694.896 954.198 727.557C951.358 728.664 948.472 729.76 945.586 730.856C863.079 762.142 766.866 789.176 669.902 779.16C604.198 772.378 546.949 750.197 494.384 727.399C442.005 704.629 391.426 680.084 330.093 665.376C307.875 660.055 283.757 656.233 259.073 654.422C215.558 651.235 170.102 654.329 130.208 666.668C57.3738 689.166 7.66505 739.32 -71.8039 740.861C-110.775 741.604 -145.665 728.65 -169.005 711.526C-195.519 692.09 -210.083 667.876 -223.696 643.715C-230.112 632.303 -236.459 620.858 -242.965 609.506C-263.24 574.235 -287.243 538.998 -315.976 510.552" stroke="#FF3FCB" stroke-miterlimit="10"/>
<path d="M1580.85 718.983C1505.21 659.341 1357.66 630.438 1227.21 649.145C1128.05 663.361 1046.8 699.96 964.208 730.204C961.411 731.226 958.615 732.248 955.796 733.259C875.082 762.208 781.385 787.061 686.454 776.347C621.701 769.035 564.779 747.063 512.156 724.772C459.767 702.518 408.93 678.737 347.723 664.506C325.555 659.361 301.53 655.657 277.008 653.892C233.77 650.799 188.651 653.736 148.874 665.552C76.2325 687.073 25.9161 735.103 -52.7459 736.026C-91.3362 736.462 -125.856 723.599 -149.259 706.693C-176.665 686.901 -191.892 662.194 -206.008 637.462C-212.662 625.79 -219.225 614.07 -226.017 602.475C-247.124 566.418 -272.911 530.398 -304.606 502.854" stroke="#FF3FCB" stroke-miterlimit="10"/>
<path d="M1581.26 727.594C1505.25 669.857 1360.33 641.254 1232.27 658.043C1134.92 670.812 1055.08 704.89 974.238 732.73C971.509 733.665 968.755 734.603 966.002 735.54C887.072 762.165 795.879 784.823 702.994 773.412C639.163 765.567 582.588 743.831 529.905 722.061C477.502 700.339 426.381 677.339 365.317 663.594C343.197 658.617 319.287 655.034 294.878 653.335C251.911 650.327 207.102 653.127 167.438 664.417C94.9775 684.96 44.0424 730.852 -33.8215 731.152C-72.0354 731.284 -106.186 718.522 -129.63 701.829C-157.929 681.693 -173.817 656.508 -188.457 631.22C-195.35 619.294 -202.128 607.306 -209.181 595.472C-231.119 558.638 -258.688 521.854 -293.322 495.253" stroke="#FF3FCB" stroke-miterlimit="10"/>
<path d="M1581.67 736.213C1505.3 680.374 1363 652.053 1237.34 666.955C1141.79 678.281 1063.33 709.846 984.299 735.282C981.635 736.145 978.948 736.997 976.261 737.849C899.116 762.154 810.428 782.608 719.568 770.527C656.659 762.163 600.429 740.649 547.662 719.399C495.221 698.208 443.863 675.996 382.94 662.722C360.845 657.927 337.05 654.465 312.799 652.814C270.105 649.905 225.605 652.553 186.075 663.306C113.797 682.886 62.243 726.634 -14.8223 726.325C-52.6603 726.141 -86.4407 713.505 -109.95 697.025C-139.142 676.545 -155.691 650.881 -170.832 625.036C-177.964 612.842 -184.98 600.614 -192.271 588.527C-215.04 550.928 -244.392 513.381 -281.991 487.696" stroke="#FF3FCB" stroke-miterlimit="10"/>
<path d="M1582.08 744.825C1505.34 690.862 1365.67 662.846 1242.39 675.85C1148.69 685.732 1071.61 714.803 994.36 737.829C991.763 738.607 989.119 739.388 986.499 740.154C911.141 762.144 824.96 780.398 736.125 767.633C674.138 758.723 618.256 737.454 565.426 716.72C512.97 696.054 461.349 674.614 400.547 661.825C378.498 657.196 354.819 653.867 330.704 652.279C288.281 649.468 244.114 651.964 204.697 662.194C132.624 680.8 80.43 722.427 4.1636 721.495C-33.2978 721.008 -66.7322 708.484 -90.2838 692.2C-120.392 671.377 -137.58 645.245 -153.245 618.828C-160.615 606.381 -167.848 593.884 -175.422 581.559C-199.046 543.181 -230.158 504.881 -270.724 480.122" stroke="#FF3FCB" stroke-miterlimit="10"/>
<path d="M1582.48 753.458C1505.37 701.376 1368.3 673.635 1247.45 684.754C1155.55 693.197 1079.87 719.765 1004.4 740.4C1001.85 741.094 999.292 741.788 996.715 742.483C923.146 762.148 839.475 778.206 752.667 764.782C691.603 755.339 636.067 734.299 583.176 714.078C530.705 693.934 478.798 673.279 418.137 660.957C396.136 656.506 372.548 653.298 348.569 651.759C306.418 649.045 262.561 651.389 223.279 661.098C151.39 678.747 98.5797 718.243 23.1128 716.689C-13.9716 715.899 -47.0597 703.486 -70.654 687.396C-101.679 666.229 -119.506 639.614 -135.673 612.637C-143.281 599.935 -150.729 587.168 -158.565 574.603C-183.021 535.457 -215.916 496.39 -259.428 472.54" stroke="#FF3FCB" stroke-miterlimit="10"/>
<path d="M1582.87 762.085C1505.39 711.878 1370.95 684.418 1252.5 693.643C1162.44 700.646 1088.14 724.729 1014.46 742.963C1011.98 743.584 1009.49 744.193 1006.98 744.803C935.2 762.161 854.04 775.998 769.261 761.913C709.121 751.923 653.931 731.122 600.977 711.411C548.467 691.79 496.32 671.9 435.8 660.055C413.824 655.77 390.374 652.693 366.53 651.203C324.651 648.572 281.105 650.791 241.959 659.952C170.254 676.633 116.828 714.017 42.1619 711.854C5.47799 710.76 -27.3103 698.46 -50.9239 682.574C-82.8665 661.076 -101.309 633.96 -118.024 606.426C-125.871 593.468 -133.535 580.431 -141.633 567.626C-166.92 527.696 -201.601 487.862 -248.083 464.946" stroke="#FF3FCB" stroke-miterlimit="10"/>
<path d="M1583.27 770.734C1505.41 722.382 1373.6 695.2 1257.54 702.533C1169.3 708.111 1096.4 729.687 1024.53 745.533C1022.11 746.07 1019.67 746.594 1017.22 747.132C947.24 762.186 868.594 773.805 785.844 759.072C726.627 748.533 671.784 727.957 618.744 708.769C566.218 689.665 513.783 670.541 453.405 659.173C431.476 655.051 408.118 652.107 384.433 650.664C342.85 648.127 299.613 650.195 260.581 658.837C189.061 674.565 135.02 709.816 61.1551 707.044C24.8487 705.646 -7.59322 693.455 -31.2268 677.758C-64.087 655.927 -83.1696 628.313 -100.41 600.218C-108.495 587.004 -116.375 573.696 -124.757 560.652C-150.877 519.951 -187.343 479.348 -236.799 457.337" stroke="#FF3FCB" stroke-miterlimit="10"/>
<path d="M1583.65 779.377C1505.45 732.9 1376.24 705.981 1262.59 711.435C1176.19 715.575 1104.67 734.673 1034.58 748.125C1032.2 748.577 1029.85 749.029 1027.45 749.483C959.257 762.234 883.126 771.624 802.407 756.241C744.115 745.14 689.618 724.813 636.515 706.131C583.972 687.543 531.273 669.194 471.013 658.288C449.131 654.344 425.887 651.503 402.315 650.123C361.004 647.681 318.078 649.598 279.159 657.723C207.825 672.485 153.171 705.634 80.1076 702.239C44.1792 700.538 12.0606 688.469 -11.5936 672.947C-45.3948 650.784 -65.0944 622.668 -82.8368 594.01C-91.1611 580.54 -99.2796 566.962 -107.9 553.675C-134.877 512.189 -173.106 470.827 -225.512 449.733" stroke="#FF3FCB" stroke-miterlimit="10"/>
<path d="M1584.03 788.041C1505.46 743.409 1378.88 716.774 1267.63 720.323C1183.05 723.027 1112.93 739.637 1044.65 750.707C1042.34 751.088 1040.03 751.455 1037.72 751.823C971.325 762.261 897.712 769.421 819.026 753.415C761.681 741.749 707.508 721.671 654.341 703.493C601.758 685.421 548.793 667.832 488.698 657.397C466.839 653.617 443.711 650.907 420.297 649.573C379.258 647.212 336.643 648.99 297.862 656.583C226.737 670.394 171.447 701.432 99.1863 697.427C63.6361 695.423 31.8404 683.462 8.16619 668.14C-26.5767 645.645 -46.8933 617.027 -65.1613 587.805C-73.7249 574.066 -82.0588 560.243 -90.9417 546.701C-118.751 504.441 -158.768 462.307 -214.151 442.115" stroke="#FF3FCB" stroke-miterlimit="10"/>
<path d="M1584.41 796.7C1505.46 753.922 1381.51 727.541 1272.66 729.214C1189.93 730.48 1121.21 744.603 1054.72 753.295C1052.48 753.59 1050.24 753.873 1047.97 754.157C983.374 762.297 912.303 767.215 835.627 750.571C779.207 738.329 725.381 718.51 672.127 700.836C619.526 683.276 566.295 666.445 506.318 656.484C484.506 652.879 461.493 650.285 438.215 648.999C397.448 646.732 355.167 648.356 316.501 655.433C245.562 668.281 189.661 697.224 118.202 692.596C83.0305 690.288 51.5583 678.448 27.8632 663.298C-7.82177 640.469 -28.7559 611.348 -47.5265 581.561C-56.3522 567.566 -64.8791 553.47 -74.0471 539.687C-102.691 496.638 -144.495 453.732 -202.856 434.469" stroke="#FF3FCB" stroke-miterlimit="10"/>
<path d="M1584.78 805.381C1505.45 764.44 1384.14 738.338 1277.72 738.118C1196.81 737.949 1129.51 749.599 1064.8 755.902C1062.62 756.112 1060.42 756.325 1058.22 756.524C995.427 762.367 926.876 765.032 852.235 747.775C796.74 734.955 743.261 715.394 689.943 698.221C637.324 681.171 583.828 665.11 523.968 655.607C502.203 652.164 479.281 649.702 456.162 648.461C415.668 646.287 373.698 647.76 335.169 654.305C264.417 666.192 207.906 693.043 137.251 687.804C102.457 685.179 71.2855 673.473 47.5928 658.506C10.9425 635.359 -10.5863 605.732 -29.8833 575.367C-38.9482 561.115 -47.6913 546.746 -57.1213 532.721C-86.5988 488.895 -130.169 445.214 -191.51 426.85" stroke="#FF3FCB" stroke-miterlimit="10"/>
<path d="M1585.15 814.07C1505.45 774.976 1386.77 749.122 1282.76 747.026C1203.69 745.419 1137.77 754.589 1074.88 758.514C1072.75 758.641 1070.64 758.78 1068.5 758.894C1007.49 762.443 941.504 762.839 868.877 744.969C814.331 731.556 761.175 712.266 707.792 695.592C655.132 679.054 601.369 663.748 541.649 654.701C519.907 651.42 497.124 649.086 474.117 647.893C433.896 645.8 392.238 647.147 353.847 653.162C283.282 664.1 226.161 688.848 156.332 682.983C121.918 680.055 91.0698 668.467 67.379 653.669C29.7856 630.187 7.63869 600.056 -12.1842 569.14C-21.4883 554.63 -30.4709 539.989 -40.14 525.719C-70.4522 481.102 -115.812 436.661 -180.135 419.21" stroke="#FF3FCB" stroke-miterlimit="10"/>
<path d="M1585.51 822.752C1505.45 785.501 1389.36 759.91 1287.78 755.922C1210.54 752.88 1146.04 759.58 1084.96 761.116C1082.89 761.172 1080.82 761.214 1078.76 761.257C1019.54 762.497 956.132 760.625 885.496 742.17C831.898 728.162 779.067 709.142 725.618 692.967C672.94 676.937 618.91 662.398 559.33 653.806C537.636 650.699 514.943 648.469 492.096 647.335C452.147 645.334 410.824 646.526 372.548 652.027C302.172 662.004 244.441 684.664 175.417 678.175C141.405 674.941 110.833 663.475 87.1443 648.845C48.5847 625.043 25.8421 594.39 5.51578 562.907C-4.02771 548.139 -13.2268 533.225 -23.1813 518.714C-54.3514 473.32 -101.479 428.101 -168.785 411.548" stroke="#FF3FCB" stroke-miterlimit="10"/>
<path d="M1585.88 831.457C1505.44 796.047 1391.98 770.701 1292.81 764.822C1217.42 760.343 1154.3 764.564 1095.02 763.713C1093.02 763.683 1091.02 763.654 1088.99 763.613C1031.59 762.559 970.724 758.407 902.103 739.35C849.455 724.734 796.948 705.997 743.411 690.334C690.715 674.811 636.393 661.026 576.954 652.902C555.306 649.956 532.728 647.854 510.017 646.766C470.341 644.857 429.329 645.897 391.192 650.867C321.028 659.897 262.664 680.446 194.445 673.358C160.813 669.82 130.542 658.472 106.854 644.023C67.3284 619.914 43.9895 588.727 23.1364 556.677C13.353 541.637 3.93782 526.463 -6.27913 511.709C-38.2848 465.521 -87.2035 419.527 -157.472 403.897" stroke="#FF3FCB" stroke-miterlimit="10"/>
<path d="M1586.23 840.155C1505.41 806.571 1394.59 781.494 1297.84 773.724C1224.27 767.823 1162.58 769.549 1105.1 766.324C1103.17 766.21 1101.21 766.11 1099.28 765.983C1043.68 762.635 985.413 756.187 918.763 736.557C867.087 721.331 814.881 702.877 761.279 687.71C708.54 672.695 653.973 659.66 594.651 652.003C573.026 649.232 550.564 647.245 527.988 646.204C488.585 644.387 447.885 645.274 409.864 649.73C339.888 657.8 280.916 676.264 213.503 668.551C180.25 664.709 150.279 653.479 126.593 639.197C86.0768 614.768 62.188 583.056 40.8079 550.439C30.7849 535.14 21.1529 519.692 10.6734 504.694C-22.168 457.726 -72.8789 410.955 -146.135 396.222" stroke="#FF3FCB" stroke-miterlimit="10"/>
<path d="M1586.59 848.875C1505.37 817.13 1397.2 792.291 1302.84 782.645C1231.12 775.307 1170.82 774.568 1115.16 768.955C1113.28 768.771 1111.41 768.572 1109.52 768.374C1055.73 762.733 1000.04 753.977 935.383 733.772C884.657 717.923 832.776 699.762 779.107 685.091C726.349 670.581 671.491 658.311 612.331 651.105C590.754 648.495 568.406 646.636 545.966 645.64C506.835 643.901 466.471 644.648 428.566 648.589C358.78 655.712 299.199 672.081 232.592 663.755C199.719 659.608 170.05 648.51 146.365 634.38C104.857 609.645 80.3948 577.395 58.4872 544.211C48.2246 528.653 38.3763 512.944 27.6104 497.69C-6.06695 449.94 -58.5711 402.392 -134.815 388.568" stroke="#FF3FCB" stroke-miterlimit="10"/>
<path d="M1586.94 857.588C1505.36 827.676 1399.8 803.09 1307.88 791.552C1238 782.777 1179.12 779.558 1125.25 771.574C1123.43 771.304 1121.61 771.035 1119.81 770.751C1067.83 762.803 1014.74 751.751 952.053 730.984C902.324 714.496 850.72 696.645 796.962 682.47C744.185 668.464 689.058 656.944 630.015 650.205C608.483 647.767 586.227 646.025 563.946 645.087C525.089 643.439 485.037 644.032 447.271 647.444C377.675 653.608 317.487 667.895 251.686 658.943C219.193 654.491 189.823 643.51 166.163 629.558C123.665 604.515 98.6283 571.727 76.2163 537.973C65.7138 522.156 55.6252 506.174 44.6194 490.661C10.0819 442.117 -44.1926 393.802 -123.404 380.873" stroke="#FF3FCB" stroke-miterlimit="10"/>
<path d="M1587.29 866.322C1505.32 838.23 1402.41 813.908 1312.91 800.478C1244.87 790.265 1187.38 784.583 1135.34 774.21C1133.59 773.856 1131.84 773.502 1130.08 773.148C1079.91 762.907 1029.44 749.53 968.709 728.202C919.954 711.088 868.652 693.531 814.827 679.85C762.007 666.349 706.633 655.577 647.707 649.304C626.199 647.027 604.081 645.41 581.913 644.52C543.328 642.963 503.589 643.416 465.963 646.298C396.557 651.517 335.761 663.71 270.767 654.131C238.654 649.374 209.586 638.523 185.926 624.723C142.436 599.372 116.826 566.06 93.8853 531.723C83.1427 515.646 72.8372 499.39 61.5451 483.634C26.1707 434.306 -29.8993 385.199 -112.103 373.192" stroke="#FF3FCB" stroke-miterlimit="10"/>
<path d="M1587.64 875.05C1505.28 848.79 1405.01 824.703 1317.93 809.381C1251.72 797.731 1195.66 789.569 1145.44 776.823C1143.75 776.397 1142.04 775.96 1140.35 775.521C1091.99 762.987 1044.15 747.285 985.371 725.409C937.637 707.639 886.59 690.405 832.698 677.216C779.858 664.219 724.191 654.21 665.428 648.386C643.966 646.268 621.939 644.767 599.931 643.934C561.642 642.452 522.215 642.766 484.706 645.12C415.49 649.38 354.088 659.493 289.901 649.301C258.169 644.225 229.401 633.517 205.742 619.868C161.26 594.209 135.075 560.358 111.606 525.452C100.623 509.102 90.1008 492.584 78.5456 476.583C42.3334 426.458 -15.5322 376.585 -100.73 365.474" stroke="#FF3FCB" stroke-miterlimit="10"/>
<path d="M1587.98 883.799C1505.24 859.368 1407.58 835.53 1322.94 818.314C1258.6 805.224 1203.95 794.598 1155.51 779.467C1153.87 778.958 1152.25 778.448 1150.63 777.924C1104.08 763.096 1058.89 745.054 1002.04 722.631C955.324 704.205 904.532 687.279 850.574 674.596C797.714 662.101 741.777 652.84 683.129 647.481C661.714 645.536 639.802 644.149 617.93 643.361C579.914 641.969 540.8 642.129 503.431 643.968C434.429 647.281 372.397 655.302 309.017 644.483C277.666 639.102 249.176 628.524 225.541 615.037C180.043 589.086 153.306 554.679 129.332 519.202C118.109 502.592 107.369 485.799 95.5507 469.553C58.5006 418.644 -1.1616 367.99 -89.3314 357.772" stroke="#FF3FCB" stroke-miterlimit="10"/>
<path d="M1588.32 892.541C1505.2 869.94 1410.18 846.334 1327.96 827.238C1265.45 812.71 1212.21 799.606 1165.61 782.1C1164.03 781.507 1162.46 780.913 1160.9 780.317C1116.17 763.183 1073.66 742.798 1018.71 719.855C973.021 700.772 922.507 684.166 868.434 671.979C815.531 659.987 759.324 651.486 700.815 646.576C679.423 644.792 657.626 643.532 635.913 642.788C598.171 641.486 559.393 641.491 522.14 642.815C453.33 645.169 390.691 651.098 328.12 639.664C297.173 633.976 268.96 623.528 245.325 610.193C198.811 583.947 171.522 548.986 147.019 512.939C135.556 496.068 124.575 479.001 112.493 462.51C74.6047 410.802 13.1452 359.381 -78.0216 350.071" stroke="#FF3FCB" stroke-miterlimit="10"/>
<path d="M1588.66 901.303C1505.17 880.516 1412.77 857.169 1332.98 836.179C1272.32 820.211 1220.5 804.629 1175.71 784.75C1174.2 784.084 1172.69 783.405 1171.19 782.726C1128.27 763.299 1088.45 740.556 1035.4 717.081C990.747 697.325 940.466 681.055 886.326 669.359C833.402 657.869 776.923 650.115 718.554 645.667C697.209 644.055 675.503 642.911 653.926 642.211C616.457 640.986 577.992 640.85 540.857 641.647C472.238 643.042 408.969 646.895 347.23 634.844C316.664 628.85 288.729 618.532 265.141 605.356C217.587 578.819 189.768 543.3 164.76 506.68C153.056 489.549 141.858 472.207 129.513 455.47C90.7618 402.978 27.5264 350.761 -66.6157 342.357" stroke="#FF3FCB" stroke-miterlimit="10"/>
<path d="M1588.99 910.071C1505.12 891.111 1415.36 867.994 1337.99 845.123C1279.17 827.717 1228.77 809.669 1185.79 787.403C1184.35 786.652 1182.88 785.904 1181.47 785.138C1140.37 763.416 1103.25 738.315 1052.1 714.319C1008.55 693.886 958.452 677.956 904.244 666.751C851.3 655.761 794.526 648.755 736.296 644.769C714.973 643.317 693.406 642.298 671.965 641.644C634.769 640.508 596.618 640.218 559.623 640.499C491.196 640.948 427.321 642.709 366.391 630.03C336.206 623.729 308.572 613.54 284.984 600.514C236.414 573.695 208.065 537.606 182.504 500.417C170.559 483.025 159.144 465.42 146.534 448.424C106.944 395.132 41.9325 342.144 -55.233 334.65" stroke="#FF3FCB" stroke-miterlimit="10"/>
<path d="M1589.32 918.833C1505.06 901.7 1417.95 878.825 1343.01 854.058C1286.05 835.224 1237.06 814.685 1195.9 790.045C1194.5 789.211 1193.13 788.375 1191.75 787.54C1152.45 763.526 1118.09 736.049 1068.8 711.534C1026.31 690.413 976.425 674.832 922.149 664.118C869.16 653.63 812.138 647.381 754.024 643.846C732.747 642.552 711.271 641.648 689.99 641.05C653.068 640.004 615.254 639.571 578.376 639.324C510.14 638.814 445.66 638.498 385.539 625.202C355.736 618.596 328.38 608.535 304.815 595.658C255.204 568.546 226.324 531.898 200.257 494.136C188.071 476.483 176.438 458.603 163.542 441.363C123.111 387.283 56.2997 333.513 -43.8681 326.913" stroke="#FF3FCB" stroke-miterlimit="10"/>
<path d="M1589.66 927.615C1505.01 912.293 1420.54 889.66 1348.03 862.997C1292.9 842.724 1245.33 819.719 1206.01 792.689C1204.68 791.783 1203.37 790.863 1202.04 789.944C1164.56 763.622 1132.94 733.782 1085.5 708.763C1044.13 686.949 994.404 671.722 940.036 661.499C887.026 651.511 829.709 646.01 771.757 642.934C750.527 641.812 729.166 641.021 707.997 640.47C671.349 639.513 633.848 638.925 597.111 638.149C529.091 636.691 463.981 634.286 404.67 620.361C375.249 613.448 348.17 603.516 324.629 590.799C273.977 563.421 244.566 526.202 217.969 487.854C205.542 469.927 193.691 451.783 180.531 434.297C139.26 379.417 70.6469 324.877 -32.5011 319.183" stroke="#FF3FCB" stroke-miterlimit="10"/>
<path d="M1589.98 936.387C1504.94 922.891 1423.12 900.498 1353.06 871.937C1299.78 850.223 1253.64 824.738 1216.12 795.334C1214.85 794.344 1213.59 793.353 1212.35 792.348C1176.69 763.73 1147.85 731.513 1102.23 705.977C1061.99 683.468 1012.41 668.595 957.973 658.862C904.942 649.374 847.353 644.631 789.516 642.004C768.309 641.043 747.063 640.378 726.054 639.87C689.678 638.988 652.492 638.26 615.896 636.967C548.068 634.55 482.353 630.067 423.875 615.51C394.835 608.291 368.012 598.516 344.516 585.918C292.707 558.322 262.881 520.468 235.753 481.548C223.085 463.36 210.993 444.942 197.591 427.208C155.456 371.54 85.0641 316.202 -21.089 311.416" stroke="#FF3FCB" stroke-miterlimit="10"/>
<path d="M-9.74241 303.688C99.4175 307.568 171.613 363.676 214.589 420.146C257.566 476.616 286.905 540.086 364.342 581.067C460.642 632.03 607.804 636.295 744.071 639.286C880.337 642.277 1027.82 649.099 1118.91 703.196C1162.77 729.246 1188.8 763.831 1222.62 794.745C1305.02 870.024 1437.72 924.31 1590.29 945.169" stroke="#FF3FCB" stroke-miterlimit="10"/>
<path d="M1562.54 485.34C1471.61 430.613 1307.78 432.44 1178.19 489.652C1079.66 533.133 1008.43 600.511 932.011 661.653C855.593 722.795 760.22 783.828 653.114 798.319C584.687 807.568 521.553 796.194 463.963 781.67C406.372 767.147 350.678 749.243 286.149 744.985C221.621 740.728 144.441 752.769 89.7517 788.397C26.1379 829.847 -2.79383 898.585 -81.5615 919.333C-120.132 929.487 -159.114 923.408 -186.453 909.912C-213.792 896.415 -231.59 876.329 -248.919 856.594C-282.599 818.274 -316.278 779.954 -349.94 741.613" stroke="#1549FE" stroke-miterlimit="10"/>
<path d="M1565.36 494.437C1474.61 441.654 1313.43 443.219 1185.62 497.978C1088.47 539.602 1017.89 604.14 942.535 662.475C939.984 664.449 937.429 666.411 934.83 668.385C860.855 724.668 770.149 779.42 668.419 792.259C600.771 800.784 538.013 789.533 480.515 775.526C423.065 761.52 367.347 744.448 303.099 740.619C279.863 739.238 255.035 739.925 230.241 743.006C186.432 748.444 142.603 761.353 107.66 783.543C43.9657 823.954 13.8549 890.654 -64.3035 910.589C-102.59 920.35 -141.14 914.271 -168.504 900.997C-196.789 887.296 -215.36 866.868 -233.388 846.654C-241.91 837.09 -250.415 827.507 -258.959 817.95C-285.454 788.347 -312.866 758.935 -340.911 731.461" stroke="#1549FE" stroke-miterlimit="10"/>
<path d="M1568.18 503.532C1477.62 452.705 1319.07 453.993 1193.07 506.315C1097.28 546.104 1027.34 607.792 953.064 663.315C950.553 665.189 948.021 667.069 945.484 668.936C872.595 722.497 783.74 774.528 683.75 786.205C616.858 794.011 554.497 782.878 497.091 769.387C439.782 755.898 384.015 739.649 320.052 736.261C296.917 735.046 272.238 735.824 247.572 738.927C204.062 744.399 160.499 757.081 125.545 778.691C61.7747 818.077 30.4811 882.729 -47.0418 901.858C-85.0211 911.219 -123.189 905.14 -150.569 892.115C-179.799 878.209 -199.17 857.434 -217.849 836.74C-226.681 826.947 -235.47 817.142 -244.359 807.395C-271.89 777.15 -301.251 747.299 -331.891 721.356" stroke="#1549FE" stroke-miterlimit="10"/>
<path d="M1571 512.613C1480.62 463.74 1324.69 464.744 1200.51 514.639C1106.1 552.574 1036.81 611.442 963.567 664.142C961.096 665.915 958.604 667.695 956.09 669.481C884.287 720.321 797.26 769.641 699.036 780.162C632.923 787.245 570.937 776.236 513.629 763.273C456.459 750.3 400.665 734.868 336.964 731.927C313.926 730.863 289.378 731.752 264.884 734.865C221.669 740.356 178.398 752.818 143.416 773.869C79.5877 812.212 47.0725 874.845 -29.8191 893.155C-67.5134 902.123 -105.272 896.05 -132.678 883.247C-162.848 869.15 -183.023 848.015 -202.374 826.848C-211.513 816.84 -220.612 806.805 -229.803 796.856C-258.387 765.988 -289.652 735.687 -322.894 711.246" stroke="#1549FE" stroke-miterlimit="10"/>
<path d="M1573.8 521.668C1483.61 474.746 1330.32 475.473 1207.93 522.936C1114.89 559.024 1046.25 615.062 974.085 664.955C971.659 666.642 969.185 668.327 966.712 670.012C895.973 718.141 810.793 764.732 714.334 774.099C648.975 780.452 587.39 769.572 530.152 757.131C473.101 744.68 417.282 730.076 353.884 727.556C330.92 726.649 306.548 727.637 282.204 730.766C239.288 736.29 196.288 748.539 161.29 768.998C97.3868 806.318 63.6858 866.893 -12.5919 884.406C-50.0012 892.981 -87.3732 886.92 -114.782 874.333C-145.914 860.051 -166.871 838.549 -186.895 816.911C-196.339 806.687 -205.726 796.417 -215.241 786.272C-244.86 754.762 -278.069 724.037 -313.909 701.111" stroke="#1549FE" stroke-miterlimit="10"/>
<path d="M1576.61 530.722C1486.6 485.736 1335.94 486.185 1215.36 531.231C1123.7 565.469 1055.71 618.692 984.606 665.775C982.199 667.367 979.791 668.959 977.358 670.544C907.702 715.943 824.346 759.814 729.662 768.055C665.077 773.671 603.871 762.928 546.725 751.001C489.815 739.064 433.968 725.275 370.833 723.201C347.97 722.459 323.725 723.544 299.552 726.683C256.936 732.239 214.223 744.256 179.197 764.156C115.215 800.441 80.3373 858.989 4.6736 875.704C-32.4506 883.887 -69.4357 877.838 -96.8433 865.48C-128.937 851.013 -150.677 829.145 -171.351 807.029C-181.101 796.59 -190.776 786.084 -200.636 775.75C-231.286 743.613 -266.442 712.45 -304.885 691.025" stroke="#1549FE" stroke-miterlimit="10"/>
<path d="M1579.27 539.56C1489.45 496.546 1341.44 496.726 1222.67 539.317C1132.37 571.702 1065.05 622.073 994.99 666.352C992.623 667.843 990.234 669.34 987.845 670.837C919.279 713.508 837.749 754.633 744.864 761.731C681.032 766.605 620.238 756.014 563.19 744.608C506.426 733.195 450.535 720.235 387.689 718.604C364.924 718.015 340.831 719.191 316.792 722.366C274.474 727.94 232.035 739.742 196.983 759.077C132.924 794.316 96.8699 850.814 21.8214 866.716C-15.015 874.505 -51.6096 868.473 -78.9953 856.331C-112.047 841.688 -134.565 819.466 -155.907 796.89C-165.961 786.241 -175.923 775.506 -186.105 764.982C-217.784 732.22 -254.883 700.638 -295.893 680.743" stroke="#1549FE" stroke-miterlimit="10"/>
<path d="M1581.91 548.383C1492.29 507.337 1346.93 507.234 1229.97 547.401C1141.04 577.936 1074.37 625.467 1005.39 666.933C1003.07 668.337 1000.72 669.733 998.374 671.13C930.9 711.076 851.19 749.447 760.092 755.436C697.018 759.583 636.631 749.129 579.66 738.25C523.019 727.364 467.132 715.233 404.572 714.03C381.888 713.613 357.946 714.881 334.081 718.066C292.065 723.672 249.896 735.244 214.835 753.996C150.706 788.204 113.472 842.643 39.0429 857.745C2.49024 865.128 -33.7053 859.14 -61.091 847.219C-95.1006 832.401 -118.396 809.825 -140.385 786.784C-150.747 775.912 -161.009 764.981 -171.494 754.247C-204.199 720.877 -243.238 688.875 -286.845 670.488" stroke="#1549FE" stroke-miterlimit="10"/>
<path d="M1584.55 557.183C1495.12 518.085 1352.42 517.724 1237.26 555.458C1149.72 584.14 1083.71 628.852 1015.79 667.504C1013.51 668.807 1011.18 670.122 1008.88 671.418C942.494 708.646 864.606 744.268 775.289 749.135C712.965 752.529 652.993 742.239 596.12 731.878C539.625 721.512 483.714 710.199 421.423 709.443C398.837 709.178 375.05 710.55 351.341 713.764C309.628 719.402 267.749 730.739 232.663 748.93C168.481 782.089 130.051 834.495 56.2378 848.787C19.9731 855.777 -15.85 849.824 -43.2182 838.104C-78.207 823.117 -102.254 800.193 -124.915 776.68C-135.581 765.598 -146.129 754.438 -156.958 743.521C-190.714 709.534 -231.667 677.119 -277.866 660.25" stroke="#1549FE" stroke-miterlimit="10"/>
<path d="M1587.2 565.985C1497.95 528.843 1357.88 528.202 1244.55 563.515C1158.38 590.355 1093.02 632.238 1026.17 668.096C1023.91 669.304 1021.65 670.513 1019.36 671.728C954.065 706.23 878 739.108 790.472 742.882C728.901 745.537 669.341 735.395 612.564 725.551C556.215 715.703 500.263 705.226 438.257 704.896C415.774 704.796 392.116 706.265 368.559 709.495C327.148 715.164 285.538 726.273 250.448 743.897C186.197 776.03 146.589 826.388 73.3921 839.87C37.4154 846.469 1.9648 840.551 -25.3862 829.031C-61.354 813.873 -86.1571 790.589 -109.464 766.61C-120.434 755.319 -131.268 743.93 -142.419 732.822C-177.199 698.225 -220.093 665.39 -268.866 650.017" stroke="#1549FE" stroke-miterlimit="10"/>
<path d="M1589.84 574.763C1500.78 539.572 1363.35 538.658 1251.84 571.547C1167.05 596.54 1102.35 635.615 1036.57 668.669C1034.35 669.791 1032.13 670.9 1029.88 672.015C965.679 703.808 891.427 733.92 805.688 736.602C744.867 738.505 685.721 728.524 629.042 719.196C572.815 709.869 516.862 700.2 455.145 700.31C432.738 700.366 409.257 701.932 385.851 705.178C344.738 710.865 303.407 721.774 268.305 738.805C203.979 769.901 163.201 818.23 90.6234 830.917C54.9566 837.118 19.8344 831.247 -7.47348 819.933C-44.4158 804.619 -69.9572 780.954 -93.9537 756.522C-105.228 745.021 -116.348 733.402 -127.82 722.105C-163.629 686.883 -208.462 653.628 -259.823 639.78" stroke="#1549FE" stroke-miterlimit="10"/>
<path d="M1592.48 583.545C1503.62 550.288 1368.83 549.1 1259.13 579.568C1175.71 602.737 1111.66 638.982 1046.97 669.245C1044.79 670.267 1042.58 671.282 1040.38 672.31C977.274 701.4 904.836 728.75 820.89 730.354C760.818 731.506 702.082 721.671 645.482 712.877C589.4 704.065 533.401 695.215 471.973 695.761C449.664 695.968 426.317 697.645 403.084 700.899C362.295 706.611 321.233 717.293 286.106 733.766C221.712 763.841 179.754 810.118 107.796 822.012C72.4176 827.822 37.6675 821.985 10.3983 810.862C-27.5184 795.391 -53.8197 771.351 -78.4839 746.459C-90.0617 734.749 -101.468 722.901 -113.284 711.419C-150.117 675.587 -196.889 641.911 -250.845 629.559" stroke="#1549FE" stroke-miterlimit="10"/>
<path d="M1595.12 592.306C1506.47 560.997 1374.31 559.527 1266.41 587.592C1184.39 608.921 1120.99 642.366 1057.34 669.842C1055.18 670.77 1053.04 671.692 1050.86 672.627C988.847 699.018 918.219 723.597 836.065 724.124C776.738 724.512 718.421 714.85 661.917 706.568C605.979 698.27 549.96 690.244 488.795 691.219C466.588 691.589 443.387 693.342 420.288 696.632C379.801 702.375 339.008 712.83 303.857 728.746C239.389 757.788 196.262 802.046 124.92 813.133C89.8295 818.553 55.4334 812.769 28.1985 801.824C-10.7142 786.201 -37.7533 761.78 -63.0633 736.423C-74.9449 724.502 -86.6594 712.431 -98.7742 700.753C-136.658 664.303 -185.343 630.212 -241.868 619.361" stroke="#1549FE" stroke-miterlimit="10"/>
<path d="M1597.77 601.069C1509.3 571.686 1379.79 569.952 1273.69 595.591C1193.04 615.088 1130.3 645.726 1067.74 670.419C1065.62 671.261 1063.5 672.09 1061.38 672.918C1000.46 696.6 931.637 718.413 851.283 717.891C792.723 717.51 734.802 708.025 678.394 700.254C622.578 692.474 566.535 685.257 505.68 686.662C483.549 687.188 460.503 689.044 437.578 692.343C397.388 698.103 356.869 708.345 321.711 723.686C257.196 751.704 212.875 793.939 142.153 804.234C107.35 809.265 73.3035 803.52 46.1112 792.778C6.20278 777.004 -21.5739 752.202 -47.5514 726.384C-59.7409 714.24 -71.7332 701.967 -84.1734 690.085C-123.081 653.024 -173.704 618.511 -232.824 609.151" stroke="#1549FE" stroke-miterlimit="10"/>
<path d="M1600.41 609.812C1512.13 582.363 1385.26 580.34 1280.97 603.581C1201.71 621.243 1139.62 649.078 1078.13 670.999C1076.05 671.741 1073.98 672.47 1071.88 673.205C1012.04 694.196 945.051 713.226 866.471 711.648C808.651 710.491 751.151 701.19 694.818 693.936C639.146 686.668 583.078 680.258 522.49 682.104C500.461 682.792 477.566 684.738 454.791 688.052C414.904 693.843 374.676 703.853 339.493 718.638C274.906 745.628 229.418 785.851 159.311 795.341C124.796 799.983 91.1029 794.29 63.9448 783.724C23.0409 767.799 -5.47338 742.615 -32.0964 716.331C-44.6113 703.984 -56.8678 691.474 -69.6511 679.408C-109.587 641.723 -162.148 606.788 -223.853 598.944" stroke="#1549FE" stroke-miterlimit="10"/>
<path d="M1603.05 618.56C1514.96 593.028 1390.73 590.741 1288.28 611.569C1210.38 627.404 1148.97 652.446 1088.52 671.592C1086.49 672.235 1084.43 672.884 1082.37 673.519C1023.63 691.823 958.444 708.066 881.668 705.454C824.588 703.522 767.51 694.405 711.272 687.66C655.744 680.901 599.656 675.311 539.329 677.583C517.398 678.421 494.636 680.476 472.035 683.799C432.449 689.62 392.49 699.404 357.3 713.616C292.642 739.579 245.987 777.793 176.499 786.493C142.268 790.733 108.911 785.112 81.8131 774.728C39.8964 758.671 10.6665 733.098 -16.628 706.342C-29.4464 693.784 -41.9889 681.045 -55.0933 668.789C-96.0523 630.492 -150.529 595.128 -214.828 588.771" stroke="#1549FE" stroke-miterlimit="10"/>
<path d="M1605.7 627.299C1517.79 603.694 1396.2 601.117 1295.56 619.554C1219.05 633.558 1158.28 655.811 1098.92 672.186C1096.91 672.735 1094.92 673.292 1092.9 673.828C1035.23 689.454 971.879 702.889 896.884 699.249C840.561 696.523 783.887 687.608 727.746 681.371C672.339 675.127 616.226 670.342 556.183 673.034C534.328 674.026 511.742 676.178 489.27 679.522C449.982 685.361 410.3 694.947 375.104 708.586C310.378 733.536 262.553 769.731 193.703 777.623C159.76 781.474 126.756 775.905 99.7137 765.69C56.8019 749.48 26.8348 723.526 -1.12249 696.323C-14.2444 683.555 -27.0946 670.593 -40.4983 658.14C-82.4848 619.218 -138.894 583.445 -205.781 578.587" stroke="#1549FE" stroke-miterlimit="10"/>
<path d="M1608.34 636.018C1520.64 614.332 1401.65 611.489 1302.84 627.519C1227.69 639.7 1167.6 659.168 1109.31 672.768C1107.34 673.231 1105.36 673.682 1103.39 674.132C1046.81 687.064 985.299 697.693 912.071 693.06C856.506 689.54 800.235 680.827 744.189 675.097C688.926 669.361 632.792 665.392 573.033 668.503C551.279 669.658 528.818 671.891 506.523 675.258C467.536 681.127 428.146 690.481 392.926 703.568C328.128 727.495 279.138 761.688 210.903 768.778C177.269 772.235 144.576 766.729 117.589 756.682C73.6647 740.34 42.9781 713.984 14.3758 686.315C0.950411 673.337 -12.1856 660.145 -25.9321 647.508C-68.9634 607.981 -127.287 571.779 -196.767 568.403" stroke="#1549FE" stroke-miterlimit="10"/>
<path d="M1610.98 644.743C1523.47 624.978 1407.12 621.844 1310.11 635.474C1236.35 645.829 1176.9 662.514 1119.67 673.342C1117.74 673.707 1115.81 674.071 1113.85 674.429C1058.37 684.683 998.674 692.502 927.231 686.857C872.419 682.531 816.556 674.032 760.588 668.828C705.468 663.599 649.286 660.439 589.815 663.981C568.159 665.284 545.852 667.62 523.709 671.002C485.023 676.901 445.902 686.031 410.675 698.547C345.833 721.458 295.648 753.632 228.037 759.947C194.691 763.017 162.328 757.568 135.401 747.703C90.4691 731.241 59.0591 704.469 29.79 676.34C16.0571 663.139 2.63951 649.731 -11.4279 636.903C-55.4862 596.751 -115.746 560.126 -187.786 558.252" stroke="#1549FE" stroke-miterlimit="10"/>
<path d="M1613.63 653.448C1526.3 635.588 1412.59 632.189 1317.39 643.423C1245 651.972 1186.22 665.852 1130.06 673.925C1128.17 674.191 1126.26 674.476 1124.37 674.728C1069.98 682.308 1012.13 687.295 942.439 680.676C888.401 675.539 832.924 667.259 777.051 662.561C722.053 657.845 665.868 655.479 606.662 659.459C585.086 660.93 562.93 663.354 540.937 666.751C502.552 672.681 463.701 681.586 428.45 693.551C363.536 715.442 312.188 745.619 245.192 751.134C212.134 753.817 180.103 748.425 153.231 738.726C107.265 722.138 75.1797 694.952 45.2441 666.363C31.2079 652.952 17.5046 639.314 3.11631 626.296C-41.9646 585.531 -104.159 548.483 -178.791 548.09" stroke="#1549FE" stroke-miterlimit="10"/>
<path d="M1616.27 662.159C1529.11 646.221 1418.05 642.524 1324.64 651.383C1253.64 658.11 1195.5 669.227 1140.42 674.528C1138.56 674.714 1136.71 674.881 1134.84 675.054C1081.54 679.961 1025.53 682.111 957.601 674.515C904.312 668.559 849.246 660.506 793.468 656.312C738.613 652.101 682.385 650.556 623.483 654.946C602.005 656.565 580.004 659.091 558.162 662.503C520.074 668.45 481.518 677.138 446.243 688.553C381.263 709.438 328.748 737.608 262.371 742.337C229.6 744.633 197.904 739.311 171.084 729.766C124.089 713.063 91.302 685.456 60.7 656.407C46.3607 642.786 32.376 628.932 17.641 615.716C-28.4621 574.339 -92.5913 536.868 -169.809 537.966" stroke="#1549FE" stroke-miterlimit="10"/>
<path d="M1618.91 670.85C1531.95 656.819 1423.52 652.849 1331.93 659.311C1262.29 664.222 1204.83 672.553 1150.81 675.111C1148.98 675.199 1147.15 675.286 1145.35 675.354C1093.14 677.579 1038.98 676.902 972.803 668.348C920.302 661.548 865.608 653.747 809.904 650.063C755.191 646.357 698.937 645.61 640.301 650.437C618.924 652.217 597.051 654.837 575.387 658.272C537.6 664.249 499.313 672.713 464.032 683.56C398.981 703.425 345.304 729.605 279.542 733.535C247.059 735.445 215.694 730.179 188.955 720.807C140.931 703.991 107.443 675.962 76.1968 646.447C61.5543 632.616 47.2622 618.538 32.2241 605.112C-14.9269 563.117 -80.964 525.229 -160.75 527.797" stroke="#1549FE" stroke-miterlimit="10"/>
<path d="M1621.56 679.549C1534.78 667.415 1428.98 663.179 1339.2 667.251C1270.95 670.343 1214.13 675.917 1161.19 675.709C1159.41 675.697 1157.62 675.686 1155.84 675.674C1104.72 675.233 1052.43 671.699 987.983 662.194C936.251 654.57 881.947 647.001 826.337 643.82C771.745 640.624 715.488 640.669 657.117 645.931C635.816 647.865 614.119 650.581 592.584 654.037C555.098 660.044 517.084 668.298 481.798 678.577C416.68 697.439 361.838 721.616 296.69 724.748C264.495 726.272 233.465 721.075 206.776 711.856C157.725 694.926 123.54 666.489 91.6232 636.5C76.6777 622.459 62.1001 608.152 46.7197 594.541C-1.45307 551.934 -69.4278 513.609 -151.794 517.679" stroke="#1549FE" stroke-miterlimit="10"/>
<path d="M1624.2 688.228C1537.61 678.003 1434.44 673.474 1346.47 675.159C1279.59 676.439 1223.44 679.233 1171.57 676.28C1169.83 676.184 1168.06 676.08 1166.32 675.969C1116.3 672.864 1065.87 666.475 1003.16 656.033C952.23 647.547 898.279 640.248 842.765 637.57C788.316 634.877 732.015 635.739 673.949 641.41C652.745 643.492 631.177 646.302 609.818 649.78C572.651 655.798 534.91 663.842 499.596 673.559C434.408 691.405 378.405 713.596 313.876 715.944C281.964 717.068 251.273 711.955 224.636 702.887C174.556 685.843 139.67 656.985 107.088 626.536C91.8353 612.271 76.9765 597.749 61.2756 583.947C12.0773 540.714 -57.8262 501.979 -142.781 507.523" stroke="#1549FE" stroke-miterlimit="10"/>
<path d="M1626.85 696.914C1540.44 688.595 1439.89 683.793 1353.74 683.087C1288.24 682.55 1232.76 682.586 1181.93 676.884C1180.21 676.695 1178.51 676.5 1176.8 676.291C1127.88 670.524 1079.33 661.263 1018.33 649.89C968.208 640.543 914.607 633.501 859.192 631.337C804.885 629.147 748.558 630.806 690.757 636.911C669.655 639.153 648.236 642.052 627.029 645.545C590.163 651.593 552.69 659.413 517.375 668.577C452.143 685.415 394.954 705.615 331.04 707.167C299.415 707.905 269.037 702.867 242.476 693.959C191.351 676.82 155.783 647.521 122.556 616.605C107.001 602.131 91.8569 587.378 75.8356 573.386C25.6162 529.541 -46.2194 490.382 -133.74 497.392" stroke="#1549FE" stroke-miterlimit="10"/>
<path d="M1629.49 705.582C1543.27 699.167 1445.35 694.072 1361.01 690.995C1296.87 688.65 1242.05 685.917 1192.31 677.47C1190.63 677.182 1188.95 676.894 1187.29 676.6C1139.45 668.16 1092.8 656.024 1033.5 643.754C984.186 633.545 930.96 626.766 875.596 625.117C821.41 623.435 765.062 625.902 707.543 632.423C686.516 634.818 665.252 637.818 644.217 641.319C607.652 647.398 570.47 654.989 535.131 663.606C469.83 679.43 411.477 697.635 348.181 698.404C316.866 698.751 286.8 693.787 260.291 685.031C208.12 667.797 171.869 638.057 137.977 606.682C122.119 591.997 106.668 577.021 90.3265 562.838C39.0821 518.368 -34.681 478.797 -124.784 487.292" stroke="#1549FE" stroke-miterlimit="10"/>
<path d="M1632.14 714.256C1546.12 709.724 1450.81 704.369 1368.28 698.911C1305.53 694.752 1251.36 689.252 1202.69 678.068C1201.05 677.695 1199.41 677.309 1197.77 676.923C1151.03 665.825 1106.3 650.796 1048.67 637.622C1000.18 626.534 947.288 620.043 892.019 618.894C837.975 617.714 781.601 620.976 724.37 627.924C703.444 630.479 682.308 633.574 661.424 637.09C625.155 643.185 588.246 650.567 552.88 658.624C487.509 673.436 427.975 689.667 365.32 689.647C334.292 689.61 304.539 684.721 278.128 676.116C224.891 658.794 187.979 628.606 153.444 596.765C137.283 581.87 121.547 566.665 104.885 552.291C52.5985 507.215 -23.0781 467.201 -115.741 477.173" stroke="#1549FE" stroke-miterlimit="10"/>
<path d="M1634.78 722.925C1548.95 720.294 1456.27 714.645 1375.54 706.821C1314.16 700.855 1260.65 692.605 1213.05 678.672C1211.45 678.201 1209.83 677.736 1208.25 677.245C1162.6 663.492 1119.8 645.573 1063.87 631.502C1016.23 619.522 963.637 613.332 908.463 612.683C854.561 612.004 798.139 616.066 741.194 623.441C720.344 626.149 699.384 629.339 678.65 632.87C642.682 638.995 606.042 646.154 570.675 653.66C505.238 667.473 444.542 681.713 382.5 680.898C351.76 680.476 322.341 675.656 295.981 667.202C241.704 649.798 204.127 619.15 168.906 586.855C152.442 571.75 136.425 556.328 119.439 541.75C66.1281 496.049 -11.4529 455.618 -106.719 467.078" stroke="#1549FE" stroke-miterlimit="10"/>
<path d="M1637.43 731.576C1551.78 730.844 1461.73 724.914 1382.81 714.712C1322.81 706.95 1269.96 695.923 1223.42 679.258C1221.84 678.695 1220.29 678.125 1218.73 677.556C1174.15 661.156 1133.31 640.322 1079.03 625.368C1032.24 612.489 979.956 606.606 924.877 606.457C871.095 606.285 814.673 611.147 757.989 618.942C737.236 621.797 716.404 625.08 695.847 628.633C660.179 634.789 623.834 641.733 588.439 648.68C522.933 661.482 461.079 673.745 399.656 672.15C369.203 671.343 340.096 666.597 313.809 658.288C258.466 640.795 220.229 609.7 184.364 576.938C167.598 561.623 151.296 545.972 133.968 531.21C79.6377 484.897 0.126724 444.041 -97.7234 456.97" stroke="#1549FE" stroke-miterlimit="10"/>
<path d="M1640.08 740.235C1554.6 741.386 1467.19 735.176 1390.07 722.598C1331.44 713.032 1279.24 699.259 1233.79 679.843C1232.26 679.195 1230.75 678.527 1229.21 677.866C1185.72 658.801 1146.84 635.069 1094.19 619.251C1048.28 605.461 996.276 599.898 941.269 600.255C887.629 600.582 831.16 606.243 774.783 614.458C754.132 617.473 733.45 620.844 713.022 624.418C677.655 630.603 641.578 637.325 606.178 643.708C540.628 655.507 477.591 665.789 416.782 663.4C386.616 662.21 357.822 657.538 331.611 649.386C275.211 631.831 236.31 600.275 199.776 567.04C182.704 551.502 166.121 535.634 148.474 520.681C93.1192 473.743 11.6833 432.476 -88.7245 446.879" stroke="#1549FE" stroke-miterlimit="10"/>
<path d="M1642.72 748.875C1557.43 751.921 1472.65 745.432 1397.35 730.473C1340.08 719.104 1288.57 702.567 1244.16 680.428C1242.67 679.682 1241.18 678.936 1239.7 678.17C1197.31 656.456 1160.41 629.807 1109.37 613.119C1064.36 598.413 1012.61 593.175 957.696 594.03C904.198 594.857 847.707 601.323 791.591 609.957C771.015 613.124 750.487 616.597 730.231 620.18C695.16 626.382 659.356 632.895 623.955 638.727C558.336 649.517 494.142 657.827 433.969 654.638C404.09 653.064 375.595 648.499 349.47 640.459C291.916 622.911 252.444 590.811 215.246 557.116C197.871 541.368 180.982 525.277 163.036 510.127C106.641 462.583 23.2941 420.872 -79.6923 436.754" stroke="#1549FE" stroke-miterlimit="10"/>
<path d="M-70.7137 426.693C34.8507 409.333 120.121 451.455 177.54 499.625C234.958 547.794 281.348 605.625 367.268 631.583C474.117 663.862 616.153 639.494 747.398 615.97C878.642 592.446 1021.73 570.574 1124.5 607.005C1173.97 624.55 1208.87 654.106 1250.15 678.474C1350.71 737.802 1493.35 766.325 1645.34 757.518" stroke="#1549FE" stroke-miterlimit="10"/>
<path d="M1579.67 694.649C1505.83 625.642 1345.12 595.36 1202.63 623.626C1094.3 645.103 1006.09 694.289 914.523 736.622C822.953 778.955 712.878 817.483 604.151 810.137C534.691 805.436 476.088 782.455 423.773 757.607C371.458 732.76 321.929 705.117 260.001 688.529C198.073 671.941 119.285 668.144 55.9916 690.828C-17.6325 717.221 -64.8591 775.94 -147.599 779.987C-188.113 781.964 -224.557 768.659 -247.574 750.681C-270.59 732.703 -282.46 710.417 -293.969 688.552C-316.347 646.09 -338.725 603.628 -361.08 561.151" stroke="#1549FE" stroke-miterlimit="10"/>
<path d="M1579.98 703.462C1505.78 636.327 1347.71 606.337 1207.62 632.671C1101.13 652.689 1014.31 699.348 924.532 739.266C921.493 740.618 918.453 741.956 915.368 743.297C827.504 781.564 723.701 815.132 620.67 807.302C552.16 802.083 493.884 779.3 441.512 754.963C389.187 730.636 339.402 703.776 277.623 687.653C255.279 681.825 230.808 677.623 205.71 675.669C161.366 672.213 114.942 675.747 74.6508 689.706C1.21778 715.117 -46.618 771.698 -128.552 775.113C-168.687 776.781 -204.714 763.565 -227.816 745.796C-251.701 727.446 -264.233 704.694 -276.291 682.246C-281.99 671.628 -287.665 660.994 -293.387 650.378C-311.138 617.487 -329.84 584.596 -349.694 553.397" stroke="#1549FE" stroke-miterlimit="10"/>
<path d="M1580.29 712.277C1505.72 647.023 1350.29 617.31 1212.61 641.729C1107.94 660.305 1022.51 704.427 934.542 741.932C931.57 743.197 928.574 744.464 925.577 745.717C839.506 781.654 738.24 813.045 637.215 804.478C569.633 798.743 511.706 776.156 459.278 752.329C406.943 728.521 356.878 702.431 295.248 686.784C272.954 681.134 248.6 677.05 223.618 675.145C179.55 671.783 133.441 675.162 93.2893 688.581C20.0482 713.024 -28.3968 767.458 -109.502 770.251C-149.233 771.61 -184.889 758.474 -208.078 740.938C-232.831 722.217 -246.048 698.986 -258.609 675.967C-264.547 665.074 -270.438 654.179 -276.445 643.319C-295.03 609.629 -315.514 575.952 -338.326 545.685" stroke="#1549FE" stroke-miterlimit="10"/>
<path d="M1580.59 721.081C1505.67 657.705 1352.85 628.256 1217.59 650.772C1114.77 667.893 1030.73 709.509 944.531 744.579C941.625 745.758 938.695 746.938 935.743 748.121C851.465 781.73 752.713 810.949 653.719 801.657C587.087 795.404 529.487 773.015 477.003 749.709C424.658 726.42 374.336 701.096 312.831 685.928C290.587 680.441 266.328 676.49 241.506 674.631C197.715 671.35 151.943 674.586 111.91 687.478C38.8832 710.94 -10.2165 763.248 -90.4922 765.407C-129.843 766.458 -165.105 753.412 -188.381 736.084C-214.003 717.004 -227.905 693.283 -240.992 669.692C-247.169 658.54 -253.3 647.371 -259.544 636.264C-278.985 601.79 -301.206 567.325 -326.979 537.962" stroke="#1549FE" stroke-miterlimit="10"/>
<path d="M1580.89 729.859C1505.61 668.359 1355.43 639.183 1222.58 659.787C1121.57 675.455 1038.93 714.555 954.539 747.217C951.699 748.323 948.813 749.419 945.927 750.515C863.42 781.801 767.206 808.835 670.243 798.819C604.539 792.037 547.289 769.856 494.724 747.059C442.346 724.289 391.767 699.743 330.434 685.036C308.216 679.714 284.097 675.892 259.414 674.081C215.899 670.894 170.443 673.988 130.549 686.328C57.7146 708.825 8.00587 758.979 -71.4631 760.52C-110.434 761.263 -145.324 748.309 -168.664 731.185C-195.178 711.749 -209.742 687.535 -223.355 663.375C-229.771 651.962 -236.118 640.518 -242.625 629.166C-262.899 593.894 -286.902 558.657 -315.635 530.211" stroke="#1549FE" stroke-miterlimit="10"/>
<path d="M1581.19 738.642C1505.55 679 1358 650.097 1227.55 668.804C1128.39 683.02 1047.15 719.619 964.548 749.864C961.752 750.886 958.956 751.908 956.137 752.918C875.423 781.868 781.726 806.72 686.795 796.007C622.042 788.694 565.119 766.722 512.497 744.431C460.108 722.177 409.271 698.396 348.063 684.165C325.895 679.02 301.871 675.317 277.349 673.551C234.11 670.458 188.992 673.396 149.215 685.211C76.5733 706.732 26.2569 754.762 -52.4051 755.685C-90.9954 756.121 -125.515 743.258 -148.918 726.353C-176.324 706.56 -191.551 681.853 -205.667 657.122C-212.321 645.449 -218.885 633.729 -225.676 622.134C-246.783 586.078 -272.57 550.057 -304.265 522.513" stroke="#1549FE" stroke-miterlimit="10"/>
<path d="M1581.6 747.253C1505.59 689.516 1360.67 660.913 1232.61 677.702C1135.26 690.471 1055.42 724.549 974.579 752.389C971.849 753.325 969.096 754.262 966.343 755.2C887.413 781.824 796.22 804.483 703.335 793.071C639.504 785.226 582.929 763.491 530.246 741.721C477.842 719.998 426.722 696.998 365.658 683.253C343.537 678.276 319.628 674.694 295.219 672.994C252.252 669.986 207.443 672.786 167.779 684.077C95.3183 704.619 44.3832 750.511 -33.4806 750.811C-71.6946 750.943 -105.845 738.181 -129.289 721.488C-157.588 701.352 -173.476 676.167 -188.116 650.879C-195.009 638.953 -201.788 626.965 -208.84 615.131C-230.778 578.297 -258.347 541.513 -292.981 514.912" stroke="#1549FE" stroke-miterlimit="10"/>
<path d="M1582.01 755.872C1505.64 700.033 1363.34 671.712 1237.68 686.614C1142.13 697.94 1063.67 729.505 984.639 754.941C981.976 755.805 979.289 756.656 976.602 757.508C899.457 781.813 810.769 802.267 719.908 790.186C657 781.823 600.77 760.308 548.003 739.059C495.562 717.867 444.203 695.655 383.281 682.381C361.186 677.586 337.391 674.124 313.14 672.473C270.446 669.564 225.946 672.213 186.416 682.965C114.138 702.545 62.5838 746.293 -14.4815 745.984C-52.3195 745.8 -86.0999 733.164 -109.609 716.684C-138.801 696.204 -155.351 670.54 -170.491 644.695C-177.623 632.502 -184.64 620.273 -191.93 608.186C-214.699 570.587 -244.051 533.04 -281.65 507.355" stroke="#1549FE" stroke-miterlimit="10"/>
<path d="M1582.42 764.484C1505.68 710.521 1366.01 682.505 1242.73 695.509C1149.03 705.391 1071.95 734.462 994.701 757.489C992.104 758.266 989.46 759.047 986.839 759.813C911.481 781.803 825.301 800.057 736.465 787.292C674.479 778.382 618.596 757.113 565.767 736.379C513.311 715.713 461.69 694.274 400.887 681.484C378.839 676.855 355.16 673.526 331.045 671.938C288.622 669.127 244.455 671.623 205.038 681.853C132.965 700.459 80.7708 742.086 4.50442 741.154C-32.957 740.667 -66.3914 728.143 -89.943 711.859C-120.051 691.037 -137.239 664.904 -152.905 638.487C-160.275 626.04 -167.507 613.543 -175.082 601.218C-198.706 562.84 -229.817 524.54 -270.383 499.781" stroke="#1549FE" stroke-miterlimit="10"/>
<path d="M1582.82 773.117C1505.71 721.036 1368.64 693.294 1247.79 704.413C1155.89 712.856 1080.21 739.424 1004.74 760.059C1002.19 760.753 999.633 761.447 997.056 762.142C923.487 781.808 839.816 797.865 753.008 784.441C691.944 774.998 636.408 753.958 583.517 733.737C531.045 713.593 479.139 692.939 418.478 680.616C396.477 676.165 372.889 672.957 348.91 671.418C306.759 668.705 262.902 671.048 223.62 680.757C151.731 698.406 98.9205 737.902 23.4537 736.348C-13.6307 735.558 -46.7188 723.146 -70.3132 707.055C-101.339 685.889 -119.165 659.273 -135.332 632.296C-142.94 619.594 -150.388 606.827 -158.224 594.262C-182.68 555.116 -215.575 516.05 -259.087 492.199" stroke="#1549FE" stroke-miterlimit="10"/>
<path d="M1583.21 781.744C1505.73 731.537 1371.29 704.077 1252.84 713.303C1162.78 720.305 1088.48 744.389 1014.8 762.622C1012.32 763.244 1009.83 763.852 1007.32 764.462C935.541 781.82 854.381 795.657 769.602 781.572C709.461 771.582 654.272 750.781 601.318 731.071C548.808 711.449 496.66 691.559 436.141 679.715C414.164 675.43 390.715 672.352 366.871 670.862C324.992 668.231 281.446 670.451 242.3 679.612C170.595 696.292 117.169 733.677 42.5028 731.513C5.81881 730.419 -26.9694 718.12 -50.5831 702.233C-82.5257 680.735 -100.968 653.62 -117.684 626.085C-125.531 613.128 -133.194 600.09 -141.292 587.285C-166.58 547.356 -201.26 507.521 -247.742 484.605" stroke="#1549FE" stroke-miterlimit="10"/>
<path d="M1583.61 790.393C1505.76 742.041 1373.94 714.859 1257.89 722.192C1169.64 727.77 1096.74 749.346 1024.87 765.192C1022.45 765.729 1020.01 766.253 1017.57 766.791C947.58 781.845 868.934 793.464 786.185 778.731C726.968 768.192 672.125 747.616 619.085 728.428C566.558 709.324 514.124 690.201 453.746 678.832C431.816 674.711 408.459 671.766 384.773 670.323C343.19 667.786 299.954 669.854 260.922 678.497C189.402 694.224 135.361 729.475 61.4959 726.703C25.1895 725.305 -7.2524 713.114 -30.886 697.417C-63.7461 675.586 -82.8288 647.972 -100.069 619.877C-108.155 606.664 -116.034 593.355 -124.416 580.311C-150.537 539.61 -187.002 499.007 -236.458 476.996" stroke="#1549FE" stroke-miterlimit="10"/>
<path d="M1583.99 799.036C1505.79 752.559 1376.58 725.64 1262.93 731.094C1176.53 735.234 1105.02 754.332 1034.92 767.784C1032.54 768.237 1030.19 768.688 1027.79 769.142C959.598 781.894 883.467 791.283 802.748 775.9C744.456 764.799 689.959 744.472 636.856 725.79C584.313 707.202 531.614 688.854 471.354 677.948C449.471 674.003 426.228 671.163 402.656 669.782C361.345 667.341 318.419 669.257 279.5 677.382C208.165 692.145 153.512 725.293 80.4484 721.898C44.52 720.197 12.4014 708.128 -11.2528 692.606C-45.054 670.443 -64.7536 642.328 -82.496 613.669C-90.8203 600.199 -98.9388 586.621 -107.56 573.334C-134.536 531.849 -172.765 490.487 -225.172 469.392" stroke="#1549FE" stroke-miterlimit="10"/>
<path d="M1584.37 807.7C1505.8 763.068 1379.22 736.433 1267.97 739.982C1183.39 742.686 1113.27 759.296 1044.99 770.366C1042.68 770.747 1040.37 771.114 1038.06 771.482C971.666 781.92 898.053 789.081 819.367 773.074C762.022 761.408 707.849 741.331 654.682 723.153C602.099 705.08 549.134 687.491 489.039 677.057C467.18 673.276 444.052 670.566 420.638 669.232C379.599 666.871 336.984 668.649 298.203 676.242C227.077 690.053 171.788 721.091 99.5272 717.086C63.9769 715.082 32.1812 703.122 8.50701 687.799C-26.2359 665.304 -46.5525 636.686 -64.8205 607.464C-73.384 593.725 -81.718 579.902 -90.6009 566.36C-118.411 524.1 -158.427 481.966 -213.81 461.774" stroke="#1549FE" stroke-miterlimit="10"/>
<path d="M1584.75 816.359C1505.8 773.581 1381.85 747.201 1273.01 748.873C1190.27 750.139 1121.55 764.262 1055.06 772.954C1052.82 773.25 1050.58 773.532 1048.31 773.816C983.715 781.956 912.644 786.874 835.968 770.231C779.548 757.988 725.722 738.169 672.467 720.495C619.867 702.935 566.636 686.104 506.659 676.143C484.847 672.538 461.834 669.945 438.555 668.658C397.789 666.391 355.508 668.015 316.841 675.092C245.902 687.94 190.002 716.883 118.543 712.255C83.3713 709.947 51.8992 698.107 28.204 682.957C-7.48095 660.128 -28.4151 631.007 -47.1857 601.221C-56.0114 587.226 -64.5383 573.129 -73.7063 559.346C-102.35 516.297 -144.154 473.392 -202.515 454.128" stroke="#1549FE" stroke-miterlimit="10"/>
<path d="M1585.12 825.04C1505.79 784.099 1384.48 757.997 1278.06 757.777C1197.15 757.608 1129.85 769.258 1065.14 775.561C1062.96 775.772 1060.76 775.984 1058.56 776.183C995.767 782.026 927.217 784.691 852.576 767.434C797.081 754.614 743.602 735.053 690.283 717.88C637.665 700.83 584.169 684.769 524.308 675.267C502.543 671.823 479.622 669.361 456.502 668.12C416.009 665.947 374.039 667.419 335.51 673.965C264.758 685.851 208.246 712.702 137.591 707.463C102.798 704.838 71.6263 693.132 47.9336 678.165C11.2833 655.018 -10.2455 625.391 -29.5425 595.027C-38.6074 580.774 -47.3505 566.405 -56.7805 552.38C-86.258 508.554 -129.828 464.873 -191.17 446.51" stroke="#1549FE" stroke-miterlimit="10"/>
<path d="M1585.49 833.729C1505.79 794.635 1387.11 768.781 1283.1 766.685C1204.03 765.079 1138.11 774.248 1075.22 778.173C1073.09 778.3 1070.98 778.439 1068.84 778.553C1007.83 782.102 941.845 782.498 869.218 764.629C814.671 751.215 761.516 731.925 708.133 715.252C655.473 698.713 601.71 683.407 541.99 674.36C520.248 671.08 497.465 668.745 474.458 667.553C434.236 665.459 392.578 666.806 354.187 672.821C283.623 683.759 226.501 708.507 156.673 702.642C122.259 699.714 91.4107 688.126 67.7198 673.329C30.1265 649.847 7.97951 619.715 -11.8434 588.799C-21.1475 574.289 -30.1301 559.648 -39.7992 545.379C-70.1114 500.762 -115.471 456.32 -179.794 438.869" stroke="#1549FE" stroke-miterlimit="10"/>
<path d="M1585.85 842.411C1505.79 805.16 1389.7 779.57 1288.12 775.581C1210.88 772.54 1146.38 779.239 1085.3 780.776C1083.23 780.831 1081.16 780.873 1079.1 780.916C1019.88 782.156 956.473 780.284 885.837 761.829C832.239 747.821 779.408 728.802 725.959 712.626C673.281 696.596 619.251 682.057 559.671 673.465C537.977 670.359 515.284 668.128 492.437 666.994C452.488 664.993 411.164 666.186 372.889 671.686C302.513 681.664 244.781 704.323 175.758 697.834C141.745 694.6 111.174 683.134 87.4851 668.504C48.9255 644.702 26.1829 614.05 5.8566 582.566C-3.68689 567.798 -12.8859 552.884 -22.8405 538.373C-54.0106 492.979 -101.138 447.761 -168.445 431.208" stroke="#1549FE" stroke-miterlimit="10"/>
<path d="M1586.22 851.116C1505.78 815.706 1392.32 790.36 1293.15 784.481C1217.76 780.002 1154.64 784.223 1095.36 783.372C1093.36 783.342 1091.36 783.313 1089.34 783.272C1031.93 782.218 971.065 778.066 902.444 759.009C849.796 744.393 797.289 725.656 743.752 709.993C691.056 694.47 636.734 680.685 577.295 672.561C555.647 669.615 533.069 667.513 510.358 666.425C470.681 664.516 429.67 665.556 391.533 670.527C321.368 679.556 263.004 700.105 194.786 693.017C161.153 689.479 130.883 678.132 107.195 663.683C67.6692 639.573 44.3303 608.386 23.4772 576.337C13.6939 561.296 4.27865 546.122 -5.93831 531.368C-37.944 485.18 -86.8627 439.186 -157.131 423.556" stroke="#1549FE" stroke-miterlimit="10"/>
<path d="M1586.58 859.814C1505.76 826.23 1394.93 801.153 1298.18 793.383C1224.61 787.482 1162.92 789.208 1105.44 785.983C1103.51 785.869 1101.55 785.769 1099.62 785.642C1044.02 782.294 985.754 775.846 919.103 756.216C867.428 740.99 815.222 722.536 761.619 707.369C708.881 692.354 654.314 679.319 594.992 671.662C573.367 668.892 550.905 666.905 528.329 665.863C488.925 664.046 448.225 664.934 410.204 669.389C340.229 677.459 281.257 695.924 213.843 688.211C180.59 684.368 150.62 673.139 126.934 658.856C86.4176 634.427 62.5289 602.715 41.1487 570.099C31.1257 554.8 21.4937 539.352 11.0142 524.353C-21.8271 477.385 -72.538 430.614 -145.794 415.881" stroke="#1549FE" stroke-miterlimit="10"/>
<path d="M1586.93 868.534C1505.71 836.789 1397.54 811.95 1303.18 802.305C1231.46 794.966 1171.16 794.227 1115.51 788.614C1113.62 788.43 1111.75 788.231 1109.86 788.033C1056.07 782.392 1000.38 773.636 935.724 753.431C884.998 737.582 833.117 719.421 779.448 704.75C726.69 690.24 671.832 677.97 612.672 670.764C591.094 668.154 568.747 666.295 546.307 665.299C507.176 663.56 466.812 664.307 428.907 668.248C359.121 675.371 299.54 691.74 232.933 683.414C200.06 679.267 170.39 668.169 146.705 654.039C105.198 629.304 80.7356 597.054 58.8281 563.87C48.5654 548.312 38.7171 532.603 27.9513 517.349C-5.72613 469.599 -58.2303 422.051 -134.475 408.227" stroke="#1549FE" stroke-miterlimit="10"/>
<path d="M1587.28 877.247C1505.7 847.335 1400.14 822.749 1308.23 811.211C1238.34 802.436 1179.46 799.218 1125.59 791.233C1123.77 790.964 1121.95 790.694 1120.15 790.41C1068.17 782.462 1015.08 771.41 952.393 750.644C902.665 734.155 851.061 716.304 797.303 702.129C744.526 688.123 689.398 676.603 630.355 669.864C608.824 667.426 586.568 665.684 564.287 664.746C525.43 663.098 485.377 663.691 447.612 667.103C378.016 673.267 317.827 687.554 252.026 678.602C219.534 674.15 190.164 663.169 166.504 649.217C124.006 624.174 98.9691 591.387 76.5571 557.632C66.0546 541.815 55.9661 525.833 44.9602 510.32C10.4228 461.776 -43.8518 413.461 -123.064 400.532" stroke="#1549FE" stroke-miterlimit="10"/>
<path d="M1587.63 885.982C1505.66 857.889 1402.75 833.567 1313.25 820.137C1245.21 809.924 1187.72 804.242 1135.68 793.869C1133.93 793.515 1132.18 793.161 1130.42 792.807C1080.25 782.566 1029.78 769.189 969.05 747.861C920.295 730.748 868.993 713.19 815.168 699.509C762.348 686.008 706.974 675.236 648.048 668.963C626.54 666.686 604.422 665.069 582.254 664.179C543.669 662.622 503.93 663.075 466.303 665.957C396.898 671.176 336.102 683.369 271.108 673.79C238.995 669.034 209.926 658.182 186.267 644.382C142.777 619.031 117.166 585.719 94.2261 551.382C83.4836 535.305 73.178 519.049 61.886 503.293C26.5116 453.966 -29.5584 404.858 -111.762 392.851" stroke="#1549FE" stroke-miterlimit="10"/>
<path d="M1587.98 894.71C1505.62 868.449 1405.35 844.362 1318.27 829.04C1252.06 817.39 1196.01 809.228 1145.78 796.482C1144.09 796.057 1142.38 795.619 1140.69 795.18C1092.33 782.646 1044.49 766.944 985.712 745.068C937.978 727.299 886.931 710.064 833.039 696.876C780.199 683.878 724.532 673.869 665.768 668.045C644.307 665.928 622.28 664.427 600.272 663.593C561.983 662.112 522.556 662.425 485.046 664.78C415.831 669.04 354.429 679.152 290.242 668.96C258.509 663.885 229.742 653.176 206.083 639.527C161.6 613.869 135.415 580.017 111.947 545.111C100.964 528.761 90.4416 512.243 78.8864 496.242C42.6742 446.118 -15.1913 396.244 -100.389 385.133" stroke="#1549FE" stroke-miterlimit="10"/>
<path d="M1588.32 903.458C1505.58 879.028 1407.92 855.189 1323.29 837.973C1258.94 824.883 1204.29 814.257 1155.85 799.127C1154.21 798.618 1152.59 798.107 1150.97 797.583C1104.42 782.756 1059.23 764.713 1002.38 742.29C955.665 723.864 904.873 706.938 850.914 694.256C798.055 681.761 742.117 672.499 683.47 667.14C662.055 665.195 640.143 663.808 618.27 663.02C580.255 661.629 541.141 661.789 503.771 663.627C434.77 666.94 372.738 674.961 309.358 664.142C278.007 658.761 249.517 648.183 225.881 634.697C180.384 608.745 153.647 574.339 129.673 538.862C118.45 522.251 107.71 505.458 95.8915 489.212C58.8414 438.303 -0.820781 387.649 -88.9906 377.431" stroke="#1549FE" stroke-miterlimit="10"/>
<path d="M1588.66 912.2C1505.54 889.599 1410.52 865.993 1328.3 846.897C1265.79 832.37 1212.55 819.265 1165.95 801.76C1164.37 801.166 1162.8 800.572 1161.25 799.976C1116.51 782.842 1074 762.457 1019.05 739.514C973.361 720.431 922.848 703.825 868.775 691.638C815.872 679.646 759.664 671.145 701.156 666.235C679.764 664.451 657.967 663.191 636.254 662.447C598.511 661.146 559.734 661.15 522.481 662.474C453.671 664.828 391.032 670.758 328.461 659.324C297.513 653.635 269.301 643.187 245.666 629.852C199.152 603.607 171.863 568.645 147.36 532.598C135.896 515.727 124.916 498.661 112.834 482.169C74.9456 430.461 13.486 379.04 -77.6807 369.73" stroke="#1549FE" stroke-miterlimit="10"/>
<path d="M1589 920.962C1505.51 900.175 1413.11 876.828 1333.32 855.838C1272.66 839.871 1220.84 824.288 1176.05 804.409C1174.54 803.743 1173.04 803.065 1171.53 802.386C1128.61 782.958 1088.8 760.215 1035.74 736.74C991.088 716.984 940.807 700.714 886.667 689.019C833.743 677.528 777.264 669.774 718.895 665.326C697.549 663.714 675.844 662.57 654.267 661.87C616.797 660.646 578.333 660.509 541.198 661.306C472.578 662.701 409.31 666.554 347.571 654.503C317.005 648.509 289.07 638.191 265.482 625.015C217.928 598.478 190.109 562.959 165.101 526.34C153.397 509.208 142.199 491.866 129.853 475.129C91.1026 422.637 27.8673 370.42 -66.2748 362.016" stroke="#1549FE" stroke-miterlimit="10"/>
<path d="M1589.33 929.73C1505.46 910.77 1415.7 887.654 1338.34 864.782C1279.51 847.376 1229.11 829.329 1186.13 807.062C1184.69 806.312 1183.23 805.563 1181.81 804.797C1140.71 783.075 1103.59 757.974 1052.44 733.978C1008.89 713.545 958.793 697.615 904.585 686.41C851.64 675.42 794.867 668.414 736.637 664.428C715.314 662.977 693.747 661.957 672.306 661.303C635.11 660.167 596.959 659.877 559.964 660.158C491.537 660.607 427.662 662.368 366.732 649.689C336.547 643.389 308.913 633.199 285.325 620.173C236.755 593.355 208.406 557.265 182.845 520.076C170.9 502.684 159.485 485.079 146.875 468.083C107.285 414.791 42.2734 361.803 -54.8922 354.309" stroke="#1549FE" stroke-miterlimit="10"/>
<path d="M1589.67 938.492C1505.4 921.359 1418.29 898.484 1343.35 873.717C1286.39 854.884 1237.4 834.345 1196.24 809.704C1194.84 808.87 1193.47 808.035 1192.09 807.199C1152.79 783.185 1118.43 755.708 1069.14 731.193C1026.65 710.072 976.765 694.491 922.49 683.777C869.501 673.289 812.479 667.04 754.365 663.505C733.088 662.211 711.612 661.307 690.331 660.709C653.409 659.663 615.594 659.23 578.717 658.983C510.481 658.473 446.001 658.157 385.88 644.862C356.077 638.255 328.721 628.195 305.156 615.317C255.544 588.205 226.665 551.558 200.598 513.795C188.412 496.142 176.779 478.262 163.882 461.022C123.452 406.942 56.6405 353.172 -43.5272 346.572" stroke="#1549FE" stroke-miterlimit="10"/>
<path d="M1590 947.274C1505.35 931.952 1420.88 909.319 1348.37 882.656C1293.25 862.383 1245.67 839.378 1206.35 812.348C1205.02 811.443 1203.71 810.522 1202.38 809.603C1164.9 783.281 1133.29 753.441 1085.84 728.422C1044.47 706.608 994.744 691.381 940.377 681.158C887.367 671.171 830.05 665.669 772.098 662.593C750.868 661.471 729.507 660.68 708.338 660.129C671.69 659.172 634.189 658.585 597.452 657.808C529.432 656.35 464.322 653.945 405.011 640.02C375.59 633.107 348.511 623.175 324.97 610.459C274.317 583.08 244.907 545.861 218.31 507.513C205.883 489.586 194.032 471.443 180.871 453.957C139.6 399.076 70.9877 344.536 -32.1603 338.842" stroke="#1549FE" stroke-miterlimit="10"/>
<path d="M1590.32 956.046C1505.29 942.55 1423.46 920.157 1353.4 891.596C1300.12 869.882 1253.98 844.397 1216.46 814.994C1215.2 814.003 1213.93 813.013 1212.7 812.007C1177.03 783.39 1148.19 751.172 1102.57 725.636C1062.33 703.127 1012.75 688.254 958.314 678.521C905.283 669.033 847.694 664.29 789.857 661.664C768.65 660.702 747.403 660.037 726.394 659.529C690.019 658.647 652.832 657.919 616.236 656.626C548.409 654.209 482.694 649.726 424.215 635.169C395.176 627.95 368.353 618.175 344.857 605.578C293.048 577.981 263.222 540.127 236.094 501.208C223.426 483.019 211.334 464.601 197.932 446.867C155.797 391.199 85.405 335.861 -20.7482 331.075" stroke="#1549FE" stroke-miterlimit="10"/>
<path d="M-9.40159 323.348C99.7583 327.227 171.953 383.336 214.93 439.805C257.907 496.275 287.246 559.745 364.683 600.726C460.983 651.689 608.145 655.954 744.411 658.945C880.678 661.936 1028.16 668.758 1119.26 722.855C1163.11 748.905 1189.15 783.49 1222.96 814.405C1305.36 889.683 1438.06 943.969 1590.63 964.828" stroke="#1549FE" stroke-miterlimit="10"/>
<path d="M122.341 578.423V497.579C130.59 492.945 137.297 488.685 142.905 484.337H101.095C106.703 488.685 113.41 492.945 121.659 497.579V578.423L91.7348 588H121.829H122.171H152.265L122.341 578.423Z" fill="#FF3FCB"/>
<path d="M121.488 457.46C150.475 457.46 169.998 446.157 169.998 446.157M169.998 446.157C169.998 446.157 171.106 444 121.488 444M169.998 446.157C163.2 463.397 156.09 474.113 142.905 484.337M152.265 588L122.341 578.423V497.579C130.59 492.945 137.297 488.685 142.905 484.337M152.265 588H121.829M152.265 588H122.171M121.829 588H91.7348M121.829 588H122.171M122.512 457.46C93.5252 457.46 74.002 446.157 74.002 446.157M74.002 446.157C74.002 446.157 72.8937 444 122.512 444M74.002 446.157C80.7998 463.397 87.9105 474.113 101.095 484.337M91.7348 588L121.659 578.423V497.579C113.41 492.945 106.703 488.685 101.095 484.337M91.7348 588H122.171M142.905 484.337H101.095" stroke="#FF3FCB" stroke-width="5"/>
<path d="M411.341 650.423V569.579C419.59 564.945 426.297 560.685 431.905 556.337H390.095C395.703 560.685 402.41 564.945 410.659 569.579V650.423L380.735 660H410.829H411.171H441.265L411.341 650.423Z" fill="#FF3FCB"/>
<path d="M410.488 529.46C439.475 529.46 458.998 518.157 458.998 518.157M458.998 518.157C458.998 518.157 460.106 516 410.488 516M458.998 518.157C452.2 535.397 445.09 546.113 431.905 556.337M441.265 660L411.341 650.423V569.579C419.59 564.945 426.297 560.685 431.905 556.337M441.265 660H410.829M441.265 660H411.171M410.829 660H380.735M410.829 660H411.171M411.512 529.46C382.525 529.46 363.002 518.157 363.002 518.157M363.002 518.157C363.002 518.157 361.894 516 411.512 516M363.002 518.157C369.8 535.397 376.91 546.113 390.095 556.337M380.735 660L410.659 650.423V569.579C402.41 564.945 395.703 560.685 390.095 556.337M380.735 660H411.171M431.905 556.337H390.095" stroke="#FF3FCB" stroke-width="5"/>
<path d="M677.341 578.423V497.579C685.59 492.945 692.297 488.685 697.905 484.337H656.095C661.703 488.685 668.41 492.945 676.659 497.579V578.423L646.735 588H676.829H677.171H707.265L677.341 578.423Z" fill="#FF3FCB"/>
<path d="M676.488 457.46C705.475 457.46 724.998 446.157 724.998 446.157M724.998 446.157C724.998 446.157 726.106 444 676.488 444M724.998 446.157C718.2 463.397 711.09 474.113 697.905 484.337M707.265 588L677.341 578.423V497.579C685.59 492.945 692.297 488.685 697.905 484.337M707.265 588H676.829M707.265 588H677.171M676.829 588H646.735M676.829 588H677.171M677.512 457.46C648.525 457.46 629.002 446.157 629.002 446.157M629.002 446.157C629.002 446.157 627.894 444 677.512 444M629.002 446.157C635.8 463.397 642.91 474.113 656.095 484.337M646.735 588L676.659 578.423V497.579C668.41 492.945 661.703 488.685 656.095 484.337M646.735 588H677.171M697.905 484.337H656.095" stroke="#FF3FCB" stroke-width="5"/>
<path d="M956.341 662.423V581.579C964.59 576.945 971.297 572.685 976.905 568.337H935.095C940.703 572.685 947.41 576.945 955.659 581.579V662.423L925.735 672H955.829H956.171H986.265L956.341 662.423Z" fill="#FF3FCB"/>
<path d="M955.488 541.46C984.475 541.46 1004 530.157 1004 530.157M1004 530.157C1004 530.157 1005.11 528 955.488 528M1004 530.157C997.2 547.397 990.09 558.113 976.905 568.337M986.265 672L956.341 662.423V581.579C964.59 576.945 971.297 572.685 976.905 568.337M986.265 672H955.829M986.265 672H956.171M955.829 672H925.735M955.829 672H956.171M956.512 541.46C927.525 541.46 908.002 530.157 908.002 530.157M908.002 530.157C908.002 530.157 906.894 528 956.512 528M908.002 530.157C914.8 547.397 921.91 558.113 935.095 568.337M925.735 672L955.659 662.423V581.579C947.41 576.945 940.703 572.685 935.095 568.337M925.735 672H956.171M976.905 568.337H935.095" stroke="#FF3FCB" stroke-width="5"/>
<path d="M1375.34 698.423V617.579C1383.59 612.945 1390.3 608.685 1395.91 604.337H1354.09C1359.7 608.685 1366.41 612.945 1374.66 617.579V698.423L1344.73 708H1374.83H1375.17H1405.27L1375.34 698.423Z" fill="#FF3FCB"/>
<path d="M1374.49 577.46C1403.47 577.46 1423 566.157 1423 566.157M1423 566.157C1423 566.157 1424.11 564 1374.49 564M1423 566.157C1416.2 583.397 1409.09 594.113 1395.91 604.337M1405.27 708L1375.34 698.423V617.579C1383.59 612.945 1390.3 608.685 1395.91 604.337M1405.27 708H1374.83M1405.27 708H1375.17M1374.83 708H1344.73M1374.83 708H1375.17M1375.51 577.46C1346.53 577.46 1327 566.157 1327 566.157M1327 566.157C1327 566.157 1325.89 564 1375.51 564M1327 566.157C1333.8 583.397 1340.91 594.113 1354.09 604.337M1344.73 708L1374.66 698.423V617.579C1366.41 612.945 1359.7 608.685 1354.09 604.337M1344.73 708H1375.17M1395.91 604.337H1354.09" stroke="#FF3FCB" stroke-width="5"/>
</g>
<defs>
<clipPath id="clip0_253_110">
<rect width="1500" height="1236" fill="white"/>
</clipPath>
</defs>
</svg>
