<svg width="1705" height="763" viewBox="0 0 1705 763" fill="none" xmlns="http://www.w3.org/2000/svg">
<g clip-path="url(#clip0_253_110)">
<path d="M1785.51 540.647C1699.99 447.156 1517.75 400.682 1357.96 431.644C1236.47 455.166 1138.58 515.824 1036.67 567.367C934.763 618.909 811.862 664.685 688.992 650.449C610.497 641.345 543.653 608.766 483.842 574.01C424.03 539.255 367.27 500.957 296.885 476.607C226.5 452.258 137.512 443.941 66.8611 470.956C-15.3219 502.389 -66.6826 577.27 -159.872 579.057C-205.504 579.925 -247.04 560.956 -273.583 536.439C-300.126 511.922 -314.237 482.237 -327.928 453.119C-354.545 396.57 -381.163 340.021 -407.755 283.453" stroke="#FF3FCB" stroke-miterlimit="10"/>
<path d="M1786.19 552.435C1700.32 461.629 1521.09 415.778 1363.96 444.237C1244.52 465.869 1148.12 523.122 1048.17 571.447C1044.79 573.083 1041.4 574.702 1037.96 576.323C940.12 622.573 824.146 662.013 707.699 647.428C630.267 637.713 563.806 605.498 503.953 571.502C444.153 537.522 387.135 500.341 316.94 476.672C291.553 468.117 263.818 461.594 235.451 457.98C185.329 451.59 133.09 454.24 88.1046 470.763C6.11594 500.836 -45.9927 572.696 -138.283 573.687C-183.491 574.167 -224.549 555.385 -251.181 531.204C-278.713 506.232 -293.585 475.992 -307.913 446.169C-314.684 432.063 -321.43 417.937 -328.228 403.832C-349.316 360.132 -371.475 316.392 -394.879 274.811" stroke="#FF3FCB" stroke-miterlimit="10"/>
<path d="M1786.86 564.13C1700.66 476.004 1524.42 430.75 1369.96 456.741C1252.54 476.516 1157.64 530.373 1059.67 575.503C1056.36 577.025 1053.02 578.549 1049.68 580.054C953.796 623.223 840.627 659.832 726.432 644.413C650.038 634.092 583.985 602.234 524.091 568.991C464.303 535.778 407 499.688 336.996 476.711C311.673 468.413 284.079 462.066 255.846 458.532C206.045 452.294 154.161 454.749 109.322 470.529C27.5293 499.271 -25.3276 568.118 -116.692 568.333C-161.449 568.426 -202.083 549.814 -228.801 526C-257.323 500.574 -272.982 469.763 -287.895 439.255C-294.945 424.819 -301.942 410.381 -309.068 395.985C-331.121 351.326 -355.314 306.605 -382.022 266.225" stroke="#FF3FCB" stroke-miterlimit="10"/>
<path d="M1787.53 575.725C1700.99 490.256 1527.73 445.576 1375.96 469.132C1260.59 487.044 1167.19 537.564 1071.14 579.489C1067.9 580.898 1064.64 582.308 1061.35 583.719C967.421 623.828 857.032 657.627 745.116 641.393C669.787 630.469 604.115 598.965 544.18 566.485C484.404 534.034 426.842 499.024 357.004 476.735C331.745 468.673 304.264 462.52 276.218 459.062C226.737 452.958 175.236 455.235 130.519 470.297C48.9469 497.7 -4.7089 563.576 -95.1478 563.003C-139.481 562.713 -179.663 544.284 -206.47 520.798C-235.98 494.938 -252.427 463.542 -267.95 432.351C-275.277 417.605 -282.553 402.84 -289.956 388.15C-312.998 342.556 -339.174 296.855 -369.188 257.632" stroke="#FF3FCB" stroke-miterlimit="10"/>
<path d="M1788.18 587.202C1701.31 504.37 1531.05 460.274 1381.95 481.395C1268.59 497.457 1176.7 544.645 1082.63 583.419C1079.47 584.733 1076.25 586.032 1073.03 587.331C981.037 624.402 873.453 655.389 763.816 638.347C689.524 626.805 624.262 595.668 564.26 563.929C504.469 532.233 446.649 498.313 377.026 476.687C351.806 468.861 324.491 462.898 296.606 459.516C247.446 453.562 196.302 455.664 151.73 469.977C70.3546 496.068 15.9507 558.958 -73.5876 557.621C-117.497 556.95 -157.252 538.704 -184.122 515.542C-214.646 489.25 -231.855 457.269 -247.989 425.398C-255.593 410.344 -263.122 395.251 -270.827 380.272C-294.832 333.726 -323.041 287.071 -356.36 249.013" stroke="#FF3FCB" stroke-miterlimit="10"/>
<path d="M1788.84 598.597C1701.62 518.363 1534.37 474.844 1387.94 493.562C1276.63 507.785 1186.24 551.682 1094.12 587.31C1091 588.514 1087.89 589.718 1084.74 590.905C994.705 624.939 889.901 653.136 782.545 635.322C709.317 623.164 644.437 592.391 584.394 561.385C524.614 530.438 466.535 497.581 397.078 476.632C371.922 469.056 344.721 463.266 317.022 459.959C268.183 454.154 217.421 456.063 172.971 469.668C91.7912 494.44 36.642 554.401 -51.9956 552.304C-95.4802 551.254 -134.81 533.188 -161.742 510.364C-193.28 483.642 -211.25 451.078 -227.968 418.529C-235.85 403.167 -243.63 387.748 -251.664 372.481C-276.633 325.005 -306.875 277.38 -343.5 240.461" stroke="#FF3FCB" stroke-miterlimit="10"/>
<path d="M1789.32 608.495C1701.78 531.101 1537.53 488.299 1393.78 504.561C1284.49 516.931 1195.63 557.426 1105.44 589.858C1102.39 590.948 1099.32 592.039 1096.25 593.13C1008.17 624.08 906.149 649.42 801.103 630.886C728.916 618.146 664.45 587.848 604.37 557.667C544.606 527.559 486.247 495.862 416.984 475.651C391.894 468.332 364.833 462.732 337.271 459.531C288.754 453.878 238.35 455.614 194.021 468.482C113.038 491.881 57.1395 548.768 -30.5954 545.916C-73.6544 544.497 -112.556 526.668 -139.521 504.231C-172.069 477.165 -190.797 444.123 -208.122 411.002C-216.279 395.381 -224.31 379.686 -232.644 364.178C-258.571 315.907 -290.841 267.467 -330.74 231.826" stroke="#FF3FCB" stroke-miterlimit="10"/>
<path d="M1789.79 618.266C1701.92 543.667 1540.68 501.55 1399.6 515.42C1292.33 525.96 1204.97 563.1 1116.77 592.376C1113.79 593.371 1110.8 594.349 1107.8 595.328C1021.68 623.234 922.438 645.737 819.681 626.523C748.535 613.222 684.483 583.371 624.34 554.003C564.566 524.721 505.979 494.179 436.91 474.679C411.861 467.63 384.941 462.217 357.566 459.101C309.372 453.615 259.326 455.163 215.145 467.286C134.359 489.349 77.7123 543.189 -9.11828 539.607C-51.752 537.807 -90.2224 520.243 -117.248 498.186C-150.805 470.778 -170.291 437.258 -188.195 403.565C-196.629 387.67 -204.934 371.735 -213.544 355.969C-240.427 306.923 -274.724 257.671 -317.924 223.255" stroke="#FF3FCB" stroke-miterlimit="10"/>
<path d="M1790.25 628.003C1702.04 556.123 1543.82 514.699 1405.41 526.19C1300.19 534.922 1214.34 568.774 1128.09 594.922C1125.19 595.806 1122.24 596.692 1119.31 597.559C1035.16 622.465 938.7 642.168 838.23 622.257C768.124 608.361 704.488 578.975 644.308 550.397C584.55 521.921 525.708 492.494 456.808 473.706C431.824 466.903 405.045 461.69 377.833 458.676C329.962 453.351 280.301 454.712 236.242 466.121C155.68 486.852 98.2618 537.717 12.3353 533.394C-29.872 531.233 -67.939 513.909 -94.9988 492.202C-129.592 464.445 -149.808 430.457 -168.318 396.171C-177.027 380.016 -185.583 363.802 -194.519 347.795C-222.385 297.948 -258.682 247.892 -305.182 214.692" stroke="#FF3FCB" stroke-miterlimit="10"/>
<path d="M1790.7 637.739C1702.17 568.542 1546.93 527.755 1411.22 536.909C1308.03 543.854 1223.68 574.445 1139.39 597.523C1136.54 598.298 1133.69 599.073 1130.81 599.849C1048.62 621.775 954.938 638.712 856.756 618.137C787.692 603.664 724.47 574.712 664.253 546.906C604.511 519.216 545.389 490.901 476.683 472.793C451.765 466.249 425.101 461.216 398.051 458.283C350.503 453.117 301.2 454.294 257.29 464.998C176.928 484.435 118.765 532.355 33.743 527.296C-8.03772 524.777 -45.7009 507.684 -72.7956 486.315C-108.424 458.205 -129.371 423.726 -148.461 388.857C-157.445 372.439 -166.25 355.945 -175.487 339.692C-204.309 289.053 -242.631 238.169 -292.407 206.145" stroke="#FF3FCB" stroke-miterlimit="10"/>
<path d="M1791.15 647.442C1702.28 580.881 1550.05 540.726 1417.02 547.551C1315.88 552.726 1233.04 580.114 1150.71 600.139C1147.93 600.823 1145.15 601.49 1142.35 602.158C1062.12 621.155 971.226 635.323 875.333 614.083C807.31 599.016 744.504 570.5 684.249 543.45C624.497 516.532 565.145 489.289 496.634 471.866C471.755 465.559 445.259 460.718 418.371 457.864C371.146 452.836 322.202 453.865 278.441 463.84C198.278 481.985 139.373 527.02 55.2569 521.246C13.9291 518.37 -23.3825 501.502 -50.4853 480.477C-87.148 452.027 -108.8 417.032 -128.522 381.578C-137.781 364.895 -146.836 348.118 -156.372 331.618C-186.151 280.162 -226.499 228.444 -279.575 197.61" stroke="#FF3FCB" stroke-miterlimit="10"/>
<path d="M1791.59 657.152C1702.39 593.167 1553.17 553.626 1422.82 558.143C1323.71 561.582 1242.38 585.768 1162.03 602.789C1159.33 603.365 1156.59 603.926 1153.86 604.504C1075.61 620.603 987.491 632.031 893.889 610.14C826.907 594.481 764.515 566.371 704.198 540.081C644.461 513.918 584.827 487.733 516.511 470.982C491.698 464.908 465.317 460.257 438.617 457.48C391.741 452.603 343.156 453.451 299.519 462.74C219.558 479.626 159.91 521.78 76.7004 515.297C35.7997 512.066 -1.10832 495.414 -28.2202 474.708C-65.9166 445.912 -88.3003 410.398 -108.627 374.354C-118.161 357.404 -127.466 340.342 -137.328 323.592C-168.063 271.33 -210.436 218.771 -266.812 189.076" stroke="#FF3FCB" stroke-miterlimit="10"/>
<path d="M1792.03 666.836C1702.52 605.421 1556.28 566.459 1428.61 568.705C1331.55 570.405 1251.73 591.455 1173.32 605.486C1170.66 605.958 1168.03 606.428 1165.35 606.901C1089.06 620.13 1003.72 628.824 912.414 606.283C846.472 590.013 784.495 562.333 724.141 536.771C664.419 511.349 604.531 486.221 536.382 470.117C511.636 464.289 485.395 459.79 458.832 457.108C412.279 452.379 364.053 453.047 320.541 461.659C240.781 477.283 180.394 516.626 98.0896 509.419C57.6163 505.836 21.0865 489.412 -6.03536 468.999C-44.7913 439.854 -67.8802 403.816 -88.7854 367.176C-98.5944 349.957 -108.175 332.609 -118.312 315.606C-150.028 262.515 -194.399 209.125 -254.049 180.567" stroke="#FF3FCB" stroke-miterlimit="10"/>
<path d="M1792.46 676.524C1702.62 617.61 1559.39 579.246 1434.39 579.204C1339.36 579.179 1261.06 597.106 1184.64 608.188C1182.05 608.571 1179.47 608.937 1176.88 609.303C1102.56 619.671 1020.01 625.654 930.993 602.494C866.118 585.614 804.532 558.354 744.14 533.508C684.407 508.817 624.262 484.715 556.335 469.262C531.627 463.66 505.528 459.345 479.153 456.736C432.923 452.136 385.057 452.643 341.695 460.568C262.164 474.958 201.012 511.506 119.616 503.596C79.5698 499.662 43.4173 483.442 16.287 463.35C-23.5281 433.851 -47.3219 397.285 -68.8317 360.048C-78.9164 342.54 -88.7455 324.938 -99.1827 307.664C-131.854 253.755 -178.249 199.513 -241.2 172.062" stroke="#FF3FCB" stroke-miterlimit="10"/>
<path d="M1792.88 686.193C1702.71 629.766 1562.49 591.951 1440.17 589.67C1347.2 587.931 1270.41 602.761 1195.95 610.918C1193.44 611.197 1190.92 611.458 1188.38 611.721C1116.03 619.267 1036.29 622.543 949.542 598.746C885.706 581.241 824.537 554.407 764.081 530.267C704.364 506.294 643.963 483.204 576.204 468.397C551.563 463.034 525.605 458.882 499.392 456.347C453.485 451.891 406.005 452.219 362.768 459.48C283.44 472.634 221.552 506.431 141.062 497.804C101.444 493.521 65.6693 477.517 38.5289 457.704C-2.34511 427.849 -26.8438 390.751 -48.932 352.911C-59.3174 335.132 -69.3701 317.238 -80.1332 299.71C-113.76 244.961 -162.178 189.863 -228.427 163.538" stroke="#FF3FCB" stroke-miterlimit="10"/>
<path d="M1793.3 695.871C1702.79 641.884 1565.58 604.638 1445.97 600.114C1355.03 596.673 1279.78 608.446 1207.26 613.685C1204.82 613.86 1202.36 614.035 1199.89 614.194C1129.51 618.939 1052.55 619.51 968.093 595.108C905.298 576.977 844.545 550.561 784.052 527.115C724.349 503.85 663.693 481.777 596.102 467.591C571.527 462.447 545.683 458.475 519.659 456.011C474.076 451.696 426.955 451.848 383.869 458.434C304.745 470.362 242.122 501.434 162.539 492.109C123.348 487.462 87.9271 471.686 60.8033 452.162C18.8457 421.966 -6.33165 384.331 -29.025 345.869C-39.685 327.816 -49.9872 309.63 -61.0501 291.845C-95.6311 236.267 -146.046 180.307 -215.595 155.063" stroke="#FF3FCB" stroke-miterlimit="10"/>
<path d="M1793.72 705.543C1702.88 653.986 1568.68 617.264 1451.75 610.529C1362.86 605.393 1289.1 614.117 1218.57 616.472C1216.18 616.544 1213.81 616.632 1211.42 616.688C1142.98 618.652 1068.86 616.516 986.671 591.508C924.942 572.735 864.581 546.746 804.049 523.985C744.336 501.42 683.424 480.337 616.026 466.762C591.49 461.837 565.815 458.04 539.926 455.649C494.666 451.456 447.907 451.465 404.972 457.382C326.054 468.11 262.695 496.465 184.047 486.427C145.284 481.433 110.24 465.864 83.1324 446.606C40.1165 416.047 14.2348 377.873 -9.06177 338.821C-19.9963 320.493 -30.5739 302.015 -41.9104 283.97C-77.4462 227.543 -129.882 170.735 -202.73 146.576" stroke="#FF3FCB" stroke-miterlimit="10"/>
<path d="M1794.13 715.196C1702.97 666.044 1571.73 629.853 1457.51 620.9C1370.65 614.081 1298.43 619.79 1229.87 619.263C1227.55 619.249 1225.23 619.219 1222.91 619.19C1156.45 618.371 1085.16 613.545 1005.22 587.964C944.552 568.549 884.583 542.979 824.014 520.894C764.315 499.02 703.147 478.932 635.944 465.963C611.474 461.268 585.912 457.615 560.213 455.308C515.277 451.254 468.903 451.086 426.095 456.355C347.382 465.877 283.291 491.553 205.55 480.805C167.241 475.464 132.524 460.099 105.431 441.103C61.3326 410.197 34.7718 371.464 10.8974 331.8C-0.311523 313.195 -11.1384 294.423 -22.8005 276.119C-59.316 218.856 -113.748 161.178 -189.895 138.078" stroke="#FF3FCB" stroke-miterlimit="10"/>
<path d="M1794.54 724.864C1703.05 678.094 1574.81 642.406 1463.28 631.247C1378.47 622.751 1307.74 625.449 1241.15 622.057C1238.91 621.941 1236.66 621.826 1234.39 621.695C1169.9 618.127 1101.42 610.609 1023.74 584.436C964.14 564.363 904.563 539.221 843.931 517.823C784.247 496.631 722.797 477.514 655.788 465.162C631.384 460.679 605.964 457.198 580.427 454.961C535.815 451.041 489.801 450.699 447.145 455.309C368.664 463.647 303.815 486.633 226.983 475.21C189.103 469.524 154.738 454.358 127.662 435.636C82.481 404.395 55.2404 365.083 30.7624 324.807C19.2783 305.907 8.203 286.856 -3.75851 268.29C-41.2282 210.171 -97.6814 151.62 -177.098 129.601" stroke="#FF3FCB" stroke-miterlimit="10"/>
<path d="M1794.95 734.513C1703.12 690.09 1577.89 654.928 1469.04 641.572C1386.26 631.424 1317.08 631.11 1252.45 624.883C1250.28 624.666 1248.08 624.467 1245.91 624.234C1183.39 617.93 1117.77 607.715 1042.31 580.984C983.802 560.251 924.591 535.533 863.921 514.797C804.227 494.281 742.546 476.123 675.706 464.382C651.342 460.128 626.063 456.802 600.688 454.632C556.4 450.847 510.746 450.331 468.218 454.302C389.943 461.45 324.364 481.795 248.44 469.665C210.988 463.636 176.975 448.666 149.915 430.196C103.626 398.603 75.7587 358.724 50.6772 317.834C38.9188 298.654 27.5943 279.307 15.3334 260.479C-23.0893 201.515 -81.5629 142.088 -164.277 121.109" stroke="#FF3FCB" stroke-miterlimit="10"/>
<path d="M1795.35 744.177C1703.15 702.098 1580.96 667.419 1474.76 651.893C1394.05 640.083 1326.35 636.806 1263.72 627.741C1261.6 627.441 1259.5 627.124 1257.37 626.808C1196.83 617.782 1134.05 604.866 1060.83 577.574C1003.38 556.167 944.566 531.882 883.858 511.8C824.178 491.952 762.216 474.766 695.596 463.612C671.297 459.565 646.16 456.409 620.947 454.307C576.983 450.638 531.716 449.964 489.315 453.3C411.248 459.28 344.939 476.985 269.925 464.168C232.901 457.795 199.241 443.034 172.195 424.796C124.8 392.865 96.279 352.402 70.5943 310.894C58.5618 291.434 46.9892 271.806 34.4023 252.699C-4.97313 192.887 -65.4667 132.582 -151.477 112.651" stroke="#FF3FCB" stroke-miterlimit="10"/>
<path d="M1795.75 753.821C1703.24 714.066 1584.03 679.881 1480.54 662.175C1401.85 648.709 1335.71 642.466 1275.02 630.595C1272.97 630.194 1270.91 629.794 1268.89 629.376C1210.31 617.624 1150.4 602.035 1079.39 574.198C1023.07 552.098 964.59 528.259 903.819 508.827C844.154 489.641 781.935 473.4 715.484 462.848C691.252 459.025 666.229 456.022 641.206 454.001C597.565 450.463 552.659 449.617 510.412 452.304C432.552 457.106 365.515 472.203 291.41 458.683C254.815 451.967 221.507 437.395 194.503 419.417C146.001 387.147 116.827 346.098 90.5657 303.97C78.2591 284.229 66.4115 264.303 53.5505 244.914C13.1959 184.237 -49.2898 123.065 -138.57 104.158" stroke="#FF3FCB" stroke-miterlimit="10"/>
<path d="M1796.14 763.484C1703.29 726.022 1587.09 692.338 1486.29 672.46C1409.66 657.343 1345 648.165 1286.31 633.481C1284.33 632.98 1282.35 632.48 1280.37 631.979C1223.77 617.529 1166.74 599.243 1097.93 570.861C1042.69 548.085 984.585 524.669 923.776 505.88C864.1 487.352 801.651 472.049 735.369 462.094C711.176 458.476 686.321 455.639 661.435 453.686C618.118 450.277 573.574 449.275 531.48 451.316C453.829 454.963 386.065 467.451 312.868 453.228C276.702 446.171 243.746 431.801 216.758 414.048C167.149 381.436 137.324 339.815 110.458 297.05C97.878 277.026 85.7815 256.801 72.5954 237.147C31.2889 175.617 -33.2161 113.544 -125.79 95.6868" stroke="#FF3FCB" stroke-miterlimit="10"/>
<path d="M1796.53 773.13C1703.35 737.962 1590.15 704.739 1492.03 682.696C1417.43 665.935 1354.32 653.816 1297.6 636.346C1295.7 635.763 1293.76 635.164 1291.86 634.563C1237.23 617.425 1183.09 596.451 1116.47 567.539C1062.37 544.054 1004.58 521.091 943.734 502.94C884.073 485.062 821.343 470.71 755.28 461.329C731.153 457.915 706.413 455.229 681.716 453.355C638.749 450.058 594.566 448.9 552.599 450.3C475.157 452.781 406.668 462.688 334.381 447.781C298.643 440.366 266.041 426.213 239.067 408.682C188.353 375.726 157.875 333.514 130.407 290.126C117.552 269.803 105.207 249.295 91.7226 229.374C49.4636 166.972 -17.0584 104.029 -112.926 87.1828" stroke="#FF3FCB" stroke-miterlimit="10"/>
<path d="M1796.92 782.789C1703.4 749.901 1593.18 717.151 1497.77 692.948C1425.23 674.547 1363.64 659.515 1308.86 639.255C1307 638.573 1305.17 637.89 1303.34 637.191C1250.69 617.373 1199.45 593.704 1135 564.262C1082.05 540.067 1024.57 517.536 963.686 500.034C904.04 482.802 841.054 469.377 775.16 460.585C751.1 457.389 726.501 454.851 701.966 453.043C659.323 449.872 615.501 448.543 573.69 449.319C496.484 450.654 427.243 457.978 355.865 442.371C320.557 434.616 288.281 420.661 261.348 403.364C209.504 370.08 178.399 327.259 150.355 283.246C137.226 262.639 124.633 241.83 110.849 221.642C67.6386 158.381 -0.900236 94.5488 -100.035 78.7067" stroke="#FF3FCB" stroke-miterlimit="10"/>
<path d="M1797.3 792.438C1703.45 761.816 1596.23 729.514 1503.5 703.175C1433 683.139 1372.93 665.189 1320.15 642.162C1318.36 641.381 1316.58 640.6 1314.82 639.817C1264.14 617.313 1215.84 590.956 1153.53 561.015C1101.72 536.112 1044.58 514.023 983.611 497.152C923.954 480.562 860.712 468.075 795.013 459.85C770.992 456.857 746.535 454.483 722.189 452.736C679.871 449.692 636.436 448.19 594.753 448.347C517.757 448.525 447.792 453.277 377.325 436.987C342.471 428.891 310.522 415.132 283.604 398.052C230.629 364.436 198.897 321.005 170.251 276.366C156.848 255.474 143.981 234.364 129.898 213.908C85.7365 149.769 15.1822 85.0622 -87.2443 70.2357" stroke="#FF3FCB" stroke-miterlimit="10"/>
<path d="M1797.69 802.099C1703.52 773.715 1599.28 741.89 1509.24 713.404C1440.79 691.736 1382.24 670.877 1331.43 645.092C1329.72 644.228 1328.01 643.349 1326.29 642.469C1277.59 617.303 1232.25 588.248 1172.06 557.793C1121.41 532.163 1064.57 510.532 1003.56 494.284C943.917 478.332 880.419 466.761 814.915 459.117C790.961 456.339 766.619 454.113 742.436 452.43C700.441 449.495 657.368 447.838 615.814 447.361C539.027 446.387 468.314 448.594 398.783 431.622C364.359 423.185 332.736 409.621 305.886 392.768C251.756 358.822 219.423 314.777 190.201 269.51C176.525 248.333 163.409 226.92 149.028 206.196C103.89 141.195 31.3451 75.5765 -74.3457 61.7595" stroke="#FF3FCB" stroke-miterlimit="10"/>
<path d="M1798.07 811.762C1703.56 785.621 1602.32 754.233 1514.97 723.621C1448.55 700.326 1391.52 676.583 1342.68 648.033C1341.04 647.071 1339.38 646.11 1337.77 645.131C1291.04 617.311 1248.66 585.565 1190.61 554.609C1141.18 528.251 1084.58 507.076 1023.53 491.448C963.902 476.128 900.122 465.47 834.814 458.404C810.899 455.826 786.725 453.76 762.705 452.14C721.034 449.329 678.322 447.502 636.924 446.408C560.349 444.302 488.914 443.956 420.292 426.287C386.297 417.512 355.027 404.138 328.191 387.496C272.933 353.233 239.999 308.557 210.15 262.662C196.2 241.199 182.837 219.5 168.157 198.49C122.067 132.607 47.5349 66.108 -61.471 53.2977" stroke="#FF3FCB" stroke-miterlimit="10"/>
<path d="M1798.44 821.412C1703.6 797.503 1605.36 766.564 1520.69 733.815C1456.33 708.912 1400.83 682.261 1353.96 650.969C1352.37 649.91 1350.8 648.849 1349.24 647.789C1304.46 617.323 1265.09 582.875 1209.13 551.42C1160.89 524.319 1104.55 503.611 1043.47 488.598C983.833 473.909 919.825 464.174 854.685 457.667C830.836 455.286 806.777 453.366 782.946 451.823C741.6 449.136 699.276 447.153 658.007 445.431C581.643 442.18 509.488 439.307 441.777 420.958C408.211 411.843 377.267 398.659 350.472 382.226C294.06 347.628 260.526 302.337 230.101 255.811C215.878 234.061 202.266 212.058 187.262 190.779C140.223 124.028 63.6767 56.6321 -48.6179 44.8067" stroke="#FF3FCB" stroke-miterlimit="10"/>
<path d="M1798.82 831.078C1703.63 809.376 1608.4 778.881 1526.41 743.999C1464.09 717.475 1410.11 687.957 1365.23 653.912C1363.71 652.771 1362.22 651.613 1360.7 650.456C1317.9 617.334 1281.55 580.205 1227.65 548.267C1180.65 520.421 1124.53 500.179 1063.38 485.78C1003.76 471.717 939.469 462.885 874.55 456.949C850.768 454.781 826.85 453.005 803.156 451.525C762.135 448.96 720.173 446.807 679.059 444.456C602.933 440.079 530.032 434.673 463.231 415.628C430.094 406.175 399.477 393.179 372.723 376.968C315.159 342.067 281.024 296.143 249.998 248.969C235.501 226.916 221.642 204.625 206.339 183.074C158.35 115.439 79.7919 47.159 -35.7633 36.3292" stroke="#FF3FCB" stroke-miterlimit="10"/>
<path d="M1799.19 840.727C1703.66 821.239 1611.43 791.184 1532.16 754.171C1471.86 726.031 1419.43 693.635 1376.49 656.863C1375.05 655.624 1373.61 654.385 1372.19 653.13C1331.36 617.373 1298.05 577.554 1246.18 545.117C1200.45 516.524 1144.52 496.746 1083.34 482.956C1023.73 469.515 959.186 461.6 894.436 456.218C870.694 454.246 846.918 452.629 823.413 451.21C782.715 448.751 741.115 446.444 700.158 443.482C624.245 437.967 550.624 430.051 484.76 410.31C452.052 400.518 421.737 387.742 395.049 371.702C336.205 336.55 301.597 289.922 269.969 242.116C255.2 219.775 241.067 197.18 225.492 175.357C176.528 106.851 95.983 37.6537 -22.8574 27.8166" stroke="#FF3FCB" stroke-miterlimit="10"/>
<path d="M-10.0242 19.3535C112.1 28.2019 194.655 98.2864 244.568 167.681C294.481 237.076 329.387 314.344 417.296 366.483C526.618 431.32 691.226 442.092 843.615 450.917C996.004 459.741 1161.06 473.592 1264.66 541.989C1314.54 574.925 1344.79 617.415 1383.62 655.801C1478.22 749.274 1628.33 819.498 1799.53 850.383" stroke="#FF3FCB" stroke-miterlimit="10"/>
<path d="M1759.65 377.598C1646.26 283.906 1458.41 260.806 1318.94 323.439C1212.9 371.036 1142.13 457.593 1064.38 534.288C986.624 610.983 887.084 684.539 766.452 688.728C689.382 691.392 615.015 664.966 546.499 634.843C477.983 604.72 411.092 569.99 336.288 553.671C261.485 537.351 174.819 542.689 117.844 585.783C51.5716 635.921 29.5956 731.099 -57.468 748.821C-100.102 757.49 -145.865 742.543 -179.471 718.665C-213.077 694.787 -236.804 662.847 -259.935 631.492C-304.886 570.602 -349.836 509.713 -394.77 448.797" stroke="#1549FE" stroke-miterlimit="10"/>
<path d="M1764.54 392.459C1651.73 301.893 1466.99 278.903 1329.28 338.085C1224.59 383.072 1154.15 465.364 1077.21 537.935C1074.61 540.392 1072 542.828 1069.34 545.277C993.651 615.097 898.511 680.081 783.854 682.714C707.608 684.446 633.734 658.34 565.447 629.071C497.215 599.811 430.469 566.388 356.102 550.783C329.207 545.146 300.823 542.249 272.87 542.82C223.479 543.824 175.288 555.628 138.817 582.25C72.3309 630.723 48.6958 722.484 -37.7452 739.073C-80.0893 747.193 -125.331 732.36 -158.912 708.873C-193.62 684.623 -218.28 652.167 -242.283 620.102C-253.631 604.934 -264.961 589.74 -276.333 574.577C-311.591 527.608 -347.871 480.77 -384.559 436.637" stroke="#1549FE" stroke-miterlimit="10"/>
<path d="M1769.42 407.171C1657.2 319.73 1475.56 296.827 1339.6 352.603C1236.25 395.023 1166.13 473.062 1090.04 541.532C1087.46 543.843 1084.87 546.159 1082.26 548.455C1007.43 614.311 914.04 675.47 801.26 676.693C725.812 677.504 652.456 651.71 584.398 623.289C516.45 594.886 449.82 562.744 375.895 547.87C349.159 542.504 320.978 539.771 293.194 540.395C244.183 541.49 196.292 552.975 159.74 578.681C93.0478 625.521 67.7486 713.869 -18.0388 729.348C-60.0687 736.917 -104.846 722.188 -138.387 699.13C-174.194 674.51 -199.818 641.526 -224.635 608.766C-236.372 593.264 -248.06 577.751 -259.854 562.307C-296.39 514.39 -334.961 466.757 -374.358 424.559" stroke="#1549FE" stroke-miterlimit="10"/>
<path d="M1774.28 421.733C1662.66 337.394 1484.08 314.564 1349.91 366.971C1247.91 406.817 1178.13 480.67 1102.81 545.04C1100.27 547.205 1097.71 549.376 1095.12 551.552C1021.14 613.471 929.471 670.836 818.598 670.673C743.972 670.564 671.109 645.085 603.289 617.527C535.626 589.975 469.135 559.1 395.631 544.955C369.046 539.839 341.052 537.296 313.484 537.96C264.846 539.127 217.286 550.309 180.637 575.13C113.757 620.322 86.7549 705.313 1.61409 719.67C-40.1256 726.696 -84.4063 712.086 -117.922 689.412C-154.819 664.447 -181.413 630.918 -207.067 597.473C-219.184 581.66 -231.26 565.815 -243.428 550.08C-281.257 501.248 -322.067 452.815 -364.182 412.499" stroke="#1549FE" stroke-miterlimit="10"/>
<path d="M1779.12 436.127C1668.09 354.869 1492.6 332.124 1360.18 381.171C1259.51 418.465 1190.07 488.142 1115.59 548.467C1113.08 550.507 1110.53 552.539 1107.97 554.571C1034.83 612.586 944.891 666.156 835.924 664.616C762.089 663.58 689.752 638.428 622.137 611.712C554.736 585.01 488.393 555.415 415.35 541.964C388.893 537.101 361.134 534.735 333.759 535.443C285.5 536.701 238.249 547.588 201.512 571.485C134.428 615.067 105.76 696.671 21.2495 709.939C-20.1998 716.426 -64.0083 701.938 -97.4735 679.642C-135.483 654.338 -163.02 620.264 -189.51 586.138C-202.007 570.017 -214.446 553.838 -227.011 537.819C-266.114 488.054 -309.201 438.857 -354.023 400.432" stroke="#1549FE" stroke-miterlimit="10"/>
<path d="M1783.94 450.372C1673.5 372.154 1501.09 349.493 1370.44 395.222C1271.12 429.977 1202.02 495.527 1128.35 551.82C1125.85 553.723 1123.36 555.626 1120.83 557.515C1048.54 611.626 960.308 661.434 853.26 658.566C780.24 656.602 708.403 631.781 641.02 605.895C573.905 580.032 507.703 551.686 435.08 538.956C408.783 534.359 381.204 532.159 354.045 532.907C306.166 534.255 259.239 544.823 222.406 567.848C155.112 609.81 124.795 688.092 40.9143 700.278C-0.244694 706.231 -43.5813 691.864 -76.9887 669.963C-116.108 644.323 -144.587 609.706 -171.888 574.899C-184.764 558.471 -197.566 541.96 -210.552 525.665C-250.919 474.992 -296.285 425.017 -343.816 388.448" stroke="#1549FE" stroke-miterlimit="10"/>
<path d="M1787.07 462.531C1677.3 387.622 1508.12 365.133 1379.32 407.383C1281.4 439.511 1212.72 500.722 1139.89 552.855C1137.43 554.61 1134.94 556.369 1132.46 558.129C1061.08 608.209 974.623 654.101 869.592 649.909C797.413 647.024 726.165 622.635 659.065 597.665C592.289 572.727 526.257 545.727 454.136 533.752C428.011 529.416 400.658 527.384 373.696 528.201C326.228 529.616 279.646 539.858 242.749 561.94C175.301 602.154 143.366 676.873 60.1751 687.929C19.3394 693.333 -23.4918 679.14 -56.7985 657.682C-96.9948 631.802 -126.393 596.773 -154.505 561.422C-167.751 544.749 -180.905 527.968 -194.276 511.453C-235.881 460.044 -283.488 409.478 -333.646 374.913" stroke="#1549FE" stroke-miterlimit="10"/>
<path d="M1790.06 474.376C1680.98 402.737 1515.01 380.397 1388.08 419.252C1291.57 448.787 1223.28 505.72 1151.35 553.736C1148.93 555.363 1146.48 556.976 1144.03 558.589C1073.57 604.689 988.876 646.697 885.854 641.243C814.525 637.468 743.861 613.488 677.027 589.428C610.569 565.409 544.766 539.747 473.144 528.497C447.177 524.445 420.05 522.579 393.328 523.432C346.281 524.932 300.039 534.833 263.096 555.957C195.508 594.464 161.955 665.644 79.4648 675.605C38.9473 680.448 -3.36267 666.465 -36.5904 645.452C-77.8574 619.338 -108.169 583.904 -137.064 548.014C-150.684 531.081 -164.198 514.081 -177.936 497.324C-220.765 445.213 -270.602 394.068 -323.413 361.448" stroke="#1549FE" stroke-miterlimit="10"/>
<path d="M1793.05 486.057C1684.64 417.606 1521.9 395.447 1396.82 430.94C1301.74 457.918 1233.85 510.661 1162.79 554.612C1160.4 556.094 1157.97 557.588 1155.55 559.057C1086 601.24 1003.07 639.423 902.043 632.703C831.548 628.011 761.482 604.467 694.936 581.295C628.821 558.171 563.217 533.808 492.076 523.296C466.283 519.496 439.39 517.813 412.89 518.728C366.262 520.312 320.385 529.871 283.38 550.081C215.669 586.887 180.486 654.616 98.6884 663.478C58.4955 667.787 16.6745 653.996 -16.4571 633.392C-58.8147 607.046 -90.0051 571.22 -119.712 534.777C-133.697 517.603 -147.56 500.338 -161.704 483.371C-205.784 430.542 -257.812 378.829 -313.26 348.141" stroke="#1549FE" stroke-miterlimit="10"/>
<path d="M1796.04 497.608C1688.32 432.31 1528.75 410.29 1405.56 442.486C1311.88 466.949 1244.37 515.549 1174.19 555.514C1171.81 556.86 1169.43 558.206 1167.03 559.557C1098.38 597.863 1017.21 632.279 918.185 624.346C848.53 618.766 779.054 595.628 712.797 573.327C647.025 551.082 581.603 528.021 510.96 518.21C485.348 514.679 458.658 513.161 432.372 514.116C386.163 515.783 340.626 525.014 303.583 544.319C235.733 579.477 198.943 643.789 117.836 651.567C77.9669 655.351 36.6342 641.744 3.59897 621.54C-39.845 594.961 -71.9182 558.722 -102.402 521.74C-116.752 504.326 -130.962 486.796 -145.487 469.612C-190.782 416.078 -245.024 363.782 -303.081 334.969" stroke="#1549FE" stroke-miterlimit="10"/>
<path d="M1799.02 509.005C1691.99 446.807 1535.62 424.933 1414.27 453.864C1322.01 475.843 1254.91 520.38 1185.58 556.397C1183.24 557.622 1180.9 558.828 1178.53 560.039C1110.79 594.543 1031.35 625.207 934.328 616.074C865.504 609.596 796.624 586.874 730.656 565.428C665.202 544.052 600.003 522.242 529.865 513.14C504.403 509.858 477.97 508.513 451.898 509.508C406.101 511.237 360.916 520.182 323.822 538.559C255.828 572.077 217.442 633.046 137.031 639.775C97.5095 643.035 56.6164 629.619 23.7086 609.82C-20.8105 583.024 -53.7466 546.347 -85.0529 508.836C-99.765 491.181 -114.322 473.387 -129.225 455.986C-175.738 401.728 -232.186 348.846 -292.853 321.923" stroke="#1549FE" stroke-miterlimit="10"/>
<path d="M1802.02 520.295C1695.66 461.129 1542.48 439.394 1422.98 465.104C1332.12 484.658 1265.39 525.15 1196.95 557.288C1194.65 558.374 1192.31 559.447 1189.99 560.538C1123.15 591.293 1045.44 618.255 950.421 607.954C882.426 600.589 814.134 578.253 748.438 557.673C683.328 537.146 618.305 516.578 548.67 508.174C523.382 505.133 497.158 503.967 471.324 504.997C425.968 506.802 381.121 515.428 343.967 532.935C275.836 564.858 235.845 622.497 156.13 628.189C116.931 630.937 76.5243 617.697 43.7371 598.275C-1.85297 571.261 -35.6721 534.149 -67.7737 496.104C-82.847 478.21 -97.7486 460.151 -113.054 442.537C-160.772 387.574 -219.417 334.105 -282.699 309.006" stroke="#1549FE" stroke-miterlimit="10"/>
<path d="M1805 531.447C1699.36 475.298 1549.33 453.681 1431.67 476.232C1342.22 493.367 1275.89 529.908 1208.28 558.21C1205.99 559.164 1203.72 560.114 1201.4 561.074C1135.47 588.129 1059.47 611.418 966.449 599.96C899.273 591.697 831.582 569.777 766.175 550.024C701.407 530.331 636.592 511.001 567.429 503.271C542.321 500.487 516.316 499.455 490.678 500.549C445.739 502.433 401.23 510.746 364.016 527.395C295.742 557.728 254.165 612.125 175.137 616.776C136.26 619.018 96.3215 605.973 63.6479 586.9C16.9673 559.672 -17.7079 522.118 -50.5778 483.535C-66.0111 465.399 -81.2799 447.081 -96.9374 429.244C-145.888 373.56 -206.692 319.515 -272.547 296.229" stroke="#1549FE" stroke-miterlimit="10"/>
<path d="M1807.99 542.495C1703.03 489.288 1556.17 467.817 1440.34 487.21C1352.28 501.961 1286.33 534.581 1219.61 559.103C1217.36 559.942 1215.09 560.762 1212.83 561.581C1147.79 584.963 1073.51 604.624 982.49 592.059C916.156 582.901 849.042 561.395 783.924 542.455C719.475 523.59 654.861 505.46 586.224 498.405C561.266 495.859 535.492 494.997 510.092 496.125C465.56 498.07 421.396 506.092 384.14 521.872C315.754 550.651 272.567 601.837 194.231 605.477C155.675 607.22 116.197 594.346 83.6516 575.654C35.8849 548.21 0.357306 510.214 -33.3016 471.097C-49.1003 452.702 -64.6973 434.158 -80.7365 416.084C-130.884 359.693 -193.869 305.057 -262.318 283.545" stroke="#1549FE" stroke-miterlimit="10"/>
<path d="M1810.98 553.426C1706.7 503.138 1563 481.77 1449 498.079C1362.34 510.47 1296.78 539.218 1230.92 560.011C1228.7 560.716 1226.47 561.402 1224.22 562.094C1160.07 581.865 1087.51 597.918 998.461 584.241C932.935 574.183 866.427 553.095 801.575 534.963C737.468 516.907 673.055 499.962 604.897 493.582C580.118 491.286 554.569 490.573 529.382 491.739C485.265 493.762 441.461 501.474 404.146 516.422C335.62 543.654 290.857 591.687 213.205 594.308C174.97 595.557 135.959 582.87 103.527 564.514C54.6789 536.851 18.3022 498.413 -16.1189 458.758C-32.2982 440.127 -48.2123 421.314 -64.6483 403.027C-115.994 345.909 -181.152 290.681 -252.171 270.957" stroke="#1549FE" stroke-miterlimit="10"/>
<path d="M1813.97 564.264C1710.36 516.837 1569.83 495.604 1457.67 508.841C1372.39 518.903 1307.25 543.839 1242.21 560.931C1240.02 561.504 1237.8 562.083 1235.59 562.642C1172.33 578.845 1101.46 591.316 1014.41 576.57C949.69 565.62 883.788 544.943 819.225 527.601C755.46 510.343 691.256 494.586 623.568 488.853C598.962 486.785 573.62 486.244 548.669 487.442C504.966 489.543 461.498 496.954 424.141 511.056C355.475 536.763 309.143 581.683 232.18 583.316C194.258 584.057 155.696 571.577 123.409 553.563C73.4663 525.705 36.2674 486.818 1.05665 446.61C-15.4782 427.739 -31.7316 408.662 -48.5394 390.156C-101.072 332.33 -168.371 276.502 -241.965 258.508" stroke="#1549FE" stroke-miterlimit="10"/>
<path d="M1816.96 575.004C1714.04 530.421 1576.64 509.28 1466.31 519.502C1382.43 527.255 1317.64 548.413 1253.48 561.855C1251.3 562.302 1249.15 562.763 1246.96 563.193C1184.58 575.871 1115.43 584.77 1030.34 568.968C966.446 557.11 901.131 536.861 836.857 520.298C773.411 503.833 709.409 489.23 642.214 484.132C617.757 482.294 592.669 481.912 567.906 483.153C524.61 485.313 481.491 492.464 444.093 505.73C375.295 529.949 327.392 571.777 251.134 572.407C213.531 572.665 175.434 560.363 143.284 542.668C92.2687 514.588 54.2274 475.257 18.2443 434.535C1.35541 415.423 -15.2595 396.087 -32.4138 377.358C-86.1349 318.805 -155.584 262.4 -231.735 246.133" stroke="#1549FE" stroke-miterlimit="10"/>
<path d="M1819.95 585.639C1717.73 543.859 1583.42 522.835 1474.92 530.049C1392.41 535.524 1328.04 552.953 1264.71 562.768C1262.57 563.105 1260.43 563.423 1258.28 563.742C1196.78 572.909 1129.34 578.274 1046.22 561.466C983.137 548.708 918.408 528.878 854.424 513.085C791.319 497.396 727.526 483.953 660.824 479.483C636.547 477.886 611.652 477.633 587.131 478.926C544.247 481.162 501.485 488.015 464.03 500.479C395.095 523.209 345.633 562 270.054 561.643C232.794 561.417 195.112 549.301 163.101 531.918C111 503.64 72.1368 463.84 35.4009 422.58C18.1595 403.226 1.20811 383.627 -16.3384 364.684C-71.2599 305.427 -142.833 248.421 -221.538 233.843" stroke="#1549FE" stroke-miterlimit="10"/>
<path d="M1822.94 596.203C1721.4 557.197 1590.22 536.258 1483.53 540.5C1402.4 543.713 1338.38 557.443 1275.9 563.669C1273.79 563.878 1271.69 564.087 1269.55 564.283C1208.93 569.993 1143.18 571.844 1062.02 554.016C999.748 540.345 935.611 520.947 871.899 505.937C809.136 491.015 745.522 478.705 679.318 474.874C655.213 473.497 630.548 473.405 606.238 474.735C563.765 477.046 521.337 483.61 483.841 495.258C414.8 516.53 363.748 552.286 288.861 550.989C251.919 550.288 214.676 538.35 182.809 521.293C129.635 492.832 89.9456 452.544 52.4367 410.751C34.8372 391.138 17.5577 371.294 -0.355911 352.131C-56.4564 292.147 -130.169 234.542 -211.382 221.667" stroke="#1549FE" stroke-miterlimit="10"/>
<path d="M1825.93 606.666C1725.06 570.387 1597 549.564 1492.11 550.863C1412.35 551.859 1348.73 561.899 1287.1 564.588C1285.02 564.671 1282.93 564.777 1280.85 564.84C1221.11 567.127 1157.08 565.47 1077.84 546.675C1016.4 532.093 952.833 513.126 889.41 498.866C826.965 484.707 763.577 473.506 697.847 470.313C673.898 469.177 649.455 469.226 625.355 470.592C583.294 472.979 541.199 479.257 503.646 490.122C434.47 509.939 381.87 542.725 307.659 540.459C271.034 539.289 234.23 527.524 202.501 510.769C148.227 482.11 107.769 441.344 69.49 399.018C51.5409 379.164 33.9277 359.056 15.6485 339.674C-41.6191 278.98 -117.463 220.776 -201.209 209.554" stroke="#1549FE" stroke-miterlimit="10"/>
<path d="M1828.92 617.066C1728.71 583.505 1603.78 562.754 1500.66 561.159C1422.28 559.936 1359.03 566.368 1298.25 565.531C1296.19 565.511 1294.15 565.467 1292.08 565.429C1233.23 564.324 1170.87 559.178 1093.58 539.417C1032.94 523.918 969.966 505.388 906.832 491.869C844.728 478.459 781.526 468.385 716.31 465.794C692.532 464.873 668.317 465.08 644.428 466.483C602.769 468.926 561.037 474.934 523.428 485.024C454.124 503.42 399.976 533.25 326.446 530.042C290.138 528.406 253.778 516.83 222.179 500.353C166.817 471.515 125.563 430.255 86.518 387.396C68.2208 367.301 50.2823 346.949 31.6088 327.333C-26.821 265.929 -104.787 207.125 -191.052 197.557" stroke="#1549FE" stroke-miterlimit="10"/>
<path d="M1831.9 627.37C1732.4 596.49 1610.54 575.835 1509.24 571.345C1432.22 567.927 1369.36 570.754 1309.4 566.45C1307.37 566.306 1305.35 566.162 1303.33 565.994C1245.35 561.509 1184.7 552.917 1109.33 532.22C1049.53 515.782 987.11 497.712 924.242 484.931C862.479 472.262 799.48 463.28 734.737 461.314C711.137 460.625 687.121 460.974 663.471 462.427C622.221 464.944 580.82 470.672 543.173 479.972C473.736 496.944 418.052 523.864 345.196 519.704C309.203 517.606 273.279 506.198 241.849 490.027C185.403 461.007 143.358 419.255 103.572 375.858C84.9287 355.523 66.636 334.912 47.6167 315.054C-12.0004 252.926 -92.0502 193.534 -180.805 185.582" stroke="#1549FE" stroke-miterlimit="10"/>
<path d="M1834.9 637.624C1736.06 609.385 1617.3 588.836 1517.79 581.479C1442.13 575.88 1379.64 575.163 1320.53 567.394C1318.54 567.126 1316.54 566.858 1314.55 566.59C1257.44 558.773 1198.49 546.722 1125.02 525.101C1066.03 507.753 1004.19 490.113 941.607 478.057C880.16 466.126 817.388 458.22 753.116 456.874C729.664 456.4 705.899 456.9 682.436 458.394C641.593 460.985 600.53 466.454 562.844 474.972C493.282 490.551 436.061 514.573 363.876 509.467C328.199 506.912 292.716 495.687 261.417 479.787C203.892 450.583 161.065 408.355 120.513 364.408C101.524 343.831 82.9017 322.957 63.4982 302.885C2.72893 240.046 -79.4333 180.034 -170.678 173.723" stroke="#1549FE" stroke-miterlimit="10"/>
<path d="M1837.89 647.79C1739.73 622.184 1624.05 601.702 1526.31 591.502C1452 583.745 1389.91 579.487 1331.63 568.304C1329.67 567.931 1327.69 567.546 1325.73 567.156C1269.49 556.033 1212.25 540.553 1140.67 518.03C1082.53 499.732 1021.22 482.563 958.931 471.225C897.824 460.019 835.24 453.208 771.479 452.447C748.197 452.182 724.629 452.822 701.405 454.365C660.986 457.006 620.259 462.219 582.513 469.967C512.82 484.149 454.075 505.317 382.567 499.293C347.198 496.265 312.162 485.238 280.994 469.604C222.395 440.216 178.782 397.496 137.474 353.017C118.135 332.181 99.1918 311.062 79.4292 290.769C17.5061 227.202 -66.7458 166.605 -160.485 161.886" stroke="#1549FE" stroke-miterlimit="10"/>
<path d="M1840.88 657.903C1743.4 634.905 1630.76 614.51 1534.82 601.485C1461.88 591.581 1400.17 583.833 1342.7 569.251C1340.75 568.762 1338.83 568.268 1336.89 567.756C1281.53 553.355 1226 534.448 1156.28 511.034C1098.99 491.792 1038.21 475.07 976.219 464.461C915.452 453.973 853.071 448.223 789.781 448.071C766.676 448.031 743.328 448.806 720.312 450.384C680.299 453.098 639.902 458.039 602.126 465.037C532.333 477.848 472.039 496.175 401.2 489.221C366.145 485.742 331.526 474.898 300.519 459.539C240.834 429.988 196.456 386.752 154.417 341.736C134.736 320.659 115.467 299.277 95.3467 278.765C32.2817 214.487 -54.0578 153.286 -150.257 150.139" stroke="#1549FE" stroke-miterlimit="10"/>
<path d="M1843.87 667.943C1747.06 647.531 1637.48 627.197 1543.32 611.39C1471.71 599.361 1410.38 588.132 1353.75 570.184C1351.84 569.574 1349.92 568.965 1348.03 568.35C1293.53 550.677 1239.73 528.364 1171.86 504.105C1115.42 483.925 1055.2 467.658 993.442 457.762C932.991 447.99 870.82 443.31 808.015 443.738C785.057 443.91 761.935 444.835 739.15 446.444C699.542 449.23 659.497 453.898 621.667 460.157C551.746 471.596 489.933 487.103 419.767 479.242C385.048 475.31 350.845 464.646 319.968 449.547C259.202 419.831 214.061 376.078 171.273 330.53C151.251 309.212 131.634 287.573 111.158 266.84C46.9487 201.832 -41.4635 140.044 -140.13 138.479" stroke="#1549FE" stroke-miterlimit="10"/>
<path d="M1846.86 677.933C1750.75 660.061 1644.21 639.826 1551.8 621.24C1481.55 607.096 1420.59 592.413 1364.8 571.129C1362.92 570.417 1361.04 569.688 1359.16 568.958C1305.51 548.056 1253.46 522.339 1187.41 497.226C1131.82 476.09 1072.12 460.301 1010.65 451.103C950.538 442.034 888.571 438.398 826.257 439.42C803.476 439.813 780.55 440.876 757.973 442.52C718.761 445.361 679.051 449.779 641.162 455.289C571.114 465.367 507.771 478.099 438.301 469.334C403.894 464.958 370.105 454.472 339.412 439.636C277.547 409.759 231.671 365.486 188.159 319.4C167.799 297.842 147.858 275.94 127.027 254.986C61.6635 189.273 -28.8027 126.856 -129.903 126.856" stroke="#1549FE" stroke-miterlimit="10"/>
<path d="M1849.85 687.864C1754.41 672.534 1650.91 652.355 1560.27 631.027C1491.35 614.789 1430.77 596.694 1375.79 572.08C1373.95 571.249 1372.08 570.424 1370.25 569.57C1317.47 545.46 1267.16 516.364 1202.94 490.413C1148.25 468.317 1089.02 453.01 1027.84 444.503C968.067 436.133 906.281 433.537 844.458 435.149C821.823 435.749 799.146 436.955 776.775 438.634C737.966 441.547 698.583 445.701 660.666 450.48C590.498 459.227 525.648 469.183 456.843 459.508C422.748 454.689 389.395 444.374 358.832 429.79C295.902 399.764 249.288 354.952 205.009 308.34C184.311 286.54 164.055 264.394 142.865 243.202C76.3679 176.759 -16.13 113.749 -119.699 115.311" stroke="#1549FE" stroke-miterlimit="10"/>
<path d="M1852.85 697.729C1758.08 684.92 1657.61 664.812 1568.72 640.743C1501.15 622.438 1440.94 600.919 1386.79 573.016C1384.95 572.072 1383.14 571.123 1381.33 570.174C1329.38 542.884 1280.84 510.402 1218.4 483.629C1164.59 460.565 1105.85 445.749 1044.96 437.927C985.505 430.254 923.953 428.698 862.589 430.881C840.123 431.682 817.641 433.024 795.506 434.75C757.099 437.734 718.073 441.64 680.097 445.681C609.805 453.089 543.461 460.309 475.324 449.746C441.54 444.489 408.6 434.346 378.191 420.007C314.17 389.817 266.827 344.485 221.832 297.336C200.798 275.295 180.222 252.886 158.658 231.479C91.0388 164.324 -3.51191 100.708 -109.525 103.798" stroke="#1549FE" stroke-miterlimit="10"/>
<path d="M1855.84 707.555C1761.74 697.23 1664.29 677.191 1577.15 650.4C1510.9 630.027 1451.07 605.144 1397.75 573.95C1395.96 572.906 1394.18 571.84 1392.37 570.778C1341.28 540.306 1294.5 504.479 1233.83 476.909C1180.93 452.872 1122.65 438.552 1062.03 431.414C1002.9 424.427 941.532 423.896 880.68 426.655C858.389 427.672 836.124 429.144 814.172 430.91C776.166 433.965 737.465 437.61 699.455 440.915C629.069 447.007 561.208 451.499 493.732 440.036C460.258 434.343 427.729 424.371 397.48 410.291C332.388 379.972 284.313 334.101 238.575 286.404C217.2 264.104 196.311 241.45 174.397 219.823C105.656 151.938 9.06762 87.7321 -99.3481 92.3523" stroke="#1549FE" stroke-miterlimit="10"/>
<path d="M1858.83 717.312C1765.39 709.471 1670.96 689.499 1585.59 659.997C1520.66 637.57 1461.22 609.321 1408.7 574.885C1406.93 573.725 1405.17 572.565 1403.42 571.382C1353.18 537.766 1308.19 498.591 1249.25 470.216C1197.28 445.206 1139.43 431.382 1079.09 424.918C1020.3 418.613 959.141 419.11 898.747 422.434C876.602 423.654 854.561 425.271 832.837 427.067C795.224 430.175 756.855 433.58 718.818 436.171C648.31 440.944 578.967 442.74 512.174 430.378C479.009 424.252 446.881 414.49 416.795 400.607C350.542 370.235 301.826 323.732 255.355 275.503C233.648 252.963 212.419 230.052 190.18 208.199C120.304 139.608 21.6979 74.7713 -89.1334 80.9159" stroke="#1549FE" stroke-miterlimit="10"/>
<path d="M-78.9811 69.5941C34.2562 61.9352 134.882 127.363 205.871 196.684C276.86 266.005 337.299 346.136 436.003 391.035C558.749 446.869 710.944 435.274 851.411 423.276C991.878 411.278 1145.63 403.01 1264.57 463.58C1321.83 492.748 1365.02 535.237 1414.38 571.983C1534.63 661.457 1696.11 717.41 1861.8 727.03" stroke="#1549FE" stroke-miterlimit="10"/>
<path d="M1785.9 562.881C1700.37 469.389 1518.13 422.915 1358.34 453.878C1236.86 477.399 1138.96 538.057 1037.05 589.6C935.148 641.142 812.247 686.918 689.377 672.683C610.882 663.578 544.038 630.999 484.227 596.244C424.415 561.488 367.655 523.19 297.27 498.841C226.885 474.491 137.897 466.175 67.2458 493.19C-14.9372 524.623 -66.2978 599.503 -159.487 601.29C-205.119 602.158 -246.655 583.189 -273.198 558.672C-299.741 534.155 -313.852 504.471 -327.543 475.353C-354.16 418.804 -380.778 362.254 -407.37 305.686" stroke="#1549FE" stroke-miterlimit="10"/>
<path d="M1786.57 574.668C1700.71 483.862 1521.47 438.011 1364.34 466.47C1244.9 488.103 1148.51 545.356 1048.55 593.681C1045.17 595.317 1041.79 596.935 1038.35 598.556C940.505 644.807 824.531 684.247 708.084 669.661C630.652 659.946 564.19 627.731 504.338 593.735C444.538 559.755 387.52 522.574 317.325 498.905C291.937 490.35 264.203 483.827 235.836 480.214C185.714 473.824 133.474 476.474 88.4893 492.997C6.50071 523.07 -45.6079 594.93 -137.898 595.92C-183.106 596.4 -224.165 577.618 -250.796 553.437C-278.329 528.465 -293.2 498.225 -307.529 468.403C-314.3 454.296 -321.046 440.171 -327.843 426.065C-348.931 382.366 -371.09 338.626 -394.494 297.045" stroke="#1549FE" stroke-miterlimit="10"/>
<path d="M1787.24 586.363C1701.04 498.237 1524.81 452.983 1370.35 478.974C1252.92 498.75 1158.03 552.606 1060.05 597.736C1056.74 599.259 1053.41 600.782 1050.07 602.288C954.181 645.457 841.012 682.065 726.816 666.646C650.423 656.325 584.369 624.467 524.475 591.224C464.687 558.011 407.385 521.921 337.381 498.945C312.058 490.646 284.463 484.299 256.231 480.765C206.43 474.527 154.546 476.982 109.707 492.763C27.9141 521.505 -24.9429 590.351 -116.307 590.567C-161.065 590.659 -201.698 572.047 -228.417 548.233C-256.938 522.807 -272.597 491.997 -287.51 461.488C-294.56 447.052 -301.558 432.615 -308.683 418.218C-330.736 373.56 -354.929 328.838 -381.637 288.458" stroke="#1549FE" stroke-miterlimit="10"/>
<path d="M1787.91 597.958C1701.37 512.489 1528.11 467.809 1376.35 491.366C1260.97 509.278 1167.58 559.797 1071.53 601.722C1068.29 603.131 1065.02 604.541 1061.73 605.953C967.806 646.062 857.417 679.86 745.5 663.627C670.171 652.702 604.5 621.198 544.565 588.719C484.789 556.267 427.227 521.257 357.388 498.968C332.13 490.907 304.649 484.753 276.603 481.295C227.122 475.191 175.621 477.469 130.903 492.531C49.3317 519.933 -4.32414 585.809 -94.7631 585.237C-139.096 584.946 -179.278 566.518 -206.085 543.032C-235.595 517.171 -252.042 485.775 -267.566 454.584C-274.893 439.838 -282.169 425.073 -289.571 410.384C-312.613 364.789 -338.789 319.088 -368.803 279.865" stroke="#1549FE" stroke-miterlimit="10"/>
<path d="M1788.57 609.435C1701.69 526.603 1531.43 482.507 1382.34 503.628C1268.98 519.69 1177.09 566.878 1083.02 605.652C1079.85 606.966 1076.63 608.265 1073.42 609.564C981.422 646.635 873.838 677.623 764.201 660.58C689.909 649.038 624.646 617.901 564.645 586.162C504.854 554.466 447.034 520.547 377.411 498.92C352.191 491.095 324.876 485.131 296.991 481.75C247.831 475.795 196.687 477.898 152.115 492.21C70.7393 518.301 16.3355 581.191 -73.2029 579.855C-117.112 579.183 -156.868 560.937 -183.737 537.775C-214.261 511.483 -231.47 479.502 -247.604 447.632C-255.208 432.577 -262.737 417.485 -270.442 402.505C-294.448 355.96 -322.656 309.304 -355.976 271.246" stroke="#1549FE" stroke-miterlimit="10"/>
<path d="M1789.22 620.831C1702.01 540.596 1534.75 497.077 1388.32 515.796C1277.01 530.019 1186.62 573.915 1094.51 609.544C1091.39 610.747 1088.27 611.951 1085.13 613.138C995.09 647.173 890.286 675.37 782.93 657.555C709.702 645.398 644.822 614.625 584.779 583.619C524.999 552.671 466.92 519.815 397.463 498.865C372.307 491.29 345.106 485.499 317.407 482.193C268.568 476.387 217.806 478.296 173.356 491.901C92.176 516.673 37.0268 576.635 -51.6108 574.538C-95.0955 573.487 -134.425 555.422 -161.357 532.597C-192.895 505.875 -210.865 473.312 -227.583 440.762C-235.465 425.401 -243.246 409.982 -251.279 394.714C-276.248 347.238 -306.49 299.613 -343.115 262.694" stroke="#1549FE" stroke-miterlimit="10"/>
<path d="M1789.71 630.728C1702.16 553.334 1537.92 510.532 1394.16 526.794C1284.87 539.164 1196.01 579.659 1105.82 612.091C1102.78 613.181 1099.7 614.272 1096.63 615.363C1008.56 646.313 906.533 671.654 801.488 653.119C729.3 640.379 664.835 610.081 604.755 579.9C544.991 549.792 486.631 518.095 417.369 497.884C392.279 490.565 365.218 484.965 337.655 481.764C289.138 476.111 238.735 477.847 194.406 490.715C113.422 514.114 57.5242 571.001 -30.2107 568.149C-73.2696 566.73 -112.171 548.901 -139.136 526.464C-171.684 499.398 -190.412 466.356 -207.737 433.235C-215.894 417.615 -223.925 401.919 -232.259 386.411C-258.186 338.14 -290.456 289.7 -330.355 254.059" stroke="#1549FE" stroke-miterlimit="10"/>
<path d="M1790.17 640.499C1702.3 565.9 1541.07 523.783 1399.98 537.653C1292.72 548.193 1205.36 585.333 1117.15 614.609C1114.18 615.604 1111.18 616.582 1108.18 617.561C1022.07 645.467 922.823 667.97 820.065 648.756C748.919 635.455 684.868 605.604 624.725 576.236C564.951 546.954 506.364 516.413 437.295 496.912C412.246 489.863 385.325 484.45 357.951 481.335C309.757 475.848 259.711 477.396 215.529 489.519C134.744 511.582 78.097 565.422 -8.73352 561.84C-51.3672 560.04 -89.8377 542.476 -116.863 520.419C-150.421 493.011 -169.906 459.492 -187.81 425.798C-196.244 409.904 -204.549 393.969 -213.159 378.202C-240.042 329.156 -274.339 279.904 -317.539 245.488" stroke="#1549FE" stroke-miterlimit="10"/>
<path d="M1790.63 650.237C1702.43 578.356 1544.2 536.932 1405.79 548.423C1300.58 557.155 1214.73 591.007 1128.48 617.155C1125.58 618.039 1122.63 618.925 1119.7 619.792C1035.55 644.698 939.085 664.401 838.614 644.49C768.509 630.594 704.872 601.208 644.692 572.63C584.935 544.154 526.092 514.727 457.193 495.939C432.209 489.136 405.43 483.923 378.218 480.909C330.347 475.584 280.685 476.946 236.627 488.354C156.065 509.085 98.6466 559.95 12.7201 555.627C-29.4873 553.466 -67.5542 536.142 -94.614 514.435C-129.207 486.678 -149.423 452.69 -167.934 418.404C-176.643 402.249 -185.198 386.036 -194.134 370.028C-222 320.181 -258.297 270.125 -304.797 236.925" stroke="#1549FE" stroke-miterlimit="10"/>
<path d="M1791.09 659.972C1702.55 590.775 1547.31 549.988 1411.6 559.142C1308.41 566.087 1224.07 596.679 1139.78 619.756C1136.92 620.531 1134.07 621.306 1131.19 622.083C1049 644.008 955.323 660.946 857.141 640.371C788.077 625.898 724.855 596.945 664.638 569.139C604.896 541.449 545.773 513.134 477.068 495.026C452.15 488.482 425.486 483.449 398.436 480.516C350.888 475.35 301.584 476.528 257.675 487.231C177.313 506.669 119.15 554.589 34.1277 549.53C-7.65296 547.01 -45.3162 529.917 -72.4109 508.548C-108.039 480.439 -128.986 445.959 -148.076 411.091C-157.06 394.673 -165.866 378.179 -175.102 361.926C-203.924 311.287 -242.247 260.403 -292.023 228.379" stroke="#1549FE" stroke-miterlimit="10"/>
<path d="M1791.53 669.675C1702.67 603.114 1550.43 562.96 1417.4 569.785C1316.26 574.96 1233.43 602.347 1151.1 622.372C1148.32 623.056 1145.54 623.723 1142.73 624.391C1062.51 643.388 971.61 657.557 875.718 636.316C807.695 621.25 744.888 592.733 684.634 565.684C624.882 538.765 565.529 511.523 497.019 494.099C472.14 487.793 445.644 482.951 418.756 480.098C371.53 475.07 322.587 476.098 278.826 486.073C198.663 504.218 139.758 549.253 55.6417 543.48C14.3139 540.603 -22.9978 523.735 -50.1006 502.711C-86.7632 474.26 -108.415 439.265 -128.137 403.812C-137.396 387.129 -146.451 370.352 -155.988 353.851C-185.767 302.395 -226.115 250.677 -279.19 219.843" stroke="#1549FE" stroke-miterlimit="10"/>
<path d="M1791.98 679.386C1702.78 615.4 1553.56 575.859 1423.2 580.377C1324.09 583.816 1242.76 608.002 1162.42 625.022C1159.71 625.599 1156.98 626.16 1154.25 626.737C1075.99 642.837 987.876 654.264 894.274 632.374C827.292 616.714 764.9 588.605 704.583 562.315C644.846 536.151 585.212 509.967 516.896 493.216C492.083 487.142 465.702 482.49 439.002 479.714C392.126 474.836 343.541 475.684 299.904 484.974C219.943 501.859 160.295 544.014 77.0851 537.53C36.1845 534.3 -0.723552 517.647 -27.8354 496.942C-65.5318 468.145 -87.9155 432.632 -108.242 396.588C-117.776 379.638 -127.081 362.576 -136.944 345.826C-167.678 293.564 -210.051 241.005 -266.428 211.31" stroke="#1549FE" stroke-miterlimit="10"/>
<path d="M1792.41 689.07C1702.9 627.654 1556.67 588.693 1428.99 590.939C1331.93 592.639 1252.12 613.689 1173.71 627.72C1171.05 628.191 1168.42 628.661 1165.73 629.134C1089.44 642.364 1004.11 651.058 912.798 628.516C846.856 612.247 784.88 584.567 724.526 559.004C664.804 533.583 604.916 508.455 536.767 492.351C512.021 486.522 485.78 482.023 459.216 479.341C412.664 474.612 364.438 475.28 320.925 483.893C241.166 499.516 180.778 538.86 98.4744 531.653C58.001 528.07 21.4713 511.645 -5.6506 491.233C-44.4065 462.087 -67.4955 426.049 -88.4006 389.41C-98.2096 372.19 -107.791 354.842 -117.927 337.839C-149.644 284.749 -194.014 231.359 -253.665 202.801" stroke="#1549FE" stroke-miterlimit="10"/>
<path d="M1792.84 698.758C1703 639.844 1559.77 601.48 1434.78 601.438C1339.75 601.413 1261.44 619.34 1185.02 630.421C1182.44 630.804 1179.85 631.17 1177.27 631.536C1102.94 641.904 1020.4 647.888 931.378 624.727C866.502 607.848 804.916 580.588 744.524 555.741C684.792 531.05 624.647 506.948 556.719 491.496C532.012 485.894 505.913 481.578 479.538 478.969C433.308 474.37 385.442 474.876 342.08 482.801C262.549 497.191 201.397 533.74 120 525.829C79.9546 521.896 43.802 505.676 16.6718 485.583C-23.1433 456.085 -46.9371 419.519 -68.4469 382.281C-78.5316 364.774 -88.3607 347.171 -98.798 329.897C-131.469 275.988 -177.864 221.747 -240.815 194.295" stroke="#1549FE" stroke-miterlimit="10"/>
<path d="M1793.27 708.427C1703.09 651.999 1562.87 614.184 1440.56 611.904C1347.58 610.164 1270.79 624.995 1196.34 633.152C1193.82 633.43 1191.31 633.692 1188.77 633.955C1116.42 641.501 1036.68 644.776 949.926 620.979C886.091 603.474 824.922 576.64 764.466 552.5C704.749 528.527 644.348 505.437 576.589 490.63C551.948 485.267 525.989 481.116 499.776 478.581C453.87 474.125 406.39 474.452 363.153 481.714C283.825 494.868 221.936 528.665 141.446 520.038C101.828 515.755 66.0541 499.75 38.9136 479.937C-1.96035 450.083 -26.459 412.985 -48.5473 375.144C-58.9326 357.365 -68.9853 339.471 -79.7484 321.943C-113.375 267.194 -161.793 212.096 -228.043 185.771" stroke="#1549FE" stroke-miterlimit="10"/>
<path d="M1793.69 718.104C1703.18 664.117 1565.97 626.871 1446.36 622.348C1355.41 618.906 1280.16 630.68 1207.65 635.918C1205.21 636.093 1202.74 636.269 1200.27 636.428C1129.89 641.172 1052.94 641.743 968.478 617.341C905.682 599.211 844.93 572.794 784.436 549.348C724.734 526.083 664.078 504.011 596.487 489.824C571.911 484.68 546.068 480.709 520.043 478.245C474.461 473.93 427.34 474.081 384.254 480.667C305.13 492.595 242.506 523.668 162.924 514.343C123.733 509.695 88.3119 493.92 61.1881 474.395C19.2304 444.199 -5.94688 406.564 -28.6403 368.103C-39.3002 350.049 -49.6025 331.864 -60.6653 314.078C-95.2463 258.501 -145.661 202.541 -215.211 177.296" stroke="#1549FE" stroke-miterlimit="10"/>
<path d="M1794.11 727.776C1703.26 676.219 1569.06 639.497 1452.13 632.762C1363.24 627.627 1289.48 636.351 1218.96 638.705C1216.56 638.778 1214.2 638.866 1211.8 638.922C1143.37 640.885 1069.25 638.749 987.056 613.742C925.326 594.969 864.965 568.979 804.434 546.218C744.721 523.654 683.808 502.57 616.411 488.996C591.875 484.07 566.2 480.274 540.311 477.882C495.051 473.69 448.292 473.698 405.357 479.615C326.438 490.344 263.08 518.699 184.431 508.66C145.668 503.666 110.625 488.097 83.5171 468.84C40.5013 438.281 14.6196 400.107 -8.67701 361.055C-19.6115 342.726 -30.1891 324.248 -41.5256 306.203C-77.0614 249.776 -129.498 192.968 -202.345 168.809" stroke="#1549FE" stroke-miterlimit="10"/>
<path d="M1794.52 737.429C1703.36 688.277 1572.12 652.087 1457.9 643.134C1371.04 636.314 1298.82 642.023 1230.26 641.496C1227.94 641.483 1225.62 641.453 1223.3 641.423C1156.83 640.604 1085.55 635.778 1005.6 610.197C944.937 590.782 884.967 565.212 824.398 543.128C764.7 521.253 703.532 501.165 636.328 488.197C611.859 483.502 586.297 479.848 560.598 477.542C515.662 473.487 469.288 473.319 426.48 478.589C347.766 488.111 283.676 513.787 205.935 503.039C167.626 497.698 132.909 482.333 105.816 463.337C61.7174 432.43 35.1566 393.697 11.2822 354.034C0.0732429 335.428 -10.7537 316.656 -22.4157 298.352C-58.9312 241.09 -113.363 183.411 -189.51 160.311" stroke="#1549FE" stroke-miterlimit="10"/>
<path d="M1794.93 747.097C1703.44 700.328 1575.2 664.64 1463.66 653.481C1378.86 644.985 1308.13 647.683 1241.54 644.29C1239.29 644.175 1237.04 644.059 1234.77 643.929C1170.28 640.361 1101.8 632.842 1024.12 606.67C964.525 586.596 904.948 561.455 844.316 540.057C784.632 518.865 723.182 499.747 656.173 487.395C631.769 482.912 606.349 479.432 580.812 477.194C536.2 473.275 490.186 472.933 447.53 477.542C369.049 485.881 304.199 508.866 227.368 497.443C189.487 491.757 155.122 476.592 128.046 457.869C82.8657 426.628 55.6252 387.317 31.1472 347.041C19.663 328.14 8.58776 309.09 -3.37375 290.524C-40.8434 232.405 -97.2966 173.854 -176.714 151.834" stroke="#1549FE" stroke-miterlimit="10"/>
<path d="M1795.33 756.746C1703.5 712.323 1578.27 677.161 1469.42 663.805C1386.65 653.658 1317.46 653.343 1252.84 647.116C1250.66 646.899 1248.47 646.7 1246.29 646.467C1183.77 640.164 1118.16 629.949 1042.69 603.217C984.187 582.484 924.976 557.767 864.306 537.03C804.611 516.514 742.931 498.357 676.09 486.616C651.726 482.361 626.448 479.035 601.073 476.866C556.785 473.08 511.131 472.565 468.603 476.535C390.328 483.683 324.748 504.028 248.825 491.899C211.373 485.869 177.36 470.899 150.299 452.429C104.011 420.836 76.1435 380.958 51.062 340.067C39.3036 320.887 27.9791 301.54 15.7182 282.712C-22.7045 223.748 -81.1781 164.322 -163.893 143.342" stroke="#1549FE" stroke-miterlimit="10"/>
<path d="M1795.73 766.41C1703.54 724.331 1581.34 689.652 1475.15 674.126C1394.43 662.316 1326.74 659.039 1264.11 649.974C1261.98 649.674 1259.88 649.357 1257.76 649.041C1197.21 640.015 1134.43 627.1 1061.21 599.807C1003.77 578.4 944.95 554.115 884.243 534.033C824.563 514.185 762.601 496.999 695.98 485.845C671.682 481.799 646.545 478.643 621.332 476.54C577.367 472.871 532.101 472.197 489.7 475.533C411.633 481.514 345.324 499.219 270.31 486.401C233.286 480.028 199.626 465.267 172.58 447.029C125.184 415.098 96.6638 374.635 70.9791 333.128C58.9466 313.667 47.374 294.039 34.787 274.932C-4.58836 215.121 -65.0819 154.815 -151.092 134.884" stroke="#1549FE" stroke-miterlimit="10"/>
<path d="M1796.13 776.054C1703.62 736.3 1584.41 702.114 1480.92 684.408C1402.24 670.942 1336.09 664.699 1275.4 652.828C1273.35 652.428 1271.3 652.027 1269.27 651.609C1210.7 639.858 1150.78 624.268 1079.78 596.432C1023.45 574.331 964.975 550.492 904.203 531.06C844.539 511.874 782.32 495.634 715.868 485.082C691.636 481.258 666.614 478.255 641.591 476.235C597.95 472.697 553.044 471.85 510.796 474.537C432.937 479.34 365.9 494.437 291.794 480.916C255.2 474.201 221.891 459.629 194.888 441.651C146.386 409.381 117.212 368.331 90.9504 326.203C78.6439 306.462 66.7962 286.537 53.9352 267.147C13.5807 206.47 -48.905 145.299 -138.185 126.391" stroke="#1549FE" stroke-miterlimit="10"/>
<path d="M1796.52 785.717C1703.68 748.255 1587.47 714.571 1486.67 694.693C1410.04 679.577 1345.39 670.399 1286.69 655.714C1284.72 655.214 1282.74 654.713 1280.76 654.213C1224.16 639.762 1167.13 621.476 1098.32 593.094C1043.08 570.318 984.97 546.902 924.161 528.113C864.485 509.585 802.036 494.282 735.753 484.327C711.561 480.71 686.706 477.873 661.82 475.919C618.503 472.51 573.959 471.508 531.864 473.55C454.213 477.197 386.449 489.684 313.253 475.461C277.087 468.404 244.131 454.035 217.142 436.282C167.534 403.669 137.709 362.048 110.843 319.283C98.2627 299.259 86.1662 279.034 72.9802 259.38C31.6737 197.85 -32.8314 135.777 -125.405 117.92" stroke="#1549FE" stroke-miterlimit="10"/>
<path d="M1796.92 795.363C1703.73 760.195 1590.53 726.972 1492.41 704.929C1417.82 688.169 1354.71 676.05 1297.99 658.58C1296.08 657.996 1294.15 657.397 1292.24 656.797C1237.62 639.658 1183.47 618.685 1116.86 589.773C1062.76 566.287 1004.97 543.324 944.119 525.173C884.458 507.296 821.727 492.943 755.665 483.562C731.538 480.148 706.798 477.462 682.101 475.589C639.134 472.291 594.951 471.133 552.984 472.533C475.542 475.014 407.053 484.921 334.766 470.014C299.028 462.599 266.426 448.446 239.452 430.915C188.738 397.959 158.26 355.747 130.792 312.36C117.937 292.037 105.592 271.528 92.1073 251.608C49.8483 189.205 -16.6737 126.262 -112.542 109.416" stroke="#1549FE" stroke-miterlimit="10"/>
<path d="M1797.3 805.023C1703.78 772.135 1593.56 739.384 1498.15 715.182C1425.61 696.781 1364.03 681.749 1309.25 661.489C1307.39 660.807 1305.56 660.123 1303.72 659.424C1251.07 639.606 1199.84 615.937 1135.39 586.495C1082.43 562.301 1024.95 539.769 964.071 522.267C904.425 505.036 841.438 491.611 775.545 482.818C751.484 479.623 726.886 477.085 702.351 475.276C659.708 472.106 615.886 470.776 574.074 471.553C496.868 472.887 427.628 480.211 356.25 464.605C320.941 456.849 288.666 442.895 261.733 425.598C209.889 392.313 178.783 349.493 150.739 305.48C137.61 284.873 125.017 264.063 111.234 243.876C68.0234 180.614 -0.51547 116.782 -99.6507 100.94" stroke="#1549FE" stroke-miterlimit="10"/>
<path d="M1797.69 814.671C1703.83 784.05 1596.61 751.748 1503.89 725.409C1433.38 705.373 1373.31 687.422 1320.53 664.395C1318.75 663.614 1316.96 662.833 1315.2 662.051C1264.53 639.547 1216.23 613.189 1153.92 583.249C1102.1 558.345 1044.97 536.257 983.996 519.385C924.339 502.796 861.097 490.308 795.398 482.084C771.377 479.09 746.92 476.716 722.574 474.97C680.256 471.926 636.821 470.424 595.138 470.581C518.141 470.759 448.177 475.51 377.709 459.221C342.856 451.124 310.907 437.366 283.989 420.285C231.014 386.67 199.282 343.238 170.636 298.599C157.233 277.708 144.366 256.598 130.283 236.142C86.1213 172.003 15.567 107.296 -86.8596 92.4691" stroke="#1549FE" stroke-miterlimit="10"/>
<path d="M1798.07 824.333C1703.9 795.949 1599.66 764.123 1509.62 735.637C1441.17 713.969 1382.63 693.11 1331.81 667.325C1330.1 666.462 1328.39 665.582 1326.68 664.702C1277.98 639.537 1232.64 610.481 1172.45 580.027C1121.8 554.397 1064.95 532.766 1003.94 516.518C944.302 500.565 880.804 488.994 815.3 481.351C791.346 478.573 767.004 476.346 742.821 474.663C700.826 471.728 657.753 470.072 616.199 469.595C539.412 468.621 468.699 470.827 399.168 453.855C364.744 445.419 333.121 431.854 306.271 415.001C252.141 381.055 219.808 337.011 190.586 291.743C176.91 270.566 163.794 249.154 149.413 228.429C104.275 163.428 31.7299 97.8099 -73.9609 83.9929" stroke="#1549FE" stroke-miterlimit="10"/>
<path d="M1798.45 833.995C1703.94 807.854 1602.7 776.466 1515.35 745.854C1448.93 722.56 1391.91 698.817 1343.06 670.266C1341.43 669.304 1339.76 668.343 1338.15 667.364C1291.43 639.544 1249.05 607.798 1191 576.843C1141.56 550.485 1084.96 529.309 1023.91 513.681C964.287 498.362 900.507 487.704 835.199 480.637C811.284 478.059 787.11 475.993 763.089 474.373C721.419 471.562 678.707 469.735 637.309 468.642C560.734 466.535 489.298 466.19 420.677 448.521C386.682 439.745 355.412 426.371 328.576 409.729C273.318 375.466 240.384 330.791 210.535 284.896C196.585 263.432 183.222 241.733 168.541 220.723C122.452 154.84 47.9197 88.3412 -61.0862 75.531" stroke="#1549FE" stroke-miterlimit="10"/>
<path d="M1798.83 843.645C1703.98 819.737 1605.75 788.798 1521.08 756.048C1456.72 731.145 1401.22 704.494 1354.34 673.202C1352.75 672.143 1351.19 671.083 1349.62 670.022C1304.85 639.557 1265.48 605.108 1209.52 573.654C1161.28 546.552 1104.94 525.844 1043.85 510.832C984.218 496.143 920.209 486.407 855.069 479.9C831.22 477.519 807.162 475.599 783.331 474.057C741.985 471.369 699.661 469.387 658.392 467.664C582.028 464.413 509.872 461.541 442.162 443.191C408.596 434.077 377.652 420.893 350.857 404.459C294.444 369.862 260.91 324.57 230.486 278.044C216.263 256.294 202.651 234.292 187.647 213.012C140.608 146.262 64.0615 78.8655 -48.2331 67.0401" stroke="#1549FE" stroke-miterlimit="10"/>
<path d="M1799.2 853.311C1704.02 831.609 1608.79 801.114 1526.8 766.232C1464.47 739.709 1410.49 710.19 1365.61 676.145C1364.1 675.004 1362.6 673.846 1361.09 672.689C1318.29 639.567 1281.93 602.439 1228.03 570.501C1181.03 542.654 1124.91 522.412 1063.76 508.013C1004.14 493.95 939.854 485.119 874.935 479.182C851.153 477.014 827.235 475.238 803.541 473.758C762.52 471.194 720.557 469.041 679.443 466.689C603.318 462.312 530.416 456.907 463.616 437.862C430.479 428.408 399.862 415.412 373.108 399.201C315.544 364.3 281.409 318.376 250.382 271.202C235.886 249.149 222.027 226.858 206.724 205.308C158.735 137.672 80.1766 69.3924 -35.3786 58.5626" stroke="#1549FE" stroke-miterlimit="10"/>
<path d="M1799.57 862.961C1704.05 843.472 1611.82 813.417 1532.54 776.405C1472.25 748.265 1419.81 715.868 1376.88 679.096C1375.44 677.857 1373.99 676.619 1372.57 675.363C1331.75 639.607 1298.43 599.787 1246.57 567.35C1200.84 538.758 1144.91 518.979 1083.72 505.19C1024.11 491.749 959.57 483.833 894.821 478.451C871.078 476.479 847.303 474.863 823.797 473.443C783.1 470.984 741.5 468.677 700.542 465.715C624.629 460.2 551.009 452.284 485.144 432.544C452.437 422.752 422.122 409.975 395.433 393.935C336.59 358.784 301.981 312.155 270.354 264.349C255.584 242.008 241.451 219.413 225.877 197.59C176.913 129.085 96.3678 59.8871 -22.4726 50.05" stroke="#1549FE" stroke-miterlimit="10"/>
<path d="M-9.63947 41.5869C112.485 50.4353 195.04 120.52 244.953 189.915C294.866 259.309 329.772 336.578 417.681 388.716C527.003 453.553 691.611 464.325 844 473.15C996.388 481.974 1161.44 495.825 1265.05 564.223C1314.93 597.158 1345.18 639.649 1384.01 678.034C1478.6 771.508 1628.72 841.731 1799.91 872.617" stroke="#1549FE" stroke-miterlimit="10"/>
</g>
<defs>
<clipPath id="clip0_253_110">
<rect width="1705" height="763" fill="white"/>
</clipPath>
</defs>
</svg>
